G04 #@! TF.GenerationSoftware,KiCad,Pcbnew,7.0.9-7.0.9~ubuntu20.04.1*
G04 #@! TF.CreationDate,2023-12-17T18:48:26+01:00*
G04 #@! TF.ProjectId,linear_controller,6c696e65-6172-45f6-936f-6e74726f6c6c,1.0*
G04 #@! TF.SameCoordinates,Original*
G04 #@! TF.FileFunction,Soldermask,Top*
G04 #@! TF.FilePolarity,Negative*
%FSLAX46Y46*%
G04 Gerber Fmt 4.6, Leading zero omitted, Abs format (unit mm)*
G04 Created by KiCad (PCBNEW 7.0.9-7.0.9~ubuntu20.04.1) date 2023-12-17 18:48:26*
%MOMM*%
%LPD*%
G01*
G04 APERTURE LIST*
G04 Aperture macros list*
%AMRoundRect*
0 Rectangle with rounded corners*
0 $1 Rounding radius*
0 $2 $3 $4 $5 $6 $7 $8 $9 X,Y pos of 4 corners*
0 Add a 4 corners polygon primitive as box body*
4,1,4,$2,$3,$4,$5,$6,$7,$8,$9,$2,$3,0*
0 Add four circle primitives for the rounded corners*
1,1,$1+$1,$2,$3*
1,1,$1+$1,$4,$5*
1,1,$1+$1,$6,$7*
1,1,$1+$1,$8,$9*
0 Add four rect primitives between the rounded corners*
20,1,$1+$1,$2,$3,$4,$5,0*
20,1,$1+$1,$4,$5,$6,$7,0*
20,1,$1+$1,$6,$7,$8,$9,0*
20,1,$1+$1,$8,$9,$2,$3,0*%
G04 Aperture macros list end*
%ADD10C,5.600000*%
%ADD11C,1.440000*%
%ADD12RoundRect,0.625000X0.625000X0.625000X-0.625000X0.625000X-0.625000X-0.625000X0.625000X-0.625000X0*%
%ADD13C,2.500000*%
%ADD14R,1.700000X1.700000*%
%ADD15O,1.700000X1.700000*%
%ADD16RoundRect,0.250000X0.600000X0.600000X-0.600000X0.600000X-0.600000X-0.600000X0.600000X-0.600000X0*%
%ADD17C,1.700000*%
%ADD18RoundRect,0.250000X-0.600000X-0.600000X0.600000X-0.600000X0.600000X0.600000X-0.600000X0.600000X0*%
%ADD19R,1.200000X1.200000*%
%ADD20C,1.200000*%
%ADD21C,8.000000*%
%ADD22R,8.000000X8.000000*%
%ADD23R,1.600000X1.600000*%
%ADD24C,1.600000*%
%ADD25O,1.600000X1.600000*%
%ADD26RoundRect,2.500000X-1.500000X0.000000X1.500000X0.000000X1.500000X0.000000X-1.500000X0.000000X0*%
%ADD27RoundRect,0.250000X-3.750000X-2.250000X3.750000X-2.250000X3.750000X2.250000X-3.750000X2.250000X0*%
%ADD28C,2.000000*%
%ADD29C,2.400000*%
%ADD30O,2.400000X2.400000*%
%ADD31R,2.600000X2.600000*%
%ADD32C,2.600000*%
%ADD33RoundRect,0.500000X-12.500000X-12.500000X12.500000X-12.500000X12.500000X12.500000X-12.500000X12.500000X0*%
G04 APERTURE END LIST*
D10*
X54200000Y-145800000D03*
D11*
X102070000Y-52065000D03*
X102070000Y-49525000D03*
X102070000Y-46985000D03*
X86830000Y-52065000D03*
X86830000Y-49525000D03*
X86830000Y-46985000D03*
D12*
X172136500Y-121332500D03*
D13*
X172136500Y-104187500D03*
X132639500Y-104187500D03*
X132639500Y-121332500D03*
D14*
X223000000Y-124190000D03*
D15*
X223000000Y-126730000D03*
X223000000Y-129270000D03*
X223000000Y-131810000D03*
D11*
X192360000Y-52065000D03*
X192360000Y-49525000D03*
X192360000Y-46985000D03*
D16*
X223000000Y-63270000D03*
D17*
X220460000Y-63270000D03*
X223000000Y-60730000D03*
X220460000Y-60730000D03*
X223000000Y-58190000D03*
X220460000Y-58190000D03*
D18*
X60000000Y-80190000D03*
D17*
X62540000Y-80190000D03*
X60000000Y-82730000D03*
X62540000Y-82730000D03*
X60000000Y-85270000D03*
X62540000Y-85270000D03*
X60000000Y-87810000D03*
X62540000Y-87810000D03*
D19*
X182697600Y-131810000D03*
D20*
X180697600Y-131810000D03*
D21*
X166205000Y-50590000D03*
D22*
X166205000Y-61590000D03*
D19*
X196965000Y-131810000D03*
D20*
X198965000Y-131810000D03*
D23*
X123241500Y-114845200D03*
D24*
X123241500Y-109845200D03*
D18*
X60000000Y-58190000D03*
D17*
X62540000Y-58190000D03*
X60000000Y-60730000D03*
X62540000Y-60730000D03*
X60000000Y-63270000D03*
X62540000Y-63270000D03*
X60000000Y-65810000D03*
X62540000Y-65810000D03*
D10*
X54200000Y-44200000D03*
D18*
X60000000Y-124190000D03*
D17*
X62540000Y-124190000D03*
X60000000Y-126730000D03*
X62540000Y-126730000D03*
X60000000Y-129270000D03*
X62540000Y-129270000D03*
X60000000Y-131810000D03*
X62540000Y-131810000D03*
D23*
X94105000Y-96885000D03*
D25*
X94105000Y-99425000D03*
X94105000Y-101965000D03*
X94105000Y-104505000D03*
X94105000Y-107045000D03*
X94105000Y-109585000D03*
X94105000Y-112125000D03*
X94105000Y-114665000D03*
X94105000Y-117205000D03*
X94105000Y-119745000D03*
X94105000Y-122285000D03*
X94105000Y-124825000D03*
X94105000Y-127365000D03*
X94105000Y-129905000D03*
X94105000Y-132445000D03*
X109345000Y-132445000D03*
X109345000Y-129905000D03*
X109345000Y-127365000D03*
X109345000Y-124825000D03*
X109345000Y-122285000D03*
X109345000Y-119745000D03*
X109345000Y-117205000D03*
X109345000Y-114665000D03*
X109345000Y-112125000D03*
X109345000Y-109585000D03*
X109345000Y-107045000D03*
X109345000Y-104505000D03*
X109345000Y-101965000D03*
X109345000Y-99425000D03*
X109345000Y-96885000D03*
D10*
X228800000Y-145800000D03*
D26*
X217500000Y-77000000D03*
D27*
X228000000Y-77000000D03*
D10*
X228800000Y-44200000D03*
D21*
X137630000Y-50590000D03*
D22*
X137630000Y-61590000D03*
D19*
X182697600Y-61325000D03*
D20*
X180697600Y-61325000D03*
D11*
X207600000Y-52065000D03*
X207600000Y-49525000D03*
X207600000Y-46985000D03*
D28*
X223000000Y-145000000D03*
D29*
X76510000Y-65810000D03*
D30*
X96830000Y-65810000D03*
D28*
X60000000Y-45000000D03*
D18*
X60000000Y-102190000D03*
D17*
X62540000Y-102190000D03*
X60000000Y-104730000D03*
X62540000Y-104730000D03*
X60000000Y-107270000D03*
X62540000Y-107270000D03*
X60000000Y-109810000D03*
X62540000Y-109810000D03*
D31*
X187435000Y-142275000D03*
D32*
X192515000Y-142275000D03*
D23*
X181661500Y-110039800D03*
D24*
X181661500Y-115039800D03*
D16*
X223000000Y-98810000D03*
D17*
X220460000Y-98810000D03*
X223000000Y-96270000D03*
X220460000Y-96270000D03*
X223000000Y-93730000D03*
X220460000Y-93730000D03*
X223000000Y-91190000D03*
X220460000Y-91190000D03*
D33*
X157470000Y-81960000D03*
M02*
