G04 #@! TF.GenerationSoftware,KiCad,Pcbnew,7.0.9-7.0.9~ubuntu20.04.1*
G04 #@! TF.CreationDate,2023-12-17T18:48:26+01:00*
G04 #@! TF.ProjectId,linear_controller,6c696e65-6172-45f6-936f-6e74726f6c6c,1.0*
G04 #@! TF.SameCoordinates,Original*
G04 #@! TF.FileFunction,Legend,Top*
G04 #@! TF.FilePolarity,Positive*
%FSLAX46Y46*%
G04 Gerber Fmt 4.6, Leading zero omitted, Abs format (unit mm)*
G04 Created by KiCad (PCBNEW 7.0.9-7.0.9~ubuntu20.04.1) date 2023-12-17 18:48:26*
%MOMM*%
%LPD*%
G01*
G04 APERTURE LIST*
G04 Aperture macros list*
%AMRoundRect*
0 Rectangle with rounded corners*
0 $1 Rounding radius*
0 $2 $3 $4 $5 $6 $7 $8 $9 X,Y pos of 4 corners*
0 Add a 4 corners polygon primitive as box body*
4,1,4,$2,$3,$4,$5,$6,$7,$8,$9,$2,$3,0*
0 Add four circle primitives for the rounded corners*
1,1,$1+$1,$2,$3*
1,1,$1+$1,$4,$5*
1,1,$1+$1,$6,$7*
1,1,$1+$1,$8,$9*
0 Add four rect primitives between the rounded corners*
20,1,$1+$1,$2,$3,$4,$5,0*
20,1,$1+$1,$4,$5,$6,$7,0*
20,1,$1+$1,$6,$7,$8,$9,0*
20,1,$1+$1,$8,$9,$2,$3,0*%
G04 Aperture macros list end*
%ADD10C,0.300000*%
%ADD11C,0.250000*%
%ADD12C,0.500000*%
%ADD13C,0.150000*%
%ADD14C,0.120000*%
%ADD15C,0.127000*%
%ADD16C,5.600000*%
%ADD17C,1.440000*%
%ADD18RoundRect,0.625000X0.625000X0.625000X-0.625000X0.625000X-0.625000X-0.625000X0.625000X-0.625000X0*%
%ADD19C,2.500000*%
%ADD20R,1.700000X1.700000*%
%ADD21O,1.700000X1.700000*%
%ADD22RoundRect,0.250000X0.600000X0.600000X-0.600000X0.600000X-0.600000X-0.600000X0.600000X-0.600000X0*%
%ADD23C,1.700000*%
%ADD24RoundRect,0.250000X-0.600000X-0.600000X0.600000X-0.600000X0.600000X0.600000X-0.600000X0.600000X0*%
%ADD25R,1.200000X1.200000*%
%ADD26C,1.200000*%
%ADD27C,8.000000*%
%ADD28R,8.000000X8.000000*%
%ADD29R,1.600000X1.600000*%
%ADD30C,1.600000*%
%ADD31O,1.600000X1.600000*%
%ADD32RoundRect,2.500000X-1.500000X0.000000X1.500000X0.000000X1.500000X0.000000X-1.500000X0.000000X0*%
%ADD33RoundRect,0.250000X-3.750000X-2.250000X3.750000X-2.250000X3.750000X2.250000X-3.750000X2.250000X0*%
%ADD34C,2.000000*%
%ADD35C,2.400000*%
%ADD36O,2.400000X2.400000*%
%ADD37R,2.600000X2.600000*%
%ADD38C,2.600000*%
%ADD39RoundRect,0.500000X-12.500000X-12.500000X12.500000X-12.500000X12.500000X12.500000X-12.500000X12.500000X0*%
G04 APERTURE END LIST*
D10*
X68833320Y-106338209D02*
X69785701Y-106338209D01*
X68642844Y-106909638D02*
X69309510Y-104909638D01*
X69309510Y-104909638D02*
X69976177Y-106909638D01*
X70642844Y-106909638D02*
X70642844Y-104909638D01*
X70642844Y-104909638D02*
X71785701Y-106909638D01*
X71785701Y-106909638D02*
X71785701Y-104909638D01*
X72452368Y-104909638D02*
X73595225Y-104909638D01*
X73023796Y-106909638D02*
X73023796Y-104909638D01*
X74261892Y-105862019D02*
X74928559Y-105862019D01*
X75214273Y-106909638D02*
X74261892Y-106909638D01*
X74261892Y-106909638D02*
X74261892Y-104909638D01*
X74261892Y-104909638D02*
X75214273Y-104909638D01*
X76071416Y-106909638D02*
X76071416Y-104909638D01*
X76071416Y-104909638D02*
X77214273Y-106909638D01*
X77214273Y-106909638D02*
X77214273Y-104909638D01*
X78166654Y-106909638D02*
X78166654Y-104909638D01*
X78166654Y-104909638D02*
X79309511Y-106909638D01*
X79309511Y-106909638D02*
X79309511Y-104909638D01*
X80166654Y-106338209D02*
X81119035Y-106338209D01*
X79976178Y-106909638D02*
X80642844Y-104909638D01*
X80642844Y-104909638D02*
X81309511Y-106909638D01*
D11*
X226261615Y-129239357D02*
X226261615Y-129858404D01*
X225828282Y-128558404D02*
X226261615Y-129239357D01*
X226261615Y-129239357D02*
X226694949Y-128558404D01*
X227623520Y-129796500D02*
X227499711Y-129858404D01*
X227499711Y-129858404D02*
X227252092Y-129858404D01*
X227252092Y-129858404D02*
X227128282Y-129796500D01*
X227128282Y-129796500D02*
X227066378Y-129672690D01*
X227066378Y-129672690D02*
X227066378Y-129177452D01*
X227066378Y-129177452D02*
X227128282Y-129053642D01*
X227128282Y-129053642D02*
X227252092Y-128991738D01*
X227252092Y-128991738D02*
X227499711Y-128991738D01*
X227499711Y-128991738D02*
X227623520Y-129053642D01*
X227623520Y-129053642D02*
X227685425Y-129177452D01*
X227685425Y-129177452D02*
X227685425Y-129301261D01*
X227685425Y-129301261D02*
X227066378Y-129425071D01*
X228428283Y-129858404D02*
X228304473Y-129796500D01*
X228304473Y-129796500D02*
X228242568Y-129672690D01*
X228242568Y-129672690D02*
X228242568Y-128558404D01*
X229109235Y-129858404D02*
X228985425Y-129796500D01*
X228985425Y-129796500D02*
X228923520Y-129672690D01*
X228923520Y-129672690D02*
X228923520Y-128558404D01*
X229790187Y-129858404D02*
X229666377Y-129796500D01*
X229666377Y-129796500D02*
X229604472Y-129734595D01*
X229604472Y-129734595D02*
X229542568Y-129610785D01*
X229542568Y-129610785D02*
X229542568Y-129239357D01*
X229542568Y-129239357D02*
X229604472Y-129115547D01*
X229604472Y-129115547D02*
X229666377Y-129053642D01*
X229666377Y-129053642D02*
X229790187Y-128991738D01*
X229790187Y-128991738D02*
X229975901Y-128991738D01*
X229975901Y-128991738D02*
X230099710Y-129053642D01*
X230099710Y-129053642D02*
X230161615Y-129115547D01*
X230161615Y-129115547D02*
X230223520Y-129239357D01*
X230223520Y-129239357D02*
X230223520Y-129610785D01*
X230223520Y-129610785D02*
X230161615Y-129734595D01*
X230161615Y-129734595D02*
X230099710Y-129796500D01*
X230099710Y-129796500D02*
X229975901Y-129858404D01*
X229975901Y-129858404D02*
X229790187Y-129858404D01*
X230656853Y-128991738D02*
X230904472Y-129858404D01*
X230904472Y-129858404D02*
X231152091Y-129239357D01*
X231152091Y-129239357D02*
X231399710Y-129858404D01*
X231399710Y-129858404D02*
X231647329Y-128991738D01*
D10*
X188736904Y-133024638D02*
X187594047Y-133024638D01*
X188165475Y-133024638D02*
X188165475Y-131024638D01*
X188165475Y-131024638D02*
X187974999Y-131310352D01*
X187974999Y-131310352D02*
X187784523Y-131500828D01*
X187784523Y-131500828D02*
X187594047Y-131596066D01*
X189498809Y-131215114D02*
X189594047Y-131119876D01*
X189594047Y-131119876D02*
X189784523Y-131024638D01*
X189784523Y-131024638D02*
X190260714Y-131024638D01*
X190260714Y-131024638D02*
X190451190Y-131119876D01*
X190451190Y-131119876D02*
X190546428Y-131215114D01*
X190546428Y-131215114D02*
X190641666Y-131405590D01*
X190641666Y-131405590D02*
X190641666Y-131596066D01*
X190641666Y-131596066D02*
X190546428Y-131881780D01*
X190546428Y-131881780D02*
X189403571Y-133024638D01*
X189403571Y-133024638D02*
X190641666Y-133024638D01*
X191213095Y-131024638D02*
X191879761Y-133024638D01*
X191879761Y-133024638D02*
X192546428Y-131024638D01*
X70071415Y-128719161D02*
X69976177Y-128814400D01*
X69976177Y-128814400D02*
X69690463Y-128909638D01*
X69690463Y-128909638D02*
X69499987Y-128909638D01*
X69499987Y-128909638D02*
X69214272Y-128814400D01*
X69214272Y-128814400D02*
X69023796Y-128623923D01*
X69023796Y-128623923D02*
X68928558Y-128433447D01*
X68928558Y-128433447D02*
X68833320Y-128052495D01*
X68833320Y-128052495D02*
X68833320Y-127766780D01*
X68833320Y-127766780D02*
X68928558Y-127385828D01*
X68928558Y-127385828D02*
X69023796Y-127195352D01*
X69023796Y-127195352D02*
X69214272Y-127004876D01*
X69214272Y-127004876D02*
X69499987Y-126909638D01*
X69499987Y-126909638D02*
X69690463Y-126909638D01*
X69690463Y-126909638D02*
X69976177Y-127004876D01*
X69976177Y-127004876D02*
X70071415Y-127100114D01*
X70833320Y-128338209D02*
X71785701Y-128338209D01*
X70642844Y-128909638D02*
X71309510Y-126909638D01*
X71309510Y-126909638D02*
X71976177Y-128909638D01*
X72357130Y-126909638D02*
X73499987Y-126909638D01*
X72928558Y-128909638D02*
X72928558Y-126909638D01*
X69400225Y-61822019D02*
X68733558Y-61822019D01*
X68733558Y-62869638D02*
X68733558Y-60869638D01*
X68733558Y-60869638D02*
X69685939Y-60869638D01*
X70352606Y-62298209D02*
X71304987Y-62298209D01*
X70162130Y-62869638D02*
X70828796Y-60869638D01*
X70828796Y-60869638D02*
X71495463Y-62869638D01*
X72162130Y-62869638D02*
X72162130Y-60869638D01*
X72162130Y-60869638D02*
X73304987Y-62869638D01*
X73304987Y-62869638D02*
X73304987Y-60869638D01*
X174143558Y-53344638D02*
X174143558Y-51344638D01*
X175095939Y-53344638D02*
X175095939Y-51344638D01*
X175095939Y-51344638D02*
X176238796Y-53344638D01*
X176238796Y-53344638D02*
X176238796Y-51344638D01*
X143663558Y-137754638D02*
X143663558Y-135754638D01*
X143663558Y-135754638D02*
X144425463Y-135754638D01*
X144425463Y-135754638D02*
X144615939Y-135849876D01*
X144615939Y-135849876D02*
X144711177Y-135945114D01*
X144711177Y-135945114D02*
X144806415Y-136135590D01*
X144806415Y-136135590D02*
X144806415Y-136421304D01*
X144806415Y-136421304D02*
X144711177Y-136611780D01*
X144711177Y-136611780D02*
X144615939Y-136707019D01*
X144615939Y-136707019D02*
X144425463Y-136802257D01*
X144425463Y-136802257D02*
X143663558Y-136802257D01*
X145949272Y-137754638D02*
X145758796Y-137659400D01*
X145758796Y-137659400D02*
X145663558Y-137564161D01*
X145663558Y-137564161D02*
X145568320Y-137373685D01*
X145568320Y-137373685D02*
X145568320Y-136802257D01*
X145568320Y-136802257D02*
X145663558Y-136611780D01*
X145663558Y-136611780D02*
X145758796Y-136516542D01*
X145758796Y-136516542D02*
X145949272Y-136421304D01*
X145949272Y-136421304D02*
X146234987Y-136421304D01*
X146234987Y-136421304D02*
X146425463Y-136516542D01*
X146425463Y-136516542D02*
X146520701Y-136611780D01*
X146520701Y-136611780D02*
X146615939Y-136802257D01*
X146615939Y-136802257D02*
X146615939Y-137373685D01*
X146615939Y-137373685D02*
X146520701Y-137564161D01*
X146520701Y-137564161D02*
X146425463Y-137659400D01*
X146425463Y-137659400D02*
X146234987Y-137754638D01*
X146234987Y-137754638D02*
X145949272Y-137754638D01*
X147282606Y-136421304D02*
X147663558Y-137754638D01*
X147663558Y-137754638D02*
X148044511Y-136802257D01*
X148044511Y-136802257D02*
X148425463Y-137754638D01*
X148425463Y-137754638D02*
X148806415Y-136421304D01*
X150330225Y-137659400D02*
X150139749Y-137754638D01*
X150139749Y-137754638D02*
X149758796Y-137754638D01*
X149758796Y-137754638D02*
X149568320Y-137659400D01*
X149568320Y-137659400D02*
X149473082Y-137468923D01*
X149473082Y-137468923D02*
X149473082Y-136707019D01*
X149473082Y-136707019D02*
X149568320Y-136516542D01*
X149568320Y-136516542D02*
X149758796Y-136421304D01*
X149758796Y-136421304D02*
X150139749Y-136421304D01*
X150139749Y-136421304D02*
X150330225Y-136516542D01*
X150330225Y-136516542D02*
X150425463Y-136707019D01*
X150425463Y-136707019D02*
X150425463Y-136897495D01*
X150425463Y-136897495D02*
X149473082Y-137087971D01*
X151282606Y-137754638D02*
X151282606Y-136421304D01*
X151282606Y-136802257D02*
X151377844Y-136611780D01*
X151377844Y-136611780D02*
X151473082Y-136516542D01*
X151473082Y-136516542D02*
X151663558Y-136421304D01*
X151663558Y-136421304D02*
X151854035Y-136421304D01*
X155187368Y-137564161D02*
X155092130Y-137659400D01*
X155092130Y-137659400D02*
X154806416Y-137754638D01*
X154806416Y-137754638D02*
X154615940Y-137754638D01*
X154615940Y-137754638D02*
X154330225Y-137659400D01*
X154330225Y-137659400D02*
X154139749Y-137468923D01*
X154139749Y-137468923D02*
X154044511Y-137278447D01*
X154044511Y-137278447D02*
X153949273Y-136897495D01*
X153949273Y-136897495D02*
X153949273Y-136611780D01*
X153949273Y-136611780D02*
X154044511Y-136230828D01*
X154044511Y-136230828D02*
X154139749Y-136040352D01*
X154139749Y-136040352D02*
X154330225Y-135849876D01*
X154330225Y-135849876D02*
X154615940Y-135754638D01*
X154615940Y-135754638D02*
X154806416Y-135754638D01*
X154806416Y-135754638D02*
X155092130Y-135849876D01*
X155092130Y-135849876D02*
X155187368Y-135945114D01*
X156330225Y-137754638D02*
X156139749Y-137659400D01*
X156139749Y-137659400D02*
X156044511Y-137564161D01*
X156044511Y-137564161D02*
X155949273Y-137373685D01*
X155949273Y-137373685D02*
X155949273Y-136802257D01*
X155949273Y-136802257D02*
X156044511Y-136611780D01*
X156044511Y-136611780D02*
X156139749Y-136516542D01*
X156139749Y-136516542D02*
X156330225Y-136421304D01*
X156330225Y-136421304D02*
X156615940Y-136421304D01*
X156615940Y-136421304D02*
X156806416Y-136516542D01*
X156806416Y-136516542D02*
X156901654Y-136611780D01*
X156901654Y-136611780D02*
X156996892Y-136802257D01*
X156996892Y-136802257D02*
X156996892Y-137373685D01*
X156996892Y-137373685D02*
X156901654Y-137564161D01*
X156901654Y-137564161D02*
X156806416Y-137659400D01*
X156806416Y-137659400D02*
X156615940Y-137754638D01*
X156615940Y-137754638D02*
X156330225Y-137754638D01*
X157854035Y-136421304D02*
X157854035Y-137754638D01*
X157854035Y-136611780D02*
X157949273Y-136516542D01*
X157949273Y-136516542D02*
X158139749Y-136421304D01*
X158139749Y-136421304D02*
X158425464Y-136421304D01*
X158425464Y-136421304D02*
X158615940Y-136516542D01*
X158615940Y-136516542D02*
X158711178Y-136707019D01*
X158711178Y-136707019D02*
X158711178Y-137754638D01*
X159377845Y-136421304D02*
X160139749Y-136421304D01*
X159663559Y-135754638D02*
X159663559Y-137468923D01*
X159663559Y-137468923D02*
X159758797Y-137659400D01*
X159758797Y-137659400D02*
X159949273Y-137754638D01*
X159949273Y-137754638D02*
X160139749Y-137754638D01*
X160806416Y-137754638D02*
X160806416Y-136421304D01*
X160806416Y-136802257D02*
X160901654Y-136611780D01*
X160901654Y-136611780D02*
X160996892Y-136516542D01*
X160996892Y-136516542D02*
X161187368Y-136421304D01*
X161187368Y-136421304D02*
X161377845Y-136421304D01*
X162330225Y-137754638D02*
X162139749Y-137659400D01*
X162139749Y-137659400D02*
X162044511Y-137564161D01*
X162044511Y-137564161D02*
X161949273Y-137373685D01*
X161949273Y-137373685D02*
X161949273Y-136802257D01*
X161949273Y-136802257D02*
X162044511Y-136611780D01*
X162044511Y-136611780D02*
X162139749Y-136516542D01*
X162139749Y-136516542D02*
X162330225Y-136421304D01*
X162330225Y-136421304D02*
X162615940Y-136421304D01*
X162615940Y-136421304D02*
X162806416Y-136516542D01*
X162806416Y-136516542D02*
X162901654Y-136611780D01*
X162901654Y-136611780D02*
X162996892Y-136802257D01*
X162996892Y-136802257D02*
X162996892Y-137373685D01*
X162996892Y-137373685D02*
X162901654Y-137564161D01*
X162901654Y-137564161D02*
X162806416Y-137659400D01*
X162806416Y-137659400D02*
X162615940Y-137754638D01*
X162615940Y-137754638D02*
X162330225Y-137754638D01*
X164139749Y-137754638D02*
X163949273Y-137659400D01*
X163949273Y-137659400D02*
X163854035Y-137468923D01*
X163854035Y-137468923D02*
X163854035Y-135754638D01*
X143663558Y-140974638D02*
X143663558Y-139641304D01*
X143663558Y-140022257D02*
X143758796Y-139831780D01*
X143758796Y-139831780D02*
X143854034Y-139736542D01*
X143854034Y-139736542D02*
X144044510Y-139641304D01*
X144044510Y-139641304D02*
X144234987Y-139641304D01*
X145663558Y-140879400D02*
X145473082Y-140974638D01*
X145473082Y-140974638D02*
X145092129Y-140974638D01*
X145092129Y-140974638D02*
X144901653Y-140879400D01*
X144901653Y-140879400D02*
X144806415Y-140688923D01*
X144806415Y-140688923D02*
X144806415Y-139927019D01*
X144806415Y-139927019D02*
X144901653Y-139736542D01*
X144901653Y-139736542D02*
X145092129Y-139641304D01*
X145092129Y-139641304D02*
X145473082Y-139641304D01*
X145473082Y-139641304D02*
X145663558Y-139736542D01*
X145663558Y-139736542D02*
X145758796Y-139927019D01*
X145758796Y-139927019D02*
X145758796Y-140117495D01*
X145758796Y-140117495D02*
X144806415Y-140307971D01*
X146425463Y-139641304D02*
X146901653Y-140974638D01*
X146901653Y-140974638D02*
X147377844Y-139641304D01*
X148139749Y-140784161D02*
X148234987Y-140879400D01*
X148234987Y-140879400D02*
X148139749Y-140974638D01*
X148139749Y-140974638D02*
X148044511Y-140879400D01*
X148044511Y-140879400D02*
X148139749Y-140784161D01*
X148139749Y-140784161D02*
X148139749Y-140974638D01*
X148139749Y-139736542D02*
X148234987Y-139831780D01*
X148234987Y-139831780D02*
X148139749Y-139927019D01*
X148139749Y-139927019D02*
X148044511Y-139831780D01*
X148044511Y-139831780D02*
X148139749Y-139736542D01*
X148139749Y-139736542D02*
X148139749Y-139927019D01*
X150139749Y-140974638D02*
X148996892Y-140974638D01*
X149568320Y-140974638D02*
X149568320Y-138974638D01*
X149568320Y-138974638D02*
X149377844Y-139260352D01*
X149377844Y-139260352D02*
X149187368Y-139450828D01*
X149187368Y-139450828D02*
X148996892Y-139546066D01*
X150996892Y-140784161D02*
X151092130Y-140879400D01*
X151092130Y-140879400D02*
X150996892Y-140974638D01*
X150996892Y-140974638D02*
X150901654Y-140879400D01*
X150901654Y-140879400D02*
X150996892Y-140784161D01*
X150996892Y-140784161D02*
X150996892Y-140974638D01*
X152330225Y-138974638D02*
X152520702Y-138974638D01*
X152520702Y-138974638D02*
X152711178Y-139069876D01*
X152711178Y-139069876D02*
X152806416Y-139165114D01*
X152806416Y-139165114D02*
X152901654Y-139355590D01*
X152901654Y-139355590D02*
X152996892Y-139736542D01*
X152996892Y-139736542D02*
X152996892Y-140212733D01*
X152996892Y-140212733D02*
X152901654Y-140593685D01*
X152901654Y-140593685D02*
X152806416Y-140784161D01*
X152806416Y-140784161D02*
X152711178Y-140879400D01*
X152711178Y-140879400D02*
X152520702Y-140974638D01*
X152520702Y-140974638D02*
X152330225Y-140974638D01*
X152330225Y-140974638D02*
X152139749Y-140879400D01*
X152139749Y-140879400D02*
X152044511Y-140784161D01*
X152044511Y-140784161D02*
X151949273Y-140593685D01*
X151949273Y-140593685D02*
X151854035Y-140212733D01*
X151854035Y-140212733D02*
X151854035Y-139736542D01*
X151854035Y-139736542D02*
X151949273Y-139355590D01*
X151949273Y-139355590D02*
X152044511Y-139165114D01*
X152044511Y-139165114D02*
X152139749Y-139069876D01*
X152139749Y-139069876D02*
X152330225Y-138974638D01*
X143568320Y-142385114D02*
X143663558Y-142289876D01*
X143663558Y-142289876D02*
X143854034Y-142194638D01*
X143854034Y-142194638D02*
X144330225Y-142194638D01*
X144330225Y-142194638D02*
X144520701Y-142289876D01*
X144520701Y-142289876D02*
X144615939Y-142385114D01*
X144615939Y-142385114D02*
X144711177Y-142575590D01*
X144711177Y-142575590D02*
X144711177Y-142766066D01*
X144711177Y-142766066D02*
X144615939Y-143051780D01*
X144615939Y-143051780D02*
X143473082Y-144194638D01*
X143473082Y-144194638D02*
X144711177Y-144194638D01*
X145473082Y-142385114D02*
X145568320Y-142289876D01*
X145568320Y-142289876D02*
X145758796Y-142194638D01*
X145758796Y-142194638D02*
X146234987Y-142194638D01*
X146234987Y-142194638D02*
X146425463Y-142289876D01*
X146425463Y-142289876D02*
X146520701Y-142385114D01*
X146520701Y-142385114D02*
X146615939Y-142575590D01*
X146615939Y-142575590D02*
X146615939Y-142766066D01*
X146615939Y-142766066D02*
X146520701Y-143051780D01*
X146520701Y-143051780D02*
X145377844Y-144194638D01*
X145377844Y-144194638D02*
X146615939Y-144194638D01*
X147473082Y-144004161D02*
X147568320Y-144099400D01*
X147568320Y-144099400D02*
X147473082Y-144194638D01*
X147473082Y-144194638D02*
X147377844Y-144099400D01*
X147377844Y-144099400D02*
X147473082Y-144004161D01*
X147473082Y-144004161D02*
X147473082Y-144194638D01*
X149282606Y-142861304D02*
X149282606Y-144194638D01*
X148806415Y-142099400D02*
X148330225Y-143527971D01*
X148330225Y-143527971D02*
X149568320Y-143527971D01*
X150330225Y-144004161D02*
X150425463Y-144099400D01*
X150425463Y-144099400D02*
X150330225Y-144194638D01*
X150330225Y-144194638D02*
X150234987Y-144099400D01*
X150234987Y-144099400D02*
X150330225Y-144004161D01*
X150330225Y-144004161D02*
X150330225Y-144194638D01*
X151187368Y-142385114D02*
X151282606Y-142289876D01*
X151282606Y-142289876D02*
X151473082Y-142194638D01*
X151473082Y-142194638D02*
X151949273Y-142194638D01*
X151949273Y-142194638D02*
X152139749Y-142289876D01*
X152139749Y-142289876D02*
X152234987Y-142385114D01*
X152234987Y-142385114D02*
X152330225Y-142575590D01*
X152330225Y-142575590D02*
X152330225Y-142766066D01*
X152330225Y-142766066D02*
X152234987Y-143051780D01*
X152234987Y-143051780D02*
X151092130Y-144194638D01*
X151092130Y-144194638D02*
X152330225Y-144194638D01*
X153568320Y-142194638D02*
X153758797Y-142194638D01*
X153758797Y-142194638D02*
X153949273Y-142289876D01*
X153949273Y-142289876D02*
X154044511Y-142385114D01*
X154044511Y-142385114D02*
X154139749Y-142575590D01*
X154139749Y-142575590D02*
X154234987Y-142956542D01*
X154234987Y-142956542D02*
X154234987Y-143432733D01*
X154234987Y-143432733D02*
X154139749Y-143813685D01*
X154139749Y-143813685D02*
X154044511Y-144004161D01*
X154044511Y-144004161D02*
X153949273Y-144099400D01*
X153949273Y-144099400D02*
X153758797Y-144194638D01*
X153758797Y-144194638D02*
X153568320Y-144194638D01*
X153568320Y-144194638D02*
X153377844Y-144099400D01*
X153377844Y-144099400D02*
X153282606Y-144004161D01*
X153282606Y-144004161D02*
X153187368Y-143813685D01*
X153187368Y-143813685D02*
X153092130Y-143432733D01*
X153092130Y-143432733D02*
X153092130Y-142956542D01*
X153092130Y-142956542D02*
X153187368Y-142575590D01*
X153187368Y-142575590D02*
X153282606Y-142385114D01*
X153282606Y-142385114D02*
X153377844Y-142289876D01*
X153377844Y-142289876D02*
X153568320Y-142194638D01*
X154996892Y-142385114D02*
X155092130Y-142289876D01*
X155092130Y-142289876D02*
X155282606Y-142194638D01*
X155282606Y-142194638D02*
X155758797Y-142194638D01*
X155758797Y-142194638D02*
X155949273Y-142289876D01*
X155949273Y-142289876D02*
X156044511Y-142385114D01*
X156044511Y-142385114D02*
X156139749Y-142575590D01*
X156139749Y-142575590D02*
X156139749Y-142766066D01*
X156139749Y-142766066D02*
X156044511Y-143051780D01*
X156044511Y-143051780D02*
X154901654Y-144194638D01*
X154901654Y-144194638D02*
X156139749Y-144194638D01*
X156806416Y-142194638D02*
X158044511Y-142194638D01*
X158044511Y-142194638D02*
X157377844Y-142956542D01*
X157377844Y-142956542D02*
X157663559Y-142956542D01*
X157663559Y-142956542D02*
X157854035Y-143051780D01*
X157854035Y-143051780D02*
X157949273Y-143147019D01*
X157949273Y-143147019D02*
X158044511Y-143337495D01*
X158044511Y-143337495D02*
X158044511Y-143813685D01*
X158044511Y-143813685D02*
X157949273Y-144004161D01*
X157949273Y-144004161D02*
X157854035Y-144099400D01*
X157854035Y-144099400D02*
X157663559Y-144194638D01*
X157663559Y-144194638D02*
X157092130Y-144194638D01*
X157092130Y-144194638D02*
X156901654Y-144099400D01*
X156901654Y-144099400D02*
X156806416Y-144004161D01*
X201912631Y-61449161D02*
X201817393Y-61544400D01*
X201817393Y-61544400D02*
X201531679Y-61639638D01*
X201531679Y-61639638D02*
X201341203Y-61639638D01*
X201341203Y-61639638D02*
X201055488Y-61544400D01*
X201055488Y-61544400D02*
X200865012Y-61353923D01*
X200865012Y-61353923D02*
X200769774Y-61163447D01*
X200769774Y-61163447D02*
X200674536Y-60782495D01*
X200674536Y-60782495D02*
X200674536Y-60496780D01*
X200674536Y-60496780D02*
X200769774Y-60115828D01*
X200769774Y-60115828D02*
X200865012Y-59925352D01*
X200865012Y-59925352D02*
X201055488Y-59734876D01*
X201055488Y-59734876D02*
X201341203Y-59639638D01*
X201341203Y-59639638D02*
X201531679Y-59639638D01*
X201531679Y-59639638D02*
X201817393Y-59734876D01*
X201817393Y-59734876D02*
X201912631Y-59830114D01*
X203150726Y-59639638D02*
X203531679Y-59639638D01*
X203531679Y-59639638D02*
X203722155Y-59734876D01*
X203722155Y-59734876D02*
X203912631Y-59925352D01*
X203912631Y-59925352D02*
X204007869Y-60306304D01*
X204007869Y-60306304D02*
X204007869Y-60972971D01*
X204007869Y-60972971D02*
X203912631Y-61353923D01*
X203912631Y-61353923D02*
X203722155Y-61544400D01*
X203722155Y-61544400D02*
X203531679Y-61639638D01*
X203531679Y-61639638D02*
X203150726Y-61639638D01*
X203150726Y-61639638D02*
X202960250Y-61544400D01*
X202960250Y-61544400D02*
X202769774Y-61353923D01*
X202769774Y-61353923D02*
X202674536Y-60972971D01*
X202674536Y-60972971D02*
X202674536Y-60306304D01*
X202674536Y-60306304D02*
X202769774Y-59925352D01*
X202769774Y-59925352D02*
X202960250Y-59734876D01*
X202960250Y-59734876D02*
X203150726Y-59639638D01*
X204865012Y-59639638D02*
X204865012Y-61258685D01*
X204865012Y-61258685D02*
X204960250Y-61449161D01*
X204960250Y-61449161D02*
X205055488Y-61544400D01*
X205055488Y-61544400D02*
X205245964Y-61639638D01*
X205245964Y-61639638D02*
X205626917Y-61639638D01*
X205626917Y-61639638D02*
X205817393Y-61544400D01*
X205817393Y-61544400D02*
X205912631Y-61449161D01*
X205912631Y-61449161D02*
X206007869Y-61258685D01*
X206007869Y-61258685D02*
X206007869Y-59639638D01*
X206960250Y-61639638D02*
X206960250Y-59639638D01*
X206960250Y-59639638D02*
X207722155Y-59639638D01*
X207722155Y-59639638D02*
X207912631Y-59734876D01*
X207912631Y-59734876D02*
X208007869Y-59830114D01*
X208007869Y-59830114D02*
X208103107Y-60020590D01*
X208103107Y-60020590D02*
X208103107Y-60306304D01*
X208103107Y-60306304D02*
X208007869Y-60496780D01*
X208007869Y-60496780D02*
X207912631Y-60592019D01*
X207912631Y-60592019D02*
X207722155Y-60687257D01*
X207722155Y-60687257D02*
X206960250Y-60687257D01*
X209912631Y-61639638D02*
X208960250Y-61639638D01*
X208960250Y-61639638D02*
X208960250Y-59639638D01*
X210579298Y-60592019D02*
X211245965Y-60592019D01*
X211531679Y-61639638D02*
X210579298Y-61639638D01*
X210579298Y-61639638D02*
X210579298Y-59639638D01*
X210579298Y-59639638D02*
X211531679Y-59639638D01*
X213531679Y-61639638D02*
X212865012Y-60687257D01*
X212388822Y-61639638D02*
X212388822Y-59639638D01*
X212388822Y-59639638D02*
X213150727Y-59639638D01*
X213150727Y-59639638D02*
X213341203Y-59734876D01*
X213341203Y-59734876D02*
X213436441Y-59830114D01*
X213436441Y-59830114D02*
X213531679Y-60020590D01*
X213531679Y-60020590D02*
X213531679Y-60306304D01*
X213531679Y-60306304D02*
X213436441Y-60496780D01*
X213436441Y-60496780D02*
X213341203Y-60592019D01*
X213341203Y-60592019D02*
X213150727Y-60687257D01*
X213150727Y-60687257D02*
X212388822Y-60687257D01*
D12*
X145657857Y-132394000D02*
X146086429Y-132536857D01*
X146086429Y-132536857D02*
X146800714Y-132536857D01*
X146800714Y-132536857D02*
X147086429Y-132394000D01*
X147086429Y-132394000D02*
X147229286Y-132251142D01*
X147229286Y-132251142D02*
X147372143Y-131965428D01*
X147372143Y-131965428D02*
X147372143Y-131679714D01*
X147372143Y-131679714D02*
X147229286Y-131394000D01*
X147229286Y-131394000D02*
X147086429Y-131251142D01*
X147086429Y-131251142D02*
X146800714Y-131108285D01*
X146800714Y-131108285D02*
X146229286Y-130965428D01*
X146229286Y-130965428D02*
X145943571Y-130822571D01*
X145943571Y-130822571D02*
X145800714Y-130679714D01*
X145800714Y-130679714D02*
X145657857Y-130394000D01*
X145657857Y-130394000D02*
X145657857Y-130108285D01*
X145657857Y-130108285D02*
X145800714Y-129822571D01*
X145800714Y-129822571D02*
X145943571Y-129679714D01*
X145943571Y-129679714D02*
X146229286Y-129536857D01*
X146229286Y-129536857D02*
X146943571Y-129536857D01*
X146943571Y-129536857D02*
X147372143Y-129679714D01*
X150086429Y-129536857D02*
X148657857Y-129536857D01*
X148657857Y-129536857D02*
X148515000Y-130965428D01*
X148515000Y-130965428D02*
X148657857Y-130822571D01*
X148657857Y-130822571D02*
X148943572Y-130679714D01*
X148943572Y-130679714D02*
X149657857Y-130679714D01*
X149657857Y-130679714D02*
X149943572Y-130822571D01*
X149943572Y-130822571D02*
X150086429Y-130965428D01*
X150086429Y-130965428D02*
X150229286Y-131251142D01*
X150229286Y-131251142D02*
X150229286Y-131965428D01*
X150229286Y-131965428D02*
X150086429Y-132251142D01*
X150086429Y-132251142D02*
X149943572Y-132394000D01*
X149943572Y-132394000D02*
X149657857Y-132536857D01*
X149657857Y-132536857D02*
X148943572Y-132536857D01*
X148943572Y-132536857D02*
X148657857Y-132394000D01*
X148657857Y-132394000D02*
X148515000Y-132251142D01*
X151657857Y-132536857D02*
X152229286Y-132536857D01*
X152229286Y-132536857D02*
X152515000Y-132394000D01*
X152515000Y-132394000D02*
X152657857Y-132251142D01*
X152657857Y-132251142D02*
X152943572Y-131822571D01*
X152943572Y-131822571D02*
X153086429Y-131251142D01*
X153086429Y-131251142D02*
X153086429Y-130108285D01*
X153086429Y-130108285D02*
X152943572Y-129822571D01*
X152943572Y-129822571D02*
X152800715Y-129679714D01*
X152800715Y-129679714D02*
X152515000Y-129536857D01*
X152515000Y-129536857D02*
X151943572Y-129536857D01*
X151943572Y-129536857D02*
X151657857Y-129679714D01*
X151657857Y-129679714D02*
X151515000Y-129822571D01*
X151515000Y-129822571D02*
X151372143Y-130108285D01*
X151372143Y-130108285D02*
X151372143Y-130822571D01*
X151372143Y-130822571D02*
X151515000Y-131108285D01*
X151515000Y-131108285D02*
X151657857Y-131251142D01*
X151657857Y-131251142D02*
X151943572Y-131394000D01*
X151943572Y-131394000D02*
X152515000Y-131394000D01*
X152515000Y-131394000D02*
X152800715Y-131251142D01*
X152800715Y-131251142D02*
X152943572Y-131108285D01*
X152943572Y-131108285D02*
X153086429Y-130822571D01*
X154372143Y-132536857D02*
X154372143Y-129536857D01*
X154372143Y-129536857D02*
X155372143Y-131679714D01*
X155372143Y-131679714D02*
X156372143Y-129536857D01*
X156372143Y-129536857D02*
X156372143Y-132536857D01*
X157515000Y-129536857D02*
X159515000Y-129536857D01*
X159515000Y-129536857D02*
X157515000Y-132536857D01*
X157515000Y-132536857D02*
X159515000Y-132536857D01*
D11*
X226447330Y-124097452D02*
X226633044Y-124159357D01*
X226633044Y-124159357D02*
X226694949Y-124221261D01*
X226694949Y-124221261D02*
X226756853Y-124345071D01*
X226756853Y-124345071D02*
X226756853Y-124530785D01*
X226756853Y-124530785D02*
X226694949Y-124654595D01*
X226694949Y-124654595D02*
X226633044Y-124716500D01*
X226633044Y-124716500D02*
X226509234Y-124778404D01*
X226509234Y-124778404D02*
X226013996Y-124778404D01*
X226013996Y-124778404D02*
X226013996Y-123478404D01*
X226013996Y-123478404D02*
X226447330Y-123478404D01*
X226447330Y-123478404D02*
X226571139Y-123540309D01*
X226571139Y-123540309D02*
X226633044Y-123602214D01*
X226633044Y-123602214D02*
X226694949Y-123726023D01*
X226694949Y-123726023D02*
X226694949Y-123849833D01*
X226694949Y-123849833D02*
X226633044Y-123973642D01*
X226633044Y-123973642D02*
X226571139Y-124035547D01*
X226571139Y-124035547D02*
X226447330Y-124097452D01*
X226447330Y-124097452D02*
X226013996Y-124097452D01*
X227499711Y-124778404D02*
X227375901Y-124716500D01*
X227375901Y-124716500D02*
X227313996Y-124592690D01*
X227313996Y-124592690D02*
X227313996Y-123478404D01*
X228552091Y-124778404D02*
X228552091Y-124097452D01*
X228552091Y-124097452D02*
X228490186Y-123973642D01*
X228490186Y-123973642D02*
X228366377Y-123911738D01*
X228366377Y-123911738D02*
X228118758Y-123911738D01*
X228118758Y-123911738D02*
X227994948Y-123973642D01*
X228552091Y-124716500D02*
X228428282Y-124778404D01*
X228428282Y-124778404D02*
X228118758Y-124778404D01*
X228118758Y-124778404D02*
X227994948Y-124716500D01*
X227994948Y-124716500D02*
X227933044Y-124592690D01*
X227933044Y-124592690D02*
X227933044Y-124468880D01*
X227933044Y-124468880D02*
X227994948Y-124345071D01*
X227994948Y-124345071D02*
X228118758Y-124283166D01*
X228118758Y-124283166D02*
X228428282Y-124283166D01*
X228428282Y-124283166D02*
X228552091Y-124221261D01*
X229728281Y-124716500D02*
X229604472Y-124778404D01*
X229604472Y-124778404D02*
X229356853Y-124778404D01*
X229356853Y-124778404D02*
X229233043Y-124716500D01*
X229233043Y-124716500D02*
X229171138Y-124654595D01*
X229171138Y-124654595D02*
X229109234Y-124530785D01*
X229109234Y-124530785D02*
X229109234Y-124159357D01*
X229109234Y-124159357D02*
X229171138Y-124035547D01*
X229171138Y-124035547D02*
X229233043Y-123973642D01*
X229233043Y-123973642D02*
X229356853Y-123911738D01*
X229356853Y-123911738D02*
X229604472Y-123911738D01*
X229604472Y-123911738D02*
X229728281Y-123973642D01*
X230285424Y-124778404D02*
X230285424Y-123478404D01*
X230409234Y-124283166D02*
X230780662Y-124778404D01*
X230780662Y-123911738D02*
X230285424Y-124406976D01*
D10*
X196007869Y-95909638D02*
X196007869Y-93909638D01*
X196007869Y-93909638D02*
X196769774Y-93909638D01*
X196769774Y-93909638D02*
X196960250Y-94004876D01*
X196960250Y-94004876D02*
X197055488Y-94100114D01*
X197055488Y-94100114D02*
X197150726Y-94290590D01*
X197150726Y-94290590D02*
X197150726Y-94576304D01*
X197150726Y-94576304D02*
X197055488Y-94766780D01*
X197055488Y-94766780D02*
X196960250Y-94862019D01*
X196960250Y-94862019D02*
X196769774Y-94957257D01*
X196769774Y-94957257D02*
X196007869Y-94957257D01*
X198388821Y-93909638D02*
X198769774Y-93909638D01*
X198769774Y-93909638D02*
X198960250Y-94004876D01*
X198960250Y-94004876D02*
X199150726Y-94195352D01*
X199150726Y-94195352D02*
X199245964Y-94576304D01*
X199245964Y-94576304D02*
X199245964Y-95242971D01*
X199245964Y-95242971D02*
X199150726Y-95623923D01*
X199150726Y-95623923D02*
X198960250Y-95814400D01*
X198960250Y-95814400D02*
X198769774Y-95909638D01*
X198769774Y-95909638D02*
X198388821Y-95909638D01*
X198388821Y-95909638D02*
X198198345Y-95814400D01*
X198198345Y-95814400D02*
X198007869Y-95623923D01*
X198007869Y-95623923D02*
X197912631Y-95242971D01*
X197912631Y-95242971D02*
X197912631Y-94576304D01*
X197912631Y-94576304D02*
X198007869Y-94195352D01*
X198007869Y-94195352D02*
X198198345Y-94004876D01*
X198198345Y-94004876D02*
X198388821Y-93909638D01*
X199912631Y-93909638D02*
X200388821Y-95909638D01*
X200388821Y-95909638D02*
X200769774Y-94481066D01*
X200769774Y-94481066D02*
X201150726Y-95909638D01*
X201150726Y-95909638D02*
X201626917Y-93909638D01*
X202388821Y-94862019D02*
X203055488Y-94862019D01*
X203341202Y-95909638D02*
X202388821Y-95909638D01*
X202388821Y-95909638D02*
X202388821Y-93909638D01*
X202388821Y-93909638D02*
X203341202Y-93909638D01*
X205341202Y-95909638D02*
X204674535Y-94957257D01*
X204198345Y-95909638D02*
X204198345Y-93909638D01*
X204198345Y-93909638D02*
X204960250Y-93909638D01*
X204960250Y-93909638D02*
X205150726Y-94004876D01*
X205150726Y-94004876D02*
X205245964Y-94100114D01*
X205245964Y-94100114D02*
X205341202Y-94290590D01*
X205341202Y-94290590D02*
X205341202Y-94576304D01*
X205341202Y-94576304D02*
X205245964Y-94766780D01*
X205245964Y-94766780D02*
X205150726Y-94862019D01*
X205150726Y-94862019D02*
X204960250Y-94957257D01*
X204960250Y-94957257D02*
X204198345Y-94957257D01*
X207722155Y-93909638D02*
X207722155Y-95528685D01*
X207722155Y-95528685D02*
X207817393Y-95719161D01*
X207817393Y-95719161D02*
X207912631Y-95814400D01*
X207912631Y-95814400D02*
X208103107Y-95909638D01*
X208103107Y-95909638D02*
X208484060Y-95909638D01*
X208484060Y-95909638D02*
X208674536Y-95814400D01*
X208674536Y-95814400D02*
X208769774Y-95719161D01*
X208769774Y-95719161D02*
X208865012Y-95528685D01*
X208865012Y-95528685D02*
X208865012Y-93909638D01*
X209817393Y-95909638D02*
X209817393Y-93909638D01*
X209817393Y-93909638D02*
X210960250Y-95909638D01*
X210960250Y-95909638D02*
X210960250Y-93909638D01*
X211912631Y-95909638D02*
X211912631Y-93909638D01*
X212579298Y-93909638D02*
X213722155Y-93909638D01*
X213150726Y-95909638D02*
X213150726Y-93909638D01*
X125235488Y-51344638D02*
X125616441Y-51344638D01*
X125616441Y-51344638D02*
X125806917Y-51439876D01*
X125806917Y-51439876D02*
X125997393Y-51630352D01*
X125997393Y-51630352D02*
X126092631Y-52011304D01*
X126092631Y-52011304D02*
X126092631Y-52677971D01*
X126092631Y-52677971D02*
X125997393Y-53058923D01*
X125997393Y-53058923D02*
X125806917Y-53249400D01*
X125806917Y-53249400D02*
X125616441Y-53344638D01*
X125616441Y-53344638D02*
X125235488Y-53344638D01*
X125235488Y-53344638D02*
X125045012Y-53249400D01*
X125045012Y-53249400D02*
X124854536Y-53058923D01*
X124854536Y-53058923D02*
X124759298Y-52677971D01*
X124759298Y-52677971D02*
X124759298Y-52011304D01*
X124759298Y-52011304D02*
X124854536Y-51630352D01*
X124854536Y-51630352D02*
X125045012Y-51439876D01*
X125045012Y-51439876D02*
X125235488Y-51344638D01*
X126949774Y-51344638D02*
X126949774Y-52963685D01*
X126949774Y-52963685D02*
X127045012Y-53154161D01*
X127045012Y-53154161D02*
X127140250Y-53249400D01*
X127140250Y-53249400D02*
X127330726Y-53344638D01*
X127330726Y-53344638D02*
X127711679Y-53344638D01*
X127711679Y-53344638D02*
X127902155Y-53249400D01*
X127902155Y-53249400D02*
X127997393Y-53154161D01*
X127997393Y-53154161D02*
X128092631Y-52963685D01*
X128092631Y-52963685D02*
X128092631Y-51344638D01*
X128759298Y-51344638D02*
X129902155Y-51344638D01*
X129330726Y-53344638D02*
X129330726Y-51344638D01*
X203118584Y-78109638D02*
X202451917Y-77157257D01*
X201975727Y-78109638D02*
X201975727Y-76109638D01*
X201975727Y-76109638D02*
X202737632Y-76109638D01*
X202737632Y-76109638D02*
X202928108Y-76204876D01*
X202928108Y-76204876D02*
X203023346Y-76300114D01*
X203023346Y-76300114D02*
X203118584Y-76490590D01*
X203118584Y-76490590D02*
X203118584Y-76776304D01*
X203118584Y-76776304D02*
X203023346Y-76966780D01*
X203023346Y-76966780D02*
X202928108Y-77062019D01*
X202928108Y-77062019D02*
X202737632Y-77157257D01*
X202737632Y-77157257D02*
X201975727Y-77157257D01*
X204642394Y-77062019D02*
X203975727Y-77062019D01*
X203975727Y-78109638D02*
X203975727Y-76109638D01*
X203975727Y-76109638D02*
X204928108Y-76109638D01*
X205690013Y-77347733D02*
X207213823Y-77347733D01*
X208166203Y-78109638D02*
X208166203Y-76109638D01*
X209118584Y-78109638D02*
X209118584Y-76109638D01*
X209118584Y-76109638D02*
X210261441Y-78109638D01*
X210261441Y-78109638D02*
X210261441Y-76109638D01*
X205659059Y-128909638D02*
X205659059Y-126909638D01*
X205659059Y-126909638D02*
X206135249Y-126909638D01*
X206135249Y-126909638D02*
X206420964Y-127004876D01*
X206420964Y-127004876D02*
X206611440Y-127195352D01*
X206611440Y-127195352D02*
X206706678Y-127385828D01*
X206706678Y-127385828D02*
X206801916Y-127766780D01*
X206801916Y-127766780D02*
X206801916Y-128052495D01*
X206801916Y-128052495D02*
X206706678Y-128433447D01*
X206706678Y-128433447D02*
X206611440Y-128623923D01*
X206611440Y-128623923D02*
X206420964Y-128814400D01*
X206420964Y-128814400D02*
X206135249Y-128909638D01*
X206135249Y-128909638D02*
X205659059Y-128909638D01*
X207659059Y-128909638D02*
X207659059Y-126909638D01*
X208516202Y-128814400D02*
X208801916Y-128909638D01*
X208801916Y-128909638D02*
X209278107Y-128909638D01*
X209278107Y-128909638D02*
X209468583Y-128814400D01*
X209468583Y-128814400D02*
X209563821Y-128719161D01*
X209563821Y-128719161D02*
X209659059Y-128528685D01*
X209659059Y-128528685D02*
X209659059Y-128338209D01*
X209659059Y-128338209D02*
X209563821Y-128147733D01*
X209563821Y-128147733D02*
X209468583Y-128052495D01*
X209468583Y-128052495D02*
X209278107Y-127957257D01*
X209278107Y-127957257D02*
X208897154Y-127862019D01*
X208897154Y-127862019D02*
X208706678Y-127766780D01*
X208706678Y-127766780D02*
X208611440Y-127671542D01*
X208611440Y-127671542D02*
X208516202Y-127481066D01*
X208516202Y-127481066D02*
X208516202Y-127290590D01*
X208516202Y-127290590D02*
X208611440Y-127100114D01*
X208611440Y-127100114D02*
X208706678Y-127004876D01*
X208706678Y-127004876D02*
X208897154Y-126909638D01*
X208897154Y-126909638D02*
X209373345Y-126909638D01*
X209373345Y-126909638D02*
X209659059Y-127004876D01*
X210516202Y-128909638D02*
X210516202Y-126909638D01*
X210516202Y-126909638D02*
X211278107Y-126909638D01*
X211278107Y-126909638D02*
X211468583Y-127004876D01*
X211468583Y-127004876D02*
X211563821Y-127100114D01*
X211563821Y-127100114D02*
X211659059Y-127290590D01*
X211659059Y-127290590D02*
X211659059Y-127576304D01*
X211659059Y-127576304D02*
X211563821Y-127766780D01*
X211563821Y-127766780D02*
X211468583Y-127862019D01*
X211468583Y-127862019D02*
X211278107Y-127957257D01*
X211278107Y-127957257D02*
X210516202Y-127957257D01*
X213468583Y-128909638D02*
X212516202Y-128909638D01*
X212516202Y-128909638D02*
X212516202Y-126909638D01*
X214040012Y-128338209D02*
X214992393Y-128338209D01*
X213849536Y-128909638D02*
X214516202Y-126909638D01*
X214516202Y-126909638D02*
X215182869Y-128909638D01*
X216230488Y-127957257D02*
X216230488Y-128909638D01*
X215563822Y-126909638D02*
X216230488Y-127957257D01*
X216230488Y-127957257D02*
X216897155Y-126909638D01*
X69880939Y-84909638D02*
X68928558Y-84909638D01*
X68928558Y-84909638D02*
X68928558Y-82909638D01*
X70547606Y-84909638D02*
X70547606Y-82909638D01*
X70547606Y-82909638D02*
X71309511Y-82909638D01*
X71309511Y-82909638D02*
X71499987Y-83004876D01*
X71499987Y-83004876D02*
X71595225Y-83100114D01*
X71595225Y-83100114D02*
X71690463Y-83290590D01*
X71690463Y-83290590D02*
X71690463Y-83576304D01*
X71690463Y-83576304D02*
X71595225Y-83766780D01*
X71595225Y-83766780D02*
X71499987Y-83862019D01*
X71499987Y-83862019D02*
X71309511Y-83957257D01*
X71309511Y-83957257D02*
X70547606Y-83957257D01*
X73214273Y-83862019D02*
X72547606Y-83862019D01*
X72547606Y-84909638D02*
X72547606Y-82909638D01*
X72547606Y-82909638D02*
X73499987Y-82909638D01*
X146308571Y-44654638D02*
X146784761Y-46654638D01*
X146784761Y-46654638D02*
X147165714Y-45226066D01*
X147165714Y-45226066D02*
X147546666Y-46654638D01*
X147546666Y-46654638D02*
X148022857Y-44654638D01*
X149641904Y-46654638D02*
X149641904Y-45607019D01*
X149641904Y-45607019D02*
X149546666Y-45416542D01*
X149546666Y-45416542D02*
X149356190Y-45321304D01*
X149356190Y-45321304D02*
X148975237Y-45321304D01*
X148975237Y-45321304D02*
X148784761Y-45416542D01*
X149641904Y-46559400D02*
X149451428Y-46654638D01*
X149451428Y-46654638D02*
X148975237Y-46654638D01*
X148975237Y-46654638D02*
X148784761Y-46559400D01*
X148784761Y-46559400D02*
X148689523Y-46368923D01*
X148689523Y-46368923D02*
X148689523Y-46178447D01*
X148689523Y-46178447D02*
X148784761Y-45987971D01*
X148784761Y-45987971D02*
X148975237Y-45892733D01*
X148975237Y-45892733D02*
X149451428Y-45892733D01*
X149451428Y-45892733D02*
X149641904Y-45797495D01*
X150594285Y-46654638D02*
X150594285Y-45321304D01*
X150594285Y-45702257D02*
X150689523Y-45511780D01*
X150689523Y-45511780D02*
X150784761Y-45416542D01*
X150784761Y-45416542D02*
X150975237Y-45321304D01*
X150975237Y-45321304D02*
X151165714Y-45321304D01*
X151832380Y-45321304D02*
X151832380Y-46654638D01*
X151832380Y-45511780D02*
X151927618Y-45416542D01*
X151927618Y-45416542D02*
X152118094Y-45321304D01*
X152118094Y-45321304D02*
X152403809Y-45321304D01*
X152403809Y-45321304D02*
X152594285Y-45416542D01*
X152594285Y-45416542D02*
X152689523Y-45607019D01*
X152689523Y-45607019D02*
X152689523Y-46654638D01*
X153641904Y-46654638D02*
X153641904Y-45321304D01*
X153641904Y-44654638D02*
X153546666Y-44749876D01*
X153546666Y-44749876D02*
X153641904Y-44845114D01*
X153641904Y-44845114D02*
X153737142Y-44749876D01*
X153737142Y-44749876D02*
X153641904Y-44654638D01*
X153641904Y-44654638D02*
X153641904Y-44845114D01*
X154594285Y-45321304D02*
X154594285Y-46654638D01*
X154594285Y-45511780D02*
X154689523Y-45416542D01*
X154689523Y-45416542D02*
X154879999Y-45321304D01*
X154879999Y-45321304D02*
X155165714Y-45321304D01*
X155165714Y-45321304D02*
X155356190Y-45416542D01*
X155356190Y-45416542D02*
X155451428Y-45607019D01*
X155451428Y-45607019D02*
X155451428Y-46654638D01*
X157260952Y-45321304D02*
X157260952Y-46940352D01*
X157260952Y-46940352D02*
X157165714Y-47130828D01*
X157165714Y-47130828D02*
X157070476Y-47226066D01*
X157070476Y-47226066D02*
X156879999Y-47321304D01*
X156879999Y-47321304D02*
X156594285Y-47321304D01*
X156594285Y-47321304D02*
X156403809Y-47226066D01*
X157260952Y-46559400D02*
X157070476Y-46654638D01*
X157070476Y-46654638D02*
X156689523Y-46654638D01*
X156689523Y-46654638D02*
X156499047Y-46559400D01*
X156499047Y-46559400D02*
X156403809Y-46464161D01*
X156403809Y-46464161D02*
X156308571Y-46273685D01*
X156308571Y-46273685D02*
X156308571Y-45702257D01*
X156308571Y-45702257D02*
X156403809Y-45511780D01*
X156403809Y-45511780D02*
X156499047Y-45416542D01*
X156499047Y-45416542D02*
X156689523Y-45321304D01*
X156689523Y-45321304D02*
X157070476Y-45321304D01*
X157070476Y-45321304D02*
X157260952Y-45416542D01*
X150546666Y-47874638D02*
X149594285Y-47874638D01*
X149594285Y-47874638D02*
X149499047Y-48827019D01*
X149499047Y-48827019D02*
X149594285Y-48731780D01*
X149594285Y-48731780D02*
X149784761Y-48636542D01*
X149784761Y-48636542D02*
X150260952Y-48636542D01*
X150260952Y-48636542D02*
X150451428Y-48731780D01*
X150451428Y-48731780D02*
X150546666Y-48827019D01*
X150546666Y-48827019D02*
X150641904Y-49017495D01*
X150641904Y-49017495D02*
X150641904Y-49493685D01*
X150641904Y-49493685D02*
X150546666Y-49684161D01*
X150546666Y-49684161D02*
X150451428Y-49779400D01*
X150451428Y-49779400D02*
X150260952Y-49874638D01*
X150260952Y-49874638D02*
X149784761Y-49874638D01*
X149784761Y-49874638D02*
X149594285Y-49779400D01*
X149594285Y-49779400D02*
X149499047Y-49684161D01*
X151879999Y-47874638D02*
X152070476Y-47874638D01*
X152070476Y-47874638D02*
X152260952Y-47969876D01*
X152260952Y-47969876D02*
X152356190Y-48065114D01*
X152356190Y-48065114D02*
X152451428Y-48255590D01*
X152451428Y-48255590D02*
X152546666Y-48636542D01*
X152546666Y-48636542D02*
X152546666Y-49112733D01*
X152546666Y-49112733D02*
X152451428Y-49493685D01*
X152451428Y-49493685D02*
X152356190Y-49684161D01*
X152356190Y-49684161D02*
X152260952Y-49779400D01*
X152260952Y-49779400D02*
X152070476Y-49874638D01*
X152070476Y-49874638D02*
X151879999Y-49874638D01*
X151879999Y-49874638D02*
X151689523Y-49779400D01*
X151689523Y-49779400D02*
X151594285Y-49684161D01*
X151594285Y-49684161D02*
X151499047Y-49493685D01*
X151499047Y-49493685D02*
X151403809Y-49112733D01*
X151403809Y-49112733D02*
X151403809Y-48636542D01*
X151403809Y-48636542D02*
X151499047Y-48255590D01*
X151499047Y-48255590D02*
X151594285Y-48065114D01*
X151594285Y-48065114D02*
X151689523Y-47969876D01*
X151689523Y-47969876D02*
X151879999Y-47874638D01*
X153118095Y-47874638D02*
X153784761Y-49874638D01*
X153784761Y-49874638D02*
X154451428Y-47874638D01*
X123268571Y-122102733D02*
X124792381Y-122102733D01*
X124030476Y-122864638D02*
X124030476Y-121340828D01*
X126697142Y-120864638D02*
X125744761Y-120864638D01*
X125744761Y-120864638D02*
X125649523Y-121817019D01*
X125649523Y-121817019D02*
X125744761Y-121721780D01*
X125744761Y-121721780D02*
X125935237Y-121626542D01*
X125935237Y-121626542D02*
X126411428Y-121626542D01*
X126411428Y-121626542D02*
X126601904Y-121721780D01*
X126601904Y-121721780D02*
X126697142Y-121817019D01*
X126697142Y-121817019D02*
X126792380Y-122007495D01*
X126792380Y-122007495D02*
X126792380Y-122483685D01*
X126792380Y-122483685D02*
X126697142Y-122674161D01*
X126697142Y-122674161D02*
X126601904Y-122769400D01*
X126601904Y-122769400D02*
X126411428Y-122864638D01*
X126411428Y-122864638D02*
X125935237Y-122864638D01*
X125935237Y-122864638D02*
X125744761Y-122769400D01*
X125744761Y-122769400D02*
X125649523Y-122674161D01*
X127363809Y-120864638D02*
X128030475Y-122864638D01*
X128030475Y-122864638D02*
X128697142Y-120864638D01*
D11*
X226447330Y-126637452D02*
X226633044Y-126699357D01*
X226633044Y-126699357D02*
X226694949Y-126761261D01*
X226694949Y-126761261D02*
X226756853Y-126885071D01*
X226756853Y-126885071D02*
X226756853Y-127070785D01*
X226756853Y-127070785D02*
X226694949Y-127194595D01*
X226694949Y-127194595D02*
X226633044Y-127256500D01*
X226633044Y-127256500D02*
X226509234Y-127318404D01*
X226509234Y-127318404D02*
X226013996Y-127318404D01*
X226013996Y-127318404D02*
X226013996Y-126018404D01*
X226013996Y-126018404D02*
X226447330Y-126018404D01*
X226447330Y-126018404D02*
X226571139Y-126080309D01*
X226571139Y-126080309D02*
X226633044Y-126142214D01*
X226633044Y-126142214D02*
X226694949Y-126266023D01*
X226694949Y-126266023D02*
X226694949Y-126389833D01*
X226694949Y-126389833D02*
X226633044Y-126513642D01*
X226633044Y-126513642D02*
X226571139Y-126575547D01*
X226571139Y-126575547D02*
X226447330Y-126637452D01*
X226447330Y-126637452D02*
X226013996Y-126637452D01*
X227499711Y-127318404D02*
X227375901Y-127256500D01*
X227375901Y-127256500D02*
X227313996Y-127132690D01*
X227313996Y-127132690D02*
X227313996Y-126018404D01*
X228552091Y-126451738D02*
X228552091Y-127318404D01*
X227994948Y-126451738D02*
X227994948Y-127132690D01*
X227994948Y-127132690D02*
X228056853Y-127256500D01*
X228056853Y-127256500D02*
X228180663Y-127318404D01*
X228180663Y-127318404D02*
X228366377Y-127318404D01*
X228366377Y-127318404D02*
X228490186Y-127256500D01*
X228490186Y-127256500D02*
X228552091Y-127194595D01*
X229666376Y-127256500D02*
X229542567Y-127318404D01*
X229542567Y-127318404D02*
X229294948Y-127318404D01*
X229294948Y-127318404D02*
X229171138Y-127256500D01*
X229171138Y-127256500D02*
X229109234Y-127132690D01*
X229109234Y-127132690D02*
X229109234Y-126637452D01*
X229109234Y-126637452D02*
X229171138Y-126513642D01*
X229171138Y-126513642D02*
X229294948Y-126451738D01*
X229294948Y-126451738D02*
X229542567Y-126451738D01*
X229542567Y-126451738D02*
X229666376Y-126513642D01*
X229666376Y-126513642D02*
X229728281Y-126637452D01*
X229728281Y-126637452D02*
X229728281Y-126761261D01*
X229728281Y-126761261D02*
X229109234Y-126885071D01*
D10*
X197468095Y-142422733D02*
X198991905Y-142422733D01*
X180958095Y-142422733D02*
X182481905Y-142422733D01*
X181720000Y-143184638D02*
X181720000Y-141660828D01*
D11*
X226756853Y-132398404D02*
X226323520Y-131779357D01*
X226013996Y-132398404D02*
X226013996Y-131098404D01*
X226013996Y-131098404D02*
X226509234Y-131098404D01*
X226509234Y-131098404D02*
X226633044Y-131160309D01*
X226633044Y-131160309D02*
X226694949Y-131222214D01*
X226694949Y-131222214D02*
X226756853Y-131346023D01*
X226756853Y-131346023D02*
X226756853Y-131531738D01*
X226756853Y-131531738D02*
X226694949Y-131655547D01*
X226694949Y-131655547D02*
X226633044Y-131717452D01*
X226633044Y-131717452D02*
X226509234Y-131779357D01*
X226509234Y-131779357D02*
X226013996Y-131779357D01*
X227809234Y-132336500D02*
X227685425Y-132398404D01*
X227685425Y-132398404D02*
X227437806Y-132398404D01*
X227437806Y-132398404D02*
X227313996Y-132336500D01*
X227313996Y-132336500D02*
X227252092Y-132212690D01*
X227252092Y-132212690D02*
X227252092Y-131717452D01*
X227252092Y-131717452D02*
X227313996Y-131593642D01*
X227313996Y-131593642D02*
X227437806Y-131531738D01*
X227437806Y-131531738D02*
X227685425Y-131531738D01*
X227685425Y-131531738D02*
X227809234Y-131593642D01*
X227809234Y-131593642D02*
X227871139Y-131717452D01*
X227871139Y-131717452D02*
X227871139Y-131841261D01*
X227871139Y-131841261D02*
X227252092Y-131965071D01*
X228985425Y-132398404D02*
X228985425Y-131098404D01*
X228985425Y-132336500D02*
X228861616Y-132398404D01*
X228861616Y-132398404D02*
X228613997Y-132398404D01*
X228613997Y-132398404D02*
X228490187Y-132336500D01*
X228490187Y-132336500D02*
X228428282Y-132274595D01*
X228428282Y-132274595D02*
X228366378Y-132150785D01*
X228366378Y-132150785D02*
X228366378Y-131779357D01*
X228366378Y-131779357D02*
X228428282Y-131655547D01*
X228428282Y-131655547D02*
X228490187Y-131593642D01*
X228490187Y-131593642D02*
X228613997Y-131531738D01*
X228613997Y-131531738D02*
X228861616Y-131531738D01*
X228861616Y-131531738D02*
X228985425Y-131593642D01*
D10*
X150451428Y-52614638D02*
X150070475Y-52614638D01*
X150070475Y-52614638D02*
X149879999Y-52709876D01*
X149879999Y-52709876D02*
X149784761Y-52805114D01*
X149784761Y-52805114D02*
X149594285Y-53090828D01*
X149594285Y-53090828D02*
X149499047Y-53471780D01*
X149499047Y-53471780D02*
X149499047Y-54233685D01*
X149499047Y-54233685D02*
X149594285Y-54424161D01*
X149594285Y-54424161D02*
X149689523Y-54519400D01*
X149689523Y-54519400D02*
X149879999Y-54614638D01*
X149879999Y-54614638D02*
X150260952Y-54614638D01*
X150260952Y-54614638D02*
X150451428Y-54519400D01*
X150451428Y-54519400D02*
X150546666Y-54424161D01*
X150546666Y-54424161D02*
X150641904Y-54233685D01*
X150641904Y-54233685D02*
X150641904Y-53757495D01*
X150641904Y-53757495D02*
X150546666Y-53567019D01*
X150546666Y-53567019D02*
X150451428Y-53471780D01*
X150451428Y-53471780D02*
X150260952Y-53376542D01*
X150260952Y-53376542D02*
X149879999Y-53376542D01*
X149879999Y-53376542D02*
X149689523Y-53471780D01*
X149689523Y-53471780D02*
X149594285Y-53567019D01*
X149594285Y-53567019D02*
X149499047Y-53757495D01*
X151879999Y-52614638D02*
X152070476Y-52614638D01*
X152070476Y-52614638D02*
X152260952Y-52709876D01*
X152260952Y-52709876D02*
X152356190Y-52805114D01*
X152356190Y-52805114D02*
X152451428Y-52995590D01*
X152451428Y-52995590D02*
X152546666Y-53376542D01*
X152546666Y-53376542D02*
X152546666Y-53852733D01*
X152546666Y-53852733D02*
X152451428Y-54233685D01*
X152451428Y-54233685D02*
X152356190Y-54424161D01*
X152356190Y-54424161D02*
X152260952Y-54519400D01*
X152260952Y-54519400D02*
X152070476Y-54614638D01*
X152070476Y-54614638D02*
X151879999Y-54614638D01*
X151879999Y-54614638D02*
X151689523Y-54519400D01*
X151689523Y-54519400D02*
X151594285Y-54424161D01*
X151594285Y-54424161D02*
X151499047Y-54233685D01*
X151499047Y-54233685D02*
X151403809Y-53852733D01*
X151403809Y-53852733D02*
X151403809Y-53376542D01*
X151403809Y-53376542D02*
X151499047Y-52995590D01*
X151499047Y-52995590D02*
X151594285Y-52805114D01*
X151594285Y-52805114D02*
X151689523Y-52709876D01*
X151689523Y-52709876D02*
X151879999Y-52614638D01*
X153308571Y-54043209D02*
X154260952Y-54043209D01*
X153118095Y-54614638D02*
X153784761Y-52614638D01*
X153784761Y-52614638D02*
X154451428Y-54614638D01*
D13*
X106334819Y-50120238D02*
X105858628Y-50453571D01*
X106334819Y-50691666D02*
X105334819Y-50691666D01*
X105334819Y-50691666D02*
X105334819Y-50310714D01*
X105334819Y-50310714D02*
X105382438Y-50215476D01*
X105382438Y-50215476D02*
X105430057Y-50167857D01*
X105430057Y-50167857D02*
X105525295Y-50120238D01*
X105525295Y-50120238D02*
X105668152Y-50120238D01*
X105668152Y-50120238D02*
X105763390Y-50167857D01*
X105763390Y-50167857D02*
X105811009Y-50215476D01*
X105811009Y-50215476D02*
X105858628Y-50310714D01*
X105858628Y-50310714D02*
X105858628Y-50691666D01*
X105334819Y-49834523D02*
X106334819Y-49501190D01*
X106334819Y-49501190D02*
X105334819Y-49167857D01*
X105668152Y-48405952D02*
X106334819Y-48405952D01*
X105287200Y-48644047D02*
X106001485Y-48882142D01*
X106001485Y-48882142D02*
X106001485Y-48263095D01*
X91094819Y-50120238D02*
X90618628Y-50453571D01*
X91094819Y-50691666D02*
X90094819Y-50691666D01*
X90094819Y-50691666D02*
X90094819Y-50310714D01*
X90094819Y-50310714D02*
X90142438Y-50215476D01*
X90142438Y-50215476D02*
X90190057Y-50167857D01*
X90190057Y-50167857D02*
X90285295Y-50120238D01*
X90285295Y-50120238D02*
X90428152Y-50120238D01*
X90428152Y-50120238D02*
X90523390Y-50167857D01*
X90523390Y-50167857D02*
X90571009Y-50215476D01*
X90571009Y-50215476D02*
X90618628Y-50310714D01*
X90618628Y-50310714D02*
X90618628Y-50691666D01*
X90094819Y-49834523D02*
X91094819Y-49501190D01*
X91094819Y-49501190D02*
X90094819Y-49167857D01*
X90094819Y-48929761D02*
X90094819Y-48310714D01*
X90094819Y-48310714D02*
X90475771Y-48644047D01*
X90475771Y-48644047D02*
X90475771Y-48501190D01*
X90475771Y-48501190D02*
X90523390Y-48405952D01*
X90523390Y-48405952D02*
X90571009Y-48358333D01*
X90571009Y-48358333D02*
X90666247Y-48310714D01*
X90666247Y-48310714D02*
X90904342Y-48310714D01*
X90904342Y-48310714D02*
X90999580Y-48358333D01*
X90999580Y-48358333D02*
X91047200Y-48405952D01*
X91047200Y-48405952D02*
X91094819Y-48501190D01*
X91094819Y-48501190D02*
X91094819Y-48786904D01*
X91094819Y-48786904D02*
X91047200Y-48882142D01*
X91047200Y-48882142D02*
X90999580Y-48929761D01*
X152070595Y-124470319D02*
X152070595Y-125279842D01*
X152070595Y-125279842D02*
X152118214Y-125375080D01*
X152118214Y-125375080D02*
X152165833Y-125422700D01*
X152165833Y-125422700D02*
X152261071Y-125470319D01*
X152261071Y-125470319D02*
X152451547Y-125470319D01*
X152451547Y-125470319D02*
X152546785Y-125422700D01*
X152546785Y-125422700D02*
X152594404Y-125375080D01*
X152594404Y-125375080D02*
X152642023Y-125279842D01*
X152642023Y-125279842D02*
X152642023Y-124470319D01*
X153642023Y-125470319D02*
X153070595Y-125470319D01*
X153356309Y-125470319D02*
X153356309Y-124470319D01*
X153356309Y-124470319D02*
X153261071Y-124613176D01*
X153261071Y-124613176D02*
X153165833Y-124708414D01*
X153165833Y-124708414D02*
X153070595Y-124756033D01*
X137624047Y-105050180D02*
X137433571Y-105050180D01*
X137433571Y-105050180D02*
X137338333Y-105002561D01*
X137338333Y-105002561D02*
X137243095Y-104907323D01*
X137243095Y-104907323D02*
X137195476Y-104716847D01*
X137195476Y-104716847D02*
X137195476Y-104383514D01*
X137195476Y-104383514D02*
X137243095Y-104193038D01*
X137243095Y-104193038D02*
X137338333Y-104097800D01*
X137338333Y-104097800D02*
X137433571Y-104050180D01*
X137433571Y-104050180D02*
X137624047Y-104050180D01*
X137624047Y-104050180D02*
X137719285Y-104097800D01*
X137719285Y-104097800D02*
X137814523Y-104193038D01*
X137814523Y-104193038D02*
X137862142Y-104383514D01*
X137862142Y-104383514D02*
X137862142Y-104716847D01*
X137862142Y-104716847D02*
X137814523Y-104907323D01*
X137814523Y-104907323D02*
X137719285Y-105002561D01*
X137719285Y-105002561D02*
X137624047Y-105050180D01*
X136766904Y-105050180D02*
X136766904Y-104240657D01*
X136766904Y-104240657D02*
X136719285Y-104145419D01*
X136719285Y-104145419D02*
X136671666Y-104097800D01*
X136671666Y-104097800D02*
X136576428Y-104050180D01*
X136576428Y-104050180D02*
X136385952Y-104050180D01*
X136385952Y-104050180D02*
X136290714Y-104097800D01*
X136290714Y-104097800D02*
X136243095Y-104145419D01*
X136243095Y-104145419D02*
X136195476Y-104240657D01*
X136195476Y-104240657D02*
X136195476Y-105050180D01*
X135862142Y-105050180D02*
X135290714Y-105050180D01*
X135576428Y-104050180D02*
X135576428Y-105050180D01*
X134957380Y-104431133D02*
X134195476Y-104431133D01*
X137624047Y-122195180D02*
X137433571Y-122195180D01*
X137433571Y-122195180D02*
X137338333Y-122147561D01*
X137338333Y-122147561D02*
X137243095Y-122052323D01*
X137243095Y-122052323D02*
X137195476Y-121861847D01*
X137195476Y-121861847D02*
X137195476Y-121528514D01*
X137195476Y-121528514D02*
X137243095Y-121338038D01*
X137243095Y-121338038D02*
X137338333Y-121242800D01*
X137338333Y-121242800D02*
X137433571Y-121195180D01*
X137433571Y-121195180D02*
X137624047Y-121195180D01*
X137624047Y-121195180D02*
X137719285Y-121242800D01*
X137719285Y-121242800D02*
X137814523Y-121338038D01*
X137814523Y-121338038D02*
X137862142Y-121528514D01*
X137862142Y-121528514D02*
X137862142Y-121861847D01*
X137862142Y-121861847D02*
X137814523Y-122052323D01*
X137814523Y-122052323D02*
X137719285Y-122147561D01*
X137719285Y-122147561D02*
X137624047Y-122195180D01*
X136766904Y-122195180D02*
X136766904Y-121385657D01*
X136766904Y-121385657D02*
X136719285Y-121290419D01*
X136719285Y-121290419D02*
X136671666Y-121242800D01*
X136671666Y-121242800D02*
X136576428Y-121195180D01*
X136576428Y-121195180D02*
X136385952Y-121195180D01*
X136385952Y-121195180D02*
X136290714Y-121242800D01*
X136290714Y-121242800D02*
X136243095Y-121290419D01*
X136243095Y-121290419D02*
X136195476Y-121385657D01*
X136195476Y-121385657D02*
X136195476Y-122195180D01*
X135862142Y-122195180D02*
X135290714Y-122195180D01*
X135576428Y-121195180D02*
X135576428Y-122195180D01*
X134957380Y-121576133D02*
X134195476Y-121576133D01*
X134576428Y-121195180D02*
X134576428Y-121957085D01*
X170167856Y-120560180D02*
X170167856Y-121560180D01*
X169691666Y-120560180D02*
X169691666Y-121560180D01*
X169691666Y-121560180D02*
X169120238Y-120560180D01*
X169120238Y-120560180D02*
X169120238Y-121560180D01*
X168644047Y-120941133D02*
X167882143Y-120941133D01*
X168263095Y-120560180D02*
X168263095Y-121322085D01*
X170167856Y-104050180D02*
X170167856Y-105050180D01*
X169691666Y-104050180D02*
X169691666Y-105050180D01*
X169691666Y-105050180D02*
X169120238Y-104050180D01*
X169120238Y-104050180D02*
X169120238Y-105050180D01*
X168644047Y-104431133D02*
X167882143Y-104431133D01*
X222261905Y-122314819D02*
X222261905Y-121314819D01*
X222261905Y-121314819D02*
X222642857Y-121314819D01*
X222642857Y-121314819D02*
X222738095Y-121362438D01*
X222738095Y-121362438D02*
X222785714Y-121410057D01*
X222785714Y-121410057D02*
X222833333Y-121505295D01*
X222833333Y-121505295D02*
X222833333Y-121648152D01*
X222833333Y-121648152D02*
X222785714Y-121743390D01*
X222785714Y-121743390D02*
X222738095Y-121791009D01*
X222738095Y-121791009D02*
X222642857Y-121838628D01*
X222642857Y-121838628D02*
X222261905Y-121838628D01*
X223166667Y-121314819D02*
X223833333Y-121314819D01*
X223833333Y-121314819D02*
X223404762Y-122314819D01*
X196474819Y-49360238D02*
X195998628Y-49693571D01*
X196474819Y-49931666D02*
X195474819Y-49931666D01*
X195474819Y-49931666D02*
X195474819Y-49550714D01*
X195474819Y-49550714D02*
X195522438Y-49455476D01*
X195522438Y-49455476D02*
X195570057Y-49407857D01*
X195570057Y-49407857D02*
X195665295Y-49360238D01*
X195665295Y-49360238D02*
X195808152Y-49360238D01*
X195808152Y-49360238D02*
X195903390Y-49407857D01*
X195903390Y-49407857D02*
X195951009Y-49455476D01*
X195951009Y-49455476D02*
X195998628Y-49550714D01*
X195998628Y-49550714D02*
X195998628Y-49931666D01*
X195474819Y-49074523D02*
X196474819Y-48741190D01*
X196474819Y-48741190D02*
X195474819Y-48407857D01*
X195570057Y-48122142D02*
X195522438Y-48074523D01*
X195522438Y-48074523D02*
X195474819Y-47979285D01*
X195474819Y-47979285D02*
X195474819Y-47741190D01*
X195474819Y-47741190D02*
X195522438Y-47645952D01*
X195522438Y-47645952D02*
X195570057Y-47598333D01*
X195570057Y-47598333D02*
X195665295Y-47550714D01*
X195665295Y-47550714D02*
X195760533Y-47550714D01*
X195760533Y-47550714D02*
X195903390Y-47598333D01*
X195903390Y-47598333D02*
X196474819Y-48169761D01*
X196474819Y-48169761D02*
X196474819Y-47550714D01*
X220991905Y-69824819D02*
X220991905Y-68824819D01*
X220991905Y-68824819D02*
X221372857Y-68824819D01*
X221372857Y-68824819D02*
X221468095Y-68872438D01*
X221468095Y-68872438D02*
X221515714Y-68920057D01*
X221515714Y-68920057D02*
X221563333Y-69015295D01*
X221563333Y-69015295D02*
X221563333Y-69158152D01*
X221563333Y-69158152D02*
X221515714Y-69253390D01*
X221515714Y-69253390D02*
X221468095Y-69301009D01*
X221468095Y-69301009D02*
X221372857Y-69348628D01*
X221372857Y-69348628D02*
X220991905Y-69348628D01*
X221944286Y-68920057D02*
X221991905Y-68872438D01*
X221991905Y-68872438D02*
X222087143Y-68824819D01*
X222087143Y-68824819D02*
X222325238Y-68824819D01*
X222325238Y-68824819D02*
X222420476Y-68872438D01*
X222420476Y-68872438D02*
X222468095Y-68920057D01*
X222468095Y-68920057D02*
X222515714Y-69015295D01*
X222515714Y-69015295D02*
X222515714Y-69110533D01*
X222515714Y-69110533D02*
X222468095Y-69253390D01*
X222468095Y-69253390D02*
X221896667Y-69824819D01*
X221896667Y-69824819D02*
X222515714Y-69824819D01*
X60531905Y-74544819D02*
X60531905Y-73544819D01*
X60531905Y-73544819D02*
X60912857Y-73544819D01*
X60912857Y-73544819D02*
X61008095Y-73592438D01*
X61008095Y-73592438D02*
X61055714Y-73640057D01*
X61055714Y-73640057D02*
X61103333Y-73735295D01*
X61103333Y-73735295D02*
X61103333Y-73878152D01*
X61103333Y-73878152D02*
X61055714Y-73973390D01*
X61055714Y-73973390D02*
X61008095Y-74021009D01*
X61008095Y-74021009D02*
X60912857Y-74068628D01*
X60912857Y-74068628D02*
X60531905Y-74068628D01*
X61436667Y-73544819D02*
X62055714Y-73544819D01*
X62055714Y-73544819D02*
X61722381Y-73925771D01*
X61722381Y-73925771D02*
X61865238Y-73925771D01*
X61865238Y-73925771D02*
X61960476Y-73973390D01*
X61960476Y-73973390D02*
X62008095Y-74021009D01*
X62008095Y-74021009D02*
X62055714Y-74116247D01*
X62055714Y-74116247D02*
X62055714Y-74354342D01*
X62055714Y-74354342D02*
X62008095Y-74449580D01*
X62008095Y-74449580D02*
X61960476Y-74497200D01*
X61960476Y-74497200D02*
X61865238Y-74544819D01*
X61865238Y-74544819D02*
X61579524Y-74544819D01*
X61579524Y-74544819D02*
X61484286Y-74497200D01*
X61484286Y-74497200D02*
X61436667Y-74449580D01*
X181082142Y-135979580D02*
X181034523Y-136027200D01*
X181034523Y-136027200D02*
X180891666Y-136074819D01*
X180891666Y-136074819D02*
X180796428Y-136074819D01*
X180796428Y-136074819D02*
X180653571Y-136027200D01*
X180653571Y-136027200D02*
X180558333Y-135931961D01*
X180558333Y-135931961D02*
X180510714Y-135836723D01*
X180510714Y-135836723D02*
X180463095Y-135646247D01*
X180463095Y-135646247D02*
X180463095Y-135503390D01*
X180463095Y-135503390D02*
X180510714Y-135312914D01*
X180510714Y-135312914D02*
X180558333Y-135217676D01*
X180558333Y-135217676D02*
X180653571Y-135122438D01*
X180653571Y-135122438D02*
X180796428Y-135074819D01*
X180796428Y-135074819D02*
X180891666Y-135074819D01*
X180891666Y-135074819D02*
X181034523Y-135122438D01*
X181034523Y-135122438D02*
X181082142Y-135170057D01*
X181939285Y-135408152D02*
X181939285Y-136074819D01*
X181701190Y-135027200D02*
X181463095Y-135741485D01*
X181463095Y-135741485D02*
X182082142Y-135741485D01*
X182891666Y-135408152D02*
X182891666Y-136074819D01*
X182653571Y-135027200D02*
X182415476Y-135741485D01*
X182415476Y-135741485D02*
X183034523Y-135741485D01*
X174285476Y-55329819D02*
X174285476Y-56044104D01*
X174285476Y-56044104D02*
X174237857Y-56186961D01*
X174237857Y-56186961D02*
X174142619Y-56282200D01*
X174142619Y-56282200D02*
X173999762Y-56329819D01*
X173999762Y-56329819D02*
X173904524Y-56329819D01*
X175285476Y-56329819D02*
X174714048Y-56329819D01*
X174999762Y-56329819D02*
X174999762Y-55329819D01*
X174999762Y-55329819D02*
X174904524Y-55472676D01*
X174904524Y-55472676D02*
X174809286Y-55567914D01*
X174809286Y-55567914D02*
X174714048Y-55615533D01*
X175904524Y-55329819D02*
X175999762Y-55329819D01*
X175999762Y-55329819D02*
X176095000Y-55377438D01*
X176095000Y-55377438D02*
X176142619Y-55425057D01*
X176142619Y-55425057D02*
X176190238Y-55520295D01*
X176190238Y-55520295D02*
X176237857Y-55710771D01*
X176237857Y-55710771D02*
X176237857Y-55948866D01*
X176237857Y-55948866D02*
X176190238Y-56139342D01*
X176190238Y-56139342D02*
X176142619Y-56234580D01*
X176142619Y-56234580D02*
X176095000Y-56282200D01*
X176095000Y-56282200D02*
X175999762Y-56329819D01*
X175999762Y-56329819D02*
X175904524Y-56329819D01*
X175904524Y-56329819D02*
X175809286Y-56282200D01*
X175809286Y-56282200D02*
X175761667Y-56234580D01*
X175761667Y-56234580D02*
X175714048Y-56139342D01*
X175714048Y-56139342D02*
X175666429Y-55948866D01*
X175666429Y-55948866D02*
X175666429Y-55710771D01*
X175666429Y-55710771D02*
X175714048Y-55520295D01*
X175714048Y-55520295D02*
X175761667Y-55425057D01*
X175761667Y-55425057D02*
X175809286Y-55377438D01*
X175809286Y-55377438D02*
X175904524Y-55329819D01*
X197322142Y-135979580D02*
X197274523Y-136027200D01*
X197274523Y-136027200D02*
X197131666Y-136074819D01*
X197131666Y-136074819D02*
X197036428Y-136074819D01*
X197036428Y-136074819D02*
X196893571Y-136027200D01*
X196893571Y-136027200D02*
X196798333Y-135931961D01*
X196798333Y-135931961D02*
X196750714Y-135836723D01*
X196750714Y-135836723D02*
X196703095Y-135646247D01*
X196703095Y-135646247D02*
X196703095Y-135503390D01*
X196703095Y-135503390D02*
X196750714Y-135312914D01*
X196750714Y-135312914D02*
X196798333Y-135217676D01*
X196798333Y-135217676D02*
X196893571Y-135122438D01*
X196893571Y-135122438D02*
X197036428Y-135074819D01*
X197036428Y-135074819D02*
X197131666Y-135074819D01*
X197131666Y-135074819D02*
X197274523Y-135122438D01*
X197274523Y-135122438D02*
X197322142Y-135170057D01*
X198274523Y-136074819D02*
X197703095Y-136074819D01*
X197988809Y-136074819D02*
X197988809Y-135074819D01*
X197988809Y-135074819D02*
X197893571Y-135217676D01*
X197893571Y-135217676D02*
X197798333Y-135312914D01*
X197798333Y-135312914D02*
X197703095Y-135360533D01*
X198655476Y-135170057D02*
X198703095Y-135122438D01*
X198703095Y-135122438D02*
X198798333Y-135074819D01*
X198798333Y-135074819D02*
X199036428Y-135074819D01*
X199036428Y-135074819D02*
X199131666Y-135122438D01*
X199131666Y-135122438D02*
X199179285Y-135170057D01*
X199179285Y-135170057D02*
X199226904Y-135265295D01*
X199226904Y-135265295D02*
X199226904Y-135360533D01*
X199226904Y-135360533D02*
X199179285Y-135503390D01*
X199179285Y-135503390D02*
X198607857Y-136074819D01*
X198607857Y-136074819D02*
X199226904Y-136074819D01*
X122598642Y-119152129D02*
X122551023Y-119199749D01*
X122551023Y-119199749D02*
X122408166Y-119247368D01*
X122408166Y-119247368D02*
X122312928Y-119247368D01*
X122312928Y-119247368D02*
X122170071Y-119199749D01*
X122170071Y-119199749D02*
X122074833Y-119104510D01*
X122074833Y-119104510D02*
X122027214Y-119009272D01*
X122027214Y-119009272D02*
X121979595Y-118818796D01*
X121979595Y-118818796D02*
X121979595Y-118675939D01*
X121979595Y-118675939D02*
X122027214Y-118485463D01*
X122027214Y-118485463D02*
X122074833Y-118390225D01*
X122074833Y-118390225D02*
X122170071Y-118294987D01*
X122170071Y-118294987D02*
X122312928Y-118247368D01*
X122312928Y-118247368D02*
X122408166Y-118247368D01*
X122408166Y-118247368D02*
X122551023Y-118294987D01*
X122551023Y-118294987D02*
X122598642Y-118342606D01*
X123455785Y-118580701D02*
X123455785Y-119247368D01*
X123217690Y-118199749D02*
X122979595Y-118914034D01*
X122979595Y-118914034D02*
X123598642Y-118914034D01*
X124408166Y-118247368D02*
X124217690Y-118247368D01*
X124217690Y-118247368D02*
X124122452Y-118294987D01*
X124122452Y-118294987D02*
X124074833Y-118342606D01*
X124074833Y-118342606D02*
X123979595Y-118485463D01*
X123979595Y-118485463D02*
X123931976Y-118675939D01*
X123931976Y-118675939D02*
X123931976Y-119056891D01*
X123931976Y-119056891D02*
X123979595Y-119152129D01*
X123979595Y-119152129D02*
X124027214Y-119199749D01*
X124027214Y-119199749D02*
X124122452Y-119247368D01*
X124122452Y-119247368D02*
X124312928Y-119247368D01*
X124312928Y-119247368D02*
X124408166Y-119199749D01*
X124408166Y-119199749D02*
X124455785Y-119152129D01*
X124455785Y-119152129D02*
X124503404Y-119056891D01*
X124503404Y-119056891D02*
X124503404Y-118818796D01*
X124503404Y-118818796D02*
X124455785Y-118723558D01*
X124455785Y-118723558D02*
X124408166Y-118675939D01*
X124408166Y-118675939D02*
X124312928Y-118628320D01*
X124312928Y-118628320D02*
X124122452Y-118628320D01*
X124122452Y-118628320D02*
X124027214Y-118675939D01*
X124027214Y-118675939D02*
X123979595Y-118723558D01*
X123979595Y-118723558D02*
X123931976Y-118818796D01*
X60531905Y-52544819D02*
X60531905Y-51544819D01*
X60531905Y-51544819D02*
X60912857Y-51544819D01*
X60912857Y-51544819D02*
X61008095Y-51592438D01*
X61008095Y-51592438D02*
X61055714Y-51640057D01*
X61055714Y-51640057D02*
X61103333Y-51735295D01*
X61103333Y-51735295D02*
X61103333Y-51878152D01*
X61103333Y-51878152D02*
X61055714Y-51973390D01*
X61055714Y-51973390D02*
X61008095Y-52021009D01*
X61008095Y-52021009D02*
X60912857Y-52068628D01*
X60912857Y-52068628D02*
X60531905Y-52068628D01*
X61960476Y-51878152D02*
X61960476Y-52544819D01*
X61722381Y-51497200D02*
X61484286Y-52211485D01*
X61484286Y-52211485D02*
X62103333Y-52211485D01*
X60531905Y-118544819D02*
X60531905Y-117544819D01*
X60531905Y-117544819D02*
X60912857Y-117544819D01*
X60912857Y-117544819D02*
X61008095Y-117592438D01*
X61008095Y-117592438D02*
X61055714Y-117640057D01*
X61055714Y-117640057D02*
X61103333Y-117735295D01*
X61103333Y-117735295D02*
X61103333Y-117878152D01*
X61103333Y-117878152D02*
X61055714Y-117973390D01*
X61055714Y-117973390D02*
X61008095Y-118021009D01*
X61008095Y-118021009D02*
X60912857Y-118068628D01*
X60912857Y-118068628D02*
X60531905Y-118068628D01*
X62008095Y-117544819D02*
X61531905Y-117544819D01*
X61531905Y-117544819D02*
X61484286Y-118021009D01*
X61484286Y-118021009D02*
X61531905Y-117973390D01*
X61531905Y-117973390D02*
X61627143Y-117925771D01*
X61627143Y-117925771D02*
X61865238Y-117925771D01*
X61865238Y-117925771D02*
X61960476Y-117973390D01*
X61960476Y-117973390D02*
X62008095Y-118021009D01*
X62008095Y-118021009D02*
X62055714Y-118116247D01*
X62055714Y-118116247D02*
X62055714Y-118354342D01*
X62055714Y-118354342D02*
X62008095Y-118449580D01*
X62008095Y-118449580D02*
X61960476Y-118497200D01*
X61960476Y-118497200D02*
X61865238Y-118544819D01*
X61865238Y-118544819D02*
X61627143Y-118544819D01*
X61627143Y-118544819D02*
X61531905Y-118497200D01*
X61531905Y-118497200D02*
X61484286Y-118449580D01*
X101010714Y-91974104D02*
X101486904Y-91974104D01*
X100915476Y-92259819D02*
X101248809Y-91259819D01*
X101248809Y-91259819D02*
X101582142Y-92259819D01*
X102439285Y-92259819D02*
X101867857Y-92259819D01*
X102153571Y-92259819D02*
X102153571Y-91259819D01*
X102153571Y-91259819D02*
X102058333Y-91402676D01*
X102058333Y-91402676D02*
X101963095Y-91497914D01*
X101963095Y-91497914D02*
X101867857Y-91545533D01*
X100463095Y-131899819D02*
X100463095Y-132709342D01*
X100463095Y-132709342D02*
X100510714Y-132804580D01*
X100510714Y-132804580D02*
X100558333Y-132852200D01*
X100558333Y-132852200D02*
X100653571Y-132899819D01*
X100653571Y-132899819D02*
X100844047Y-132899819D01*
X100844047Y-132899819D02*
X100939285Y-132852200D01*
X100939285Y-132852200D02*
X100986904Y-132804580D01*
X100986904Y-132804580D02*
X101034523Y-132709342D01*
X101034523Y-132709342D02*
X101034523Y-131899819D01*
X101463095Y-132852200D02*
X101605952Y-132899819D01*
X101605952Y-132899819D02*
X101844047Y-132899819D01*
X101844047Y-132899819D02*
X101939285Y-132852200D01*
X101939285Y-132852200D02*
X101986904Y-132804580D01*
X101986904Y-132804580D02*
X102034523Y-132709342D01*
X102034523Y-132709342D02*
X102034523Y-132614104D01*
X102034523Y-132614104D02*
X101986904Y-132518866D01*
X101986904Y-132518866D02*
X101939285Y-132471247D01*
X101939285Y-132471247D02*
X101844047Y-132423628D01*
X101844047Y-132423628D02*
X101653571Y-132376009D01*
X101653571Y-132376009D02*
X101558333Y-132328390D01*
X101558333Y-132328390D02*
X101510714Y-132280771D01*
X101510714Y-132280771D02*
X101463095Y-132185533D01*
X101463095Y-132185533D02*
X101463095Y-132090295D01*
X101463095Y-132090295D02*
X101510714Y-131995057D01*
X101510714Y-131995057D02*
X101558333Y-131947438D01*
X101558333Y-131947438D02*
X101653571Y-131899819D01*
X101653571Y-131899819D02*
X101891666Y-131899819D01*
X101891666Y-131899819D02*
X102034523Y-131947438D01*
X102796428Y-132376009D02*
X102939285Y-132423628D01*
X102939285Y-132423628D02*
X102986904Y-132471247D01*
X102986904Y-132471247D02*
X103034523Y-132566485D01*
X103034523Y-132566485D02*
X103034523Y-132709342D01*
X103034523Y-132709342D02*
X102986904Y-132804580D01*
X102986904Y-132804580D02*
X102939285Y-132852200D01*
X102939285Y-132852200D02*
X102844047Y-132899819D01*
X102844047Y-132899819D02*
X102463095Y-132899819D01*
X102463095Y-132899819D02*
X102463095Y-131899819D01*
X102463095Y-131899819D02*
X102796428Y-131899819D01*
X102796428Y-131899819D02*
X102891666Y-131947438D01*
X102891666Y-131947438D02*
X102939285Y-131995057D01*
X102939285Y-131995057D02*
X102986904Y-132090295D01*
X102986904Y-132090295D02*
X102986904Y-132185533D01*
X102986904Y-132185533D02*
X102939285Y-132280771D01*
X102939285Y-132280771D02*
X102891666Y-132328390D01*
X102891666Y-132328390D02*
X102796428Y-132376009D01*
X102796428Y-132376009D02*
X102463095Y-132376009D01*
X220976666Y-71374819D02*
X220976666Y-72089104D01*
X220976666Y-72089104D02*
X220929047Y-72231961D01*
X220929047Y-72231961D02*
X220833809Y-72327200D01*
X220833809Y-72327200D02*
X220690952Y-72374819D01*
X220690952Y-72374819D02*
X220595714Y-72374819D01*
X221929047Y-71374819D02*
X221452857Y-71374819D01*
X221452857Y-71374819D02*
X221405238Y-71851009D01*
X221405238Y-71851009D02*
X221452857Y-71803390D01*
X221452857Y-71803390D02*
X221548095Y-71755771D01*
X221548095Y-71755771D02*
X221786190Y-71755771D01*
X221786190Y-71755771D02*
X221881428Y-71803390D01*
X221881428Y-71803390D02*
X221929047Y-71851009D01*
X221929047Y-71851009D02*
X221976666Y-71946247D01*
X221976666Y-71946247D02*
X221976666Y-72184342D01*
X221976666Y-72184342D02*
X221929047Y-72279580D01*
X221929047Y-72279580D02*
X221881428Y-72327200D01*
X221881428Y-72327200D02*
X221786190Y-72374819D01*
X221786190Y-72374819D02*
X221548095Y-72374819D01*
X221548095Y-72374819D02*
X221452857Y-72327200D01*
X221452857Y-72327200D02*
X221405238Y-72279580D01*
X127930476Y-55329819D02*
X127930476Y-56044104D01*
X127930476Y-56044104D02*
X127882857Y-56186961D01*
X127882857Y-56186961D02*
X127787619Y-56282200D01*
X127787619Y-56282200D02*
X127644762Y-56329819D01*
X127644762Y-56329819D02*
X127549524Y-56329819D01*
X128930476Y-56329819D02*
X128359048Y-56329819D01*
X128644762Y-56329819D02*
X128644762Y-55329819D01*
X128644762Y-55329819D02*
X128549524Y-55472676D01*
X128549524Y-55472676D02*
X128454286Y-55567914D01*
X128454286Y-55567914D02*
X128359048Y-55615533D01*
X129882857Y-56329819D02*
X129311429Y-56329819D01*
X129597143Y-56329819D02*
X129597143Y-55329819D01*
X129597143Y-55329819D02*
X129501905Y-55472676D01*
X129501905Y-55472676D02*
X129406667Y-55567914D01*
X129406667Y-55567914D02*
X129311429Y-55615533D01*
X181054742Y-64934580D02*
X181007123Y-64982200D01*
X181007123Y-64982200D02*
X180864266Y-65029819D01*
X180864266Y-65029819D02*
X180769028Y-65029819D01*
X180769028Y-65029819D02*
X180626171Y-64982200D01*
X180626171Y-64982200D02*
X180530933Y-64886961D01*
X180530933Y-64886961D02*
X180483314Y-64791723D01*
X180483314Y-64791723D02*
X180435695Y-64601247D01*
X180435695Y-64601247D02*
X180435695Y-64458390D01*
X180435695Y-64458390D02*
X180483314Y-64267914D01*
X180483314Y-64267914D02*
X180530933Y-64172676D01*
X180530933Y-64172676D02*
X180626171Y-64077438D01*
X180626171Y-64077438D02*
X180769028Y-64029819D01*
X180769028Y-64029819D02*
X180864266Y-64029819D01*
X180864266Y-64029819D02*
X181007123Y-64077438D01*
X181007123Y-64077438D02*
X181054742Y-64125057D01*
X181388076Y-64029819D02*
X182007123Y-64029819D01*
X182007123Y-64029819D02*
X181673790Y-64410771D01*
X181673790Y-64410771D02*
X181816647Y-64410771D01*
X181816647Y-64410771D02*
X181911885Y-64458390D01*
X181911885Y-64458390D02*
X181959504Y-64506009D01*
X181959504Y-64506009D02*
X182007123Y-64601247D01*
X182007123Y-64601247D02*
X182007123Y-64839342D01*
X182007123Y-64839342D02*
X181959504Y-64934580D01*
X181959504Y-64934580D02*
X181911885Y-64982200D01*
X181911885Y-64982200D02*
X181816647Y-65029819D01*
X181816647Y-65029819D02*
X181530933Y-65029819D01*
X181530933Y-65029819D02*
X181435695Y-64982200D01*
X181435695Y-64982200D02*
X181388076Y-64934580D01*
X182911885Y-64029819D02*
X182435695Y-64029819D01*
X182435695Y-64029819D02*
X182388076Y-64506009D01*
X182388076Y-64506009D02*
X182435695Y-64458390D01*
X182435695Y-64458390D02*
X182530933Y-64410771D01*
X182530933Y-64410771D02*
X182769028Y-64410771D01*
X182769028Y-64410771D02*
X182864266Y-64458390D01*
X182864266Y-64458390D02*
X182911885Y-64506009D01*
X182911885Y-64506009D02*
X182959504Y-64601247D01*
X182959504Y-64601247D02*
X182959504Y-64839342D01*
X182959504Y-64839342D02*
X182911885Y-64934580D01*
X182911885Y-64934580D02*
X182864266Y-64982200D01*
X182864266Y-64982200D02*
X182769028Y-65029819D01*
X182769028Y-65029819D02*
X182530933Y-65029819D01*
X182530933Y-65029819D02*
X182435695Y-64982200D01*
X182435695Y-64982200D02*
X182388076Y-64934580D01*
X211714819Y-49360238D02*
X211238628Y-49693571D01*
X211714819Y-49931666D02*
X210714819Y-49931666D01*
X210714819Y-49931666D02*
X210714819Y-49550714D01*
X210714819Y-49550714D02*
X210762438Y-49455476D01*
X210762438Y-49455476D02*
X210810057Y-49407857D01*
X210810057Y-49407857D02*
X210905295Y-49360238D01*
X210905295Y-49360238D02*
X211048152Y-49360238D01*
X211048152Y-49360238D02*
X211143390Y-49407857D01*
X211143390Y-49407857D02*
X211191009Y-49455476D01*
X211191009Y-49455476D02*
X211238628Y-49550714D01*
X211238628Y-49550714D02*
X211238628Y-49931666D01*
X210714819Y-49074523D02*
X211714819Y-48741190D01*
X211714819Y-48741190D02*
X210714819Y-48407857D01*
X211714819Y-47550714D02*
X211714819Y-48122142D01*
X211714819Y-47836428D02*
X210714819Y-47836428D01*
X210714819Y-47836428D02*
X210857676Y-47931666D01*
X210857676Y-47931666D02*
X210952914Y-48026904D01*
X210952914Y-48026904D02*
X211000533Y-48122142D01*
X221928571Y-142931009D02*
X221595238Y-142931009D01*
X221595238Y-143454819D02*
X221595238Y-142454819D01*
X221595238Y-142454819D02*
X222071428Y-142454819D01*
X222452381Y-143454819D02*
X222452381Y-142454819D01*
X222928571Y-143454819D02*
X222928571Y-142454819D01*
X222928571Y-142454819D02*
X223166666Y-142454819D01*
X223166666Y-142454819D02*
X223309523Y-142502438D01*
X223309523Y-142502438D02*
X223404761Y-142597676D01*
X223404761Y-142597676D02*
X223452380Y-142692914D01*
X223452380Y-142692914D02*
X223499999Y-142883390D01*
X223499999Y-142883390D02*
X223499999Y-143026247D01*
X223499999Y-143026247D02*
X223452380Y-143216723D01*
X223452380Y-143216723D02*
X223404761Y-143311961D01*
X223404761Y-143311961D02*
X223309523Y-143407200D01*
X223309523Y-143407200D02*
X223166666Y-143454819D01*
X223166666Y-143454819D02*
X222928571Y-143454819D01*
X223880952Y-142550057D02*
X223928571Y-142502438D01*
X223928571Y-142502438D02*
X224023809Y-142454819D01*
X224023809Y-142454819D02*
X224261904Y-142454819D01*
X224261904Y-142454819D02*
X224357142Y-142502438D01*
X224357142Y-142502438D02*
X224404761Y-142550057D01*
X224404761Y-142550057D02*
X224452380Y-142645295D01*
X224452380Y-142645295D02*
X224452380Y-142740533D01*
X224452380Y-142740533D02*
X224404761Y-142883390D01*
X224404761Y-142883390D02*
X223833333Y-143454819D01*
X223833333Y-143454819D02*
X224452380Y-143454819D01*
X86503333Y-62894819D02*
X86170000Y-62418628D01*
X85931905Y-62894819D02*
X85931905Y-61894819D01*
X85931905Y-61894819D02*
X86312857Y-61894819D01*
X86312857Y-61894819D02*
X86408095Y-61942438D01*
X86408095Y-61942438D02*
X86455714Y-61990057D01*
X86455714Y-61990057D02*
X86503333Y-62085295D01*
X86503333Y-62085295D02*
X86503333Y-62228152D01*
X86503333Y-62228152D02*
X86455714Y-62323390D01*
X86455714Y-62323390D02*
X86408095Y-62371009D01*
X86408095Y-62371009D02*
X86312857Y-62418628D01*
X86312857Y-62418628D02*
X85931905Y-62418628D01*
X87360476Y-61894819D02*
X87170000Y-61894819D01*
X87170000Y-61894819D02*
X87074762Y-61942438D01*
X87074762Y-61942438D02*
X87027143Y-61990057D01*
X87027143Y-61990057D02*
X86931905Y-62132914D01*
X86931905Y-62132914D02*
X86884286Y-62323390D01*
X86884286Y-62323390D02*
X86884286Y-62704342D01*
X86884286Y-62704342D02*
X86931905Y-62799580D01*
X86931905Y-62799580D02*
X86979524Y-62847200D01*
X86979524Y-62847200D02*
X87074762Y-62894819D01*
X87074762Y-62894819D02*
X87265238Y-62894819D01*
X87265238Y-62894819D02*
X87360476Y-62847200D01*
X87360476Y-62847200D02*
X87408095Y-62799580D01*
X87408095Y-62799580D02*
X87455714Y-62704342D01*
X87455714Y-62704342D02*
X87455714Y-62466247D01*
X87455714Y-62466247D02*
X87408095Y-62371009D01*
X87408095Y-62371009D02*
X87360476Y-62323390D01*
X87360476Y-62323390D02*
X87265238Y-62275771D01*
X87265238Y-62275771D02*
X87074762Y-62275771D01*
X87074762Y-62275771D02*
X86979524Y-62323390D01*
X86979524Y-62323390D02*
X86931905Y-62371009D01*
X86931905Y-62371009D02*
X86884286Y-62466247D01*
X58928571Y-42931009D02*
X58595238Y-42931009D01*
X58595238Y-43454819D02*
X58595238Y-42454819D01*
X58595238Y-42454819D02*
X59071428Y-42454819D01*
X59452381Y-43454819D02*
X59452381Y-42454819D01*
X59928571Y-43454819D02*
X59928571Y-42454819D01*
X59928571Y-42454819D02*
X60166666Y-42454819D01*
X60166666Y-42454819D02*
X60309523Y-42502438D01*
X60309523Y-42502438D02*
X60404761Y-42597676D01*
X60404761Y-42597676D02*
X60452380Y-42692914D01*
X60452380Y-42692914D02*
X60499999Y-42883390D01*
X60499999Y-42883390D02*
X60499999Y-43026247D01*
X60499999Y-43026247D02*
X60452380Y-43216723D01*
X60452380Y-43216723D02*
X60404761Y-43311961D01*
X60404761Y-43311961D02*
X60309523Y-43407200D01*
X60309523Y-43407200D02*
X60166666Y-43454819D01*
X60166666Y-43454819D02*
X59928571Y-43454819D01*
X61452380Y-43454819D02*
X60880952Y-43454819D01*
X61166666Y-43454819D02*
X61166666Y-42454819D01*
X61166666Y-42454819D02*
X61071428Y-42597676D01*
X61071428Y-42597676D02*
X60976190Y-42692914D01*
X60976190Y-42692914D02*
X60880952Y-42740533D01*
X60531905Y-96544819D02*
X60531905Y-95544819D01*
X60531905Y-95544819D02*
X60912857Y-95544819D01*
X60912857Y-95544819D02*
X61008095Y-95592438D01*
X61008095Y-95592438D02*
X61055714Y-95640057D01*
X61055714Y-95640057D02*
X61103333Y-95735295D01*
X61103333Y-95735295D02*
X61103333Y-95878152D01*
X61103333Y-95878152D02*
X61055714Y-95973390D01*
X61055714Y-95973390D02*
X61008095Y-96021009D01*
X61008095Y-96021009D02*
X60912857Y-96068628D01*
X60912857Y-96068628D02*
X60531905Y-96068628D01*
X62055714Y-96544819D02*
X61484286Y-96544819D01*
X61770000Y-96544819D02*
X61770000Y-95544819D01*
X61770000Y-95544819D02*
X61674762Y-95687676D01*
X61674762Y-95687676D02*
X61579524Y-95782914D01*
X61579524Y-95782914D02*
X61484286Y-95830533D01*
X189641666Y-135469819D02*
X189641666Y-136184104D01*
X189641666Y-136184104D02*
X189594047Y-136326961D01*
X189594047Y-136326961D02*
X189498809Y-136422200D01*
X189498809Y-136422200D02*
X189355952Y-136469819D01*
X189355952Y-136469819D02*
X189260714Y-136469819D01*
X190022619Y-135469819D02*
X190641666Y-135469819D01*
X190641666Y-135469819D02*
X190308333Y-135850771D01*
X190308333Y-135850771D02*
X190451190Y-135850771D01*
X190451190Y-135850771D02*
X190546428Y-135898390D01*
X190546428Y-135898390D02*
X190594047Y-135946009D01*
X190594047Y-135946009D02*
X190641666Y-136041247D01*
X190641666Y-136041247D02*
X190641666Y-136279342D01*
X190641666Y-136279342D02*
X190594047Y-136374580D01*
X190594047Y-136374580D02*
X190546428Y-136422200D01*
X190546428Y-136422200D02*
X190451190Y-136469819D01*
X190451190Y-136469819D02*
X190165476Y-136469819D01*
X190165476Y-136469819D02*
X190070238Y-136422200D01*
X190070238Y-136422200D02*
X190022619Y-136374580D01*
X187271080Y-113182657D02*
X187318700Y-113230276D01*
X187318700Y-113230276D02*
X187366319Y-113373133D01*
X187366319Y-113373133D02*
X187366319Y-113468371D01*
X187366319Y-113468371D02*
X187318700Y-113611228D01*
X187318700Y-113611228D02*
X187223461Y-113706466D01*
X187223461Y-113706466D02*
X187128223Y-113754085D01*
X187128223Y-113754085D02*
X186937747Y-113801704D01*
X186937747Y-113801704D02*
X186794890Y-113801704D01*
X186794890Y-113801704D02*
X186604414Y-113754085D01*
X186604414Y-113754085D02*
X186509176Y-113706466D01*
X186509176Y-113706466D02*
X186413938Y-113611228D01*
X186413938Y-113611228D02*
X186366319Y-113468371D01*
X186366319Y-113468371D02*
X186366319Y-113373133D01*
X186366319Y-113373133D02*
X186413938Y-113230276D01*
X186413938Y-113230276D02*
X186461557Y-113182657D01*
X187366319Y-112230276D02*
X187366319Y-112801704D01*
X187366319Y-112515990D02*
X186366319Y-112515990D01*
X186366319Y-112515990D02*
X186509176Y-112611228D01*
X186509176Y-112611228D02*
X186604414Y-112706466D01*
X186604414Y-112706466D02*
X186652033Y-112801704D01*
X186366319Y-111325514D02*
X186366319Y-111801704D01*
X186366319Y-111801704D02*
X186842509Y-111849323D01*
X186842509Y-111849323D02*
X186794890Y-111801704D01*
X186794890Y-111801704D02*
X186747271Y-111706466D01*
X186747271Y-111706466D02*
X186747271Y-111468371D01*
X186747271Y-111468371D02*
X186794890Y-111373133D01*
X186794890Y-111373133D02*
X186842509Y-111325514D01*
X186842509Y-111325514D02*
X186937747Y-111277895D01*
X186937747Y-111277895D02*
X187175842Y-111277895D01*
X187175842Y-111277895D02*
X187271080Y-111325514D01*
X187271080Y-111325514D02*
X187318700Y-111373133D01*
X187318700Y-111373133D02*
X187366319Y-111468371D01*
X187366319Y-111468371D02*
X187366319Y-111706466D01*
X187366319Y-111706466D02*
X187318700Y-111801704D01*
X187318700Y-111801704D02*
X187271080Y-111849323D01*
X220991905Y-105364819D02*
X220991905Y-104364819D01*
X220991905Y-104364819D02*
X221372857Y-104364819D01*
X221372857Y-104364819D02*
X221468095Y-104412438D01*
X221468095Y-104412438D02*
X221515714Y-104460057D01*
X221515714Y-104460057D02*
X221563333Y-104555295D01*
X221563333Y-104555295D02*
X221563333Y-104698152D01*
X221563333Y-104698152D02*
X221515714Y-104793390D01*
X221515714Y-104793390D02*
X221468095Y-104841009D01*
X221468095Y-104841009D02*
X221372857Y-104888628D01*
X221372857Y-104888628D02*
X220991905Y-104888628D01*
X222420476Y-104364819D02*
X222230000Y-104364819D01*
X222230000Y-104364819D02*
X222134762Y-104412438D01*
X222134762Y-104412438D02*
X222087143Y-104460057D01*
X222087143Y-104460057D02*
X221991905Y-104602914D01*
X221991905Y-104602914D02*
X221944286Y-104793390D01*
X221944286Y-104793390D02*
X221944286Y-105174342D01*
X221944286Y-105174342D02*
X221991905Y-105269580D01*
X221991905Y-105269580D02*
X222039524Y-105317200D01*
X222039524Y-105317200D02*
X222134762Y-105364819D01*
X222134762Y-105364819D02*
X222325238Y-105364819D01*
X222325238Y-105364819D02*
X222420476Y-105317200D01*
X222420476Y-105317200D02*
X222468095Y-105269580D01*
X222468095Y-105269580D02*
X222515714Y-105174342D01*
X222515714Y-105174342D02*
X222515714Y-104936247D01*
X222515714Y-104936247D02*
X222468095Y-104841009D01*
X222468095Y-104841009D02*
X222420476Y-104793390D01*
X222420476Y-104793390D02*
X222325238Y-104745771D01*
X222325238Y-104745771D02*
X222134762Y-104745771D01*
X222134762Y-104745771D02*
X222039524Y-104793390D01*
X222039524Y-104793390D02*
X221991905Y-104841009D01*
X221991905Y-104841009D02*
X221944286Y-104936247D01*
D14*
X102135000Y-43120000D02*
X99705000Y-43120000D01*
X102135000Y-43120000D02*
X102135000Y-44639000D01*
X100920000Y-43120000D02*
X100920000Y-43879000D01*
X99705000Y-43120000D02*
X99705000Y-44639000D01*
X102135000Y-44639000D02*
X99705000Y-44639000D01*
X104600000Y-44640000D02*
X99530000Y-44640000D01*
X104600000Y-44640000D02*
X104600000Y-54410000D01*
X99530000Y-44640000D02*
X99530000Y-54410000D01*
X104600000Y-54410000D02*
X99530000Y-54410000D01*
X86895000Y-43120000D02*
X84465000Y-43120000D01*
X86895000Y-43120000D02*
X86895000Y-44639000D01*
X85680000Y-43120000D02*
X85680000Y-43879000D01*
X84465000Y-43120000D02*
X84465000Y-44639000D01*
X86895000Y-44639000D02*
X84465000Y-44639000D01*
X89360000Y-44640000D02*
X84290000Y-44640000D01*
X89360000Y-44640000D02*
X89360000Y-54410000D01*
X84290000Y-44640000D02*
X84290000Y-54410000D01*
X89360000Y-54410000D02*
X84290000Y-54410000D01*
X174105000Y-123301000D02*
X130925000Y-123301000D01*
X130925000Y-123301000D02*
X130925000Y-102219000D01*
X130925000Y-102219000D02*
X174105000Y-102219000D01*
X174105000Y-102219000D02*
X174105000Y-123301000D01*
X221670000Y-122860000D02*
X223000000Y-122860000D01*
X221670000Y-124190000D02*
X221670000Y-122860000D01*
X221670000Y-125460000D02*
X221670000Y-133140000D01*
X221670000Y-125460000D02*
X224330000Y-125460000D01*
X221670000Y-133140000D02*
X224330000Y-133140000D01*
X224330000Y-125460000D02*
X224330000Y-133140000D01*
X192425000Y-43120000D02*
X189995000Y-43120000D01*
X192425000Y-43120000D02*
X192425000Y-44639000D01*
X191210000Y-43120000D02*
X191210000Y-43879000D01*
X189995000Y-43120000D02*
X189995000Y-44639000D01*
X192425000Y-44639000D02*
X189995000Y-44639000D01*
X194890000Y-44640000D02*
X189820000Y-44640000D01*
X194890000Y-44640000D02*
X194890000Y-54410000D01*
X189820000Y-44640000D02*
X189820000Y-54410000D01*
X194890000Y-54410000D02*
X189820000Y-54410000D01*
X227680000Y-63770000D02*
X227680000Y-62770000D01*
X227680000Y-62770000D02*
X226680000Y-63270000D01*
X226680000Y-63270000D02*
X227680000Y-63770000D01*
X226290000Y-68480000D02*
X217170000Y-68480000D01*
X226290000Y-62780000D02*
X224980000Y-62780000D01*
X226290000Y-52980000D02*
X226290000Y-68480000D01*
X224980000Y-67180000D02*
X218480000Y-67180000D01*
X224980000Y-62780000D02*
X224980000Y-67180000D01*
X224980000Y-58680000D02*
X226290000Y-58680000D01*
X224980000Y-58680000D02*
X224980000Y-58680000D01*
X224980000Y-54280000D02*
X224980000Y-58680000D01*
X218480000Y-67180000D02*
X218480000Y-54280000D01*
X218480000Y-54280000D02*
X224980000Y-54280000D01*
X217170000Y-68480000D02*
X217170000Y-52980000D01*
X217170000Y-52980000D02*
X226290000Y-52980000D01*
X55320000Y-79690000D02*
X55320000Y-80690000D01*
X55320000Y-80690000D02*
X56320000Y-80190000D01*
X56320000Y-80190000D02*
X55320000Y-79690000D01*
X56710000Y-74980000D02*
X65830000Y-74980000D01*
X56710000Y-81950000D02*
X58020000Y-81950000D01*
X56710000Y-93020000D02*
X56710000Y-74980000D01*
X58020000Y-76280000D02*
X64520000Y-76280000D01*
X58020000Y-81950000D02*
X58020000Y-76280000D01*
X58020000Y-86050000D02*
X56710000Y-86050000D01*
X58020000Y-86050000D02*
X58020000Y-86050000D01*
X58020000Y-91720000D02*
X58020000Y-86050000D01*
X64520000Y-76280000D02*
X64520000Y-91720000D01*
X64520000Y-91720000D02*
X58020000Y-91720000D01*
X65830000Y-74980000D02*
X65830000Y-93020000D01*
X65830000Y-93020000D02*
X56710000Y-93020000D01*
X183967401Y-133005000D02*
X183567401Y-133005000D01*
X183767401Y-133205000D02*
X183767401Y-132805000D01*
X181697600Y-133890000D02*
X181697600Y-129730000D01*
X181657600Y-133890000D02*
X181657600Y-129730000D01*
X181617600Y-133889000D02*
X181617600Y-129731000D01*
X181577600Y-133887000D02*
X181577600Y-129733000D01*
X181537600Y-133884000D02*
X181537600Y-129736000D01*
X181497600Y-133881000D02*
X181497600Y-132650000D01*
X181497600Y-130970000D02*
X181497600Y-129739000D01*
X181457600Y-133877000D02*
X181457600Y-132650000D01*
X181457600Y-130970000D02*
X181457600Y-129743000D01*
X181417600Y-133872000D02*
X181417600Y-132650000D01*
X181417600Y-130970000D02*
X181417600Y-129748000D01*
X181377600Y-133866000D02*
X181377600Y-132650000D01*
X181377600Y-130970000D02*
X181377600Y-129754000D01*
X181337600Y-133860000D02*
X181337600Y-132650000D01*
X181337600Y-130970000D02*
X181337600Y-129760000D01*
X181297600Y-133852000D02*
X181297600Y-132650000D01*
X181297600Y-130970000D02*
X181297600Y-129768000D01*
X181257600Y-133844000D02*
X181257600Y-132650000D01*
X181257600Y-130970000D02*
X181257600Y-129776000D01*
X181217600Y-133835000D02*
X181217600Y-132650000D01*
X181217600Y-130970000D02*
X181217600Y-129785000D01*
X181177600Y-133826000D02*
X181177600Y-132650000D01*
X181177600Y-130970000D02*
X181177600Y-129794000D01*
X181137600Y-133815000D02*
X181137600Y-132650000D01*
X181137600Y-130970000D02*
X181137600Y-129805000D01*
X181097600Y-133804000D02*
X181097600Y-132650000D01*
X181097600Y-130970000D02*
X181097600Y-129816000D01*
X181057600Y-133792000D02*
X181057600Y-132650000D01*
X181057600Y-130970000D02*
X181057600Y-129828000D01*
X181017600Y-133778000D02*
X181017600Y-132650000D01*
X181017600Y-130970000D02*
X181017600Y-129842000D01*
X180976600Y-133764000D02*
X180976600Y-132650000D01*
X180976600Y-130970000D02*
X180976600Y-129856000D01*
X180936600Y-133750000D02*
X180936600Y-132650000D01*
X180936600Y-130970000D02*
X180936600Y-129870000D01*
X180896600Y-133734000D02*
X180896600Y-132650000D01*
X180896600Y-130970000D02*
X180896600Y-129886000D01*
X180856600Y-133717000D02*
X180856600Y-132650000D01*
X180856600Y-130970000D02*
X180856600Y-129903000D01*
X180816600Y-133699000D02*
X180816600Y-132650000D01*
X180816600Y-130970000D02*
X180816600Y-129921000D01*
X180776600Y-133680000D02*
X180776600Y-132650000D01*
X180776600Y-130970000D02*
X180776600Y-129940000D01*
X180736600Y-133661000D02*
X180736600Y-132650000D01*
X180736600Y-130970000D02*
X180736600Y-129959000D01*
X180696600Y-133640000D02*
X180696600Y-132650000D01*
X180696600Y-130970000D02*
X180696600Y-129980000D01*
X180656600Y-133618000D02*
X180656600Y-132650000D01*
X180656600Y-130970000D02*
X180656600Y-130002000D01*
X180616600Y-133595000D02*
X180616600Y-132650000D01*
X180616600Y-130970000D02*
X180616600Y-130025000D01*
X180576600Y-133570000D02*
X180576600Y-132650000D01*
X180576600Y-130970000D02*
X180576600Y-130050000D01*
X180536600Y-133545000D02*
X180536600Y-132650000D01*
X180536600Y-130970000D02*
X180536600Y-130075000D01*
X180496600Y-133518000D02*
X180496600Y-132650000D01*
X180496600Y-130970000D02*
X180496600Y-130102000D01*
X180456600Y-133490000D02*
X180456600Y-132650000D01*
X180456600Y-130970000D02*
X180456600Y-130130000D01*
X180416600Y-133460000D02*
X180416600Y-132650000D01*
X180416600Y-130970000D02*
X180416600Y-130160000D01*
X180376600Y-133429000D02*
X180376600Y-132650000D01*
X180376600Y-130970000D02*
X180376600Y-130191000D01*
X180336600Y-133397000D02*
X180336600Y-132650000D01*
X180336600Y-130970000D02*
X180336600Y-130223000D01*
X180296600Y-133362000D02*
X180296600Y-132650000D01*
X180296600Y-130970000D02*
X180296600Y-130258000D01*
X180256600Y-133326000D02*
X180256600Y-132650000D01*
X180256600Y-130970000D02*
X180256600Y-130294000D01*
X180216600Y-133288000D02*
X180216600Y-132650000D01*
X180216600Y-130970000D02*
X180216600Y-130332000D01*
X180176600Y-133248000D02*
X180176600Y-132650000D01*
X180176600Y-130970000D02*
X180176600Y-130372000D01*
X180136600Y-133206000D02*
X180136600Y-132650000D01*
X180136600Y-130970000D02*
X180136600Y-130414000D01*
X180096600Y-133161000D02*
X180096600Y-132650000D01*
X180096600Y-130970000D02*
X180096600Y-130459000D01*
X180056600Y-133114000D02*
X180056600Y-132650000D01*
X180056600Y-130970000D02*
X180056600Y-130506000D01*
X180016600Y-133064000D02*
X180016600Y-132650000D01*
X180016600Y-130970000D02*
X180016600Y-130556000D01*
X179976600Y-133010000D02*
X179976600Y-132650000D01*
X179976600Y-130970000D02*
X179976600Y-130610000D01*
X179936600Y-132952000D02*
X179936600Y-132650000D01*
X179936600Y-130970000D02*
X179936600Y-130668000D01*
X179896600Y-132890000D02*
X179896600Y-132650000D01*
X179896600Y-130970000D02*
X179896600Y-130730000D01*
X179856600Y-132823000D02*
X179856600Y-130797000D01*
X179816600Y-132750000D02*
X179816600Y-130870000D01*
X179776600Y-132669000D02*
X179776600Y-130951000D01*
X179736600Y-132578000D02*
X179736600Y-131042000D01*
X179696600Y-132474000D02*
X179696600Y-131146000D01*
X179656600Y-132347000D02*
X179656600Y-131273000D01*
X179616600Y-132180000D02*
X179616600Y-131440000D01*
X183817600Y-131810000D02*
G75*
G03*
X183817600Y-131810000I-2120000J0D01*
G01*
D15*
X166555000Y-67940000D02*
X165555000Y-67940000D01*
X166055000Y-67440000D02*
X166055000Y-68440000D01*
D14*
X171105000Y-48240000D02*
X168605000Y-45740000D01*
X163605000Y-45690000D02*
X161105000Y-48240000D01*
D15*
X166055000Y-44940000D02*
X166055000Y-43940000D01*
D14*
X171105000Y-66490000D02*
X161205000Y-66490000D01*
X161205000Y-66490000D02*
X161205000Y-45690000D01*
X161205000Y-45690000D02*
X171105000Y-45690000D01*
X171105000Y-45690000D02*
X171105000Y-66490000D01*
X195695199Y-130615000D02*
X196095199Y-130615000D01*
X195895199Y-130415000D02*
X195895199Y-130815000D01*
X197965000Y-129730000D02*
X197965000Y-133890000D01*
X198005000Y-129730000D02*
X198005000Y-133890000D01*
X198045000Y-129731000D02*
X198045000Y-133889000D01*
X198085000Y-129733000D02*
X198085000Y-133887000D01*
X198125000Y-129736000D02*
X198125000Y-133884000D01*
X198165000Y-129739000D02*
X198165000Y-130970000D01*
X198165000Y-132650000D02*
X198165000Y-133881000D01*
X198205000Y-129743000D02*
X198205000Y-130970000D01*
X198205000Y-132650000D02*
X198205000Y-133877000D01*
X198245000Y-129748000D02*
X198245000Y-130970000D01*
X198245000Y-132650000D02*
X198245000Y-133872000D01*
X198285000Y-129754000D02*
X198285000Y-130970000D01*
X198285000Y-132650000D02*
X198285000Y-133866000D01*
X198325000Y-129760000D02*
X198325000Y-130970000D01*
X198325000Y-132650000D02*
X198325000Y-133860000D01*
X198365000Y-129768000D02*
X198365000Y-130970000D01*
X198365000Y-132650000D02*
X198365000Y-133852000D01*
X198405000Y-129776000D02*
X198405000Y-130970000D01*
X198405000Y-132650000D02*
X198405000Y-133844000D01*
X198445000Y-129785000D02*
X198445000Y-130970000D01*
X198445000Y-132650000D02*
X198445000Y-133835000D01*
X198485000Y-129794000D02*
X198485000Y-130970000D01*
X198485000Y-132650000D02*
X198485000Y-133826000D01*
X198525000Y-129805000D02*
X198525000Y-130970000D01*
X198525000Y-132650000D02*
X198525000Y-133815000D01*
X198565000Y-129816000D02*
X198565000Y-130970000D01*
X198565000Y-132650000D02*
X198565000Y-133804000D01*
X198605000Y-129828000D02*
X198605000Y-130970000D01*
X198605000Y-132650000D02*
X198605000Y-133792000D01*
X198645000Y-129842000D02*
X198645000Y-130970000D01*
X198645000Y-132650000D02*
X198645000Y-133778000D01*
X198686000Y-129856000D02*
X198686000Y-130970000D01*
X198686000Y-132650000D02*
X198686000Y-133764000D01*
X198726000Y-129870000D02*
X198726000Y-130970000D01*
X198726000Y-132650000D02*
X198726000Y-133750000D01*
X198766000Y-129886000D02*
X198766000Y-130970000D01*
X198766000Y-132650000D02*
X198766000Y-133734000D01*
X198806000Y-129903000D02*
X198806000Y-130970000D01*
X198806000Y-132650000D02*
X198806000Y-133717000D01*
X198846000Y-129921000D02*
X198846000Y-130970000D01*
X198846000Y-132650000D02*
X198846000Y-133699000D01*
X198886000Y-129940000D02*
X198886000Y-130970000D01*
X198886000Y-132650000D02*
X198886000Y-133680000D01*
X198926000Y-129959000D02*
X198926000Y-130970000D01*
X198926000Y-132650000D02*
X198926000Y-133661000D01*
X198966000Y-129980000D02*
X198966000Y-130970000D01*
X198966000Y-132650000D02*
X198966000Y-133640000D01*
X199006000Y-130002000D02*
X199006000Y-130970000D01*
X199006000Y-132650000D02*
X199006000Y-133618000D01*
X199046000Y-130025000D02*
X199046000Y-130970000D01*
X199046000Y-132650000D02*
X199046000Y-133595000D01*
X199086000Y-130050000D02*
X199086000Y-130970000D01*
X199086000Y-132650000D02*
X199086000Y-133570000D01*
X199126000Y-130075000D02*
X199126000Y-130970000D01*
X199126000Y-132650000D02*
X199126000Y-133545000D01*
X199166000Y-130102000D02*
X199166000Y-130970000D01*
X199166000Y-132650000D02*
X199166000Y-133518000D01*
X199206000Y-130130000D02*
X199206000Y-130970000D01*
X199206000Y-132650000D02*
X199206000Y-133490000D01*
X199246000Y-130160000D02*
X199246000Y-130970000D01*
X199246000Y-132650000D02*
X199246000Y-133460000D01*
X199286000Y-130191000D02*
X199286000Y-130970000D01*
X199286000Y-132650000D02*
X199286000Y-133429000D01*
X199326000Y-130223000D02*
X199326000Y-130970000D01*
X199326000Y-132650000D02*
X199326000Y-133397000D01*
X199366000Y-130258000D02*
X199366000Y-130970000D01*
X199366000Y-132650000D02*
X199366000Y-133362000D01*
X199406000Y-130294000D02*
X199406000Y-130970000D01*
X199406000Y-132650000D02*
X199406000Y-133326000D01*
X199446000Y-130332000D02*
X199446000Y-130970000D01*
X199446000Y-132650000D02*
X199446000Y-133288000D01*
X199486000Y-130372000D02*
X199486000Y-130970000D01*
X199486000Y-132650000D02*
X199486000Y-133248000D01*
X199526000Y-130414000D02*
X199526000Y-130970000D01*
X199526000Y-132650000D02*
X199526000Y-133206000D01*
X199566000Y-130459000D02*
X199566000Y-130970000D01*
X199566000Y-132650000D02*
X199566000Y-133161000D01*
X199606000Y-130506000D02*
X199606000Y-130970000D01*
X199606000Y-132650000D02*
X199606000Y-133114000D01*
X199646000Y-130556000D02*
X199646000Y-130970000D01*
X199646000Y-132650000D02*
X199646000Y-133064000D01*
X199686000Y-130610000D02*
X199686000Y-130970000D01*
X199686000Y-132650000D02*
X199686000Y-133010000D01*
X199726000Y-130668000D02*
X199726000Y-130970000D01*
X199726000Y-132650000D02*
X199726000Y-132952000D01*
X199766000Y-130730000D02*
X199766000Y-130970000D01*
X199766000Y-132650000D02*
X199766000Y-132890000D01*
X199806000Y-130797000D02*
X199806000Y-132823000D01*
X199846000Y-130870000D02*
X199846000Y-132750000D01*
X199886000Y-130951000D02*
X199886000Y-132669000D01*
X199926000Y-131042000D02*
X199926000Y-132578000D01*
X199966000Y-131146000D02*
X199966000Y-132474000D01*
X200006000Y-131273000D02*
X200006000Y-132347000D01*
X200046000Y-131440000D02*
X200046000Y-132180000D01*
X200085000Y-131810000D02*
G75*
G03*
X200085000Y-131810000I-2120000J0D01*
G01*
X120926500Y-116754898D02*
X120926500Y-115954898D01*
X120526500Y-116354898D02*
X121326500Y-116354898D01*
X119161500Y-112345200D02*
X127321500Y-112345200D01*
X119161500Y-112305200D02*
X127321500Y-112305200D01*
X119161500Y-112265200D02*
X127321500Y-112265200D01*
X119162500Y-112225200D02*
X127320500Y-112225200D01*
X119164500Y-112185200D02*
X127318500Y-112185200D01*
X119165500Y-112145200D02*
X127317500Y-112145200D01*
X119167500Y-112105200D02*
X127315500Y-112105200D01*
X119170500Y-112065200D02*
X127312500Y-112065200D01*
X119173500Y-112025200D02*
X127309500Y-112025200D01*
X119176500Y-111985200D02*
X127306500Y-111985200D01*
X119180500Y-111945200D02*
X127302500Y-111945200D01*
X119184500Y-111905200D02*
X127298500Y-111905200D01*
X119189500Y-111865200D02*
X127293500Y-111865200D01*
X119193500Y-111825200D02*
X127289500Y-111825200D01*
X119199500Y-111785200D02*
X127283500Y-111785200D01*
X119204500Y-111745200D02*
X127278500Y-111745200D01*
X119211500Y-111705200D02*
X127271500Y-111705200D01*
X119217500Y-111665200D02*
X127265500Y-111665200D01*
X119224500Y-111624200D02*
X127258500Y-111624200D01*
X119231500Y-111584200D02*
X127251500Y-111584200D01*
X119239500Y-111544200D02*
X127243500Y-111544200D01*
X119247500Y-111504200D02*
X127235500Y-111504200D01*
X119256500Y-111464200D02*
X127226500Y-111464200D01*
X119265500Y-111424200D02*
X127217500Y-111424200D01*
X119274500Y-111384200D02*
X127208500Y-111384200D01*
X119284500Y-111344200D02*
X127198500Y-111344200D01*
X119294500Y-111304200D02*
X127188500Y-111304200D01*
X119305500Y-111264200D02*
X127177500Y-111264200D01*
X119316500Y-111224200D02*
X127166500Y-111224200D01*
X119327500Y-111184200D02*
X127155500Y-111184200D01*
X119339500Y-111144200D02*
X127143500Y-111144200D01*
X119352500Y-111104200D02*
X127130500Y-111104200D01*
X119364500Y-111064200D02*
X127118500Y-111064200D01*
X119378500Y-111024200D02*
X127104500Y-111024200D01*
X119391500Y-110984200D02*
X127091500Y-110984200D01*
X119406500Y-110944200D02*
X127076500Y-110944200D01*
X119420500Y-110904200D02*
X127062500Y-110904200D01*
X119436500Y-110864200D02*
X122201500Y-110864200D01*
X124281500Y-110864200D02*
X127046500Y-110864200D01*
X119451500Y-110824200D02*
X122201500Y-110824200D01*
X124281500Y-110824200D02*
X127031500Y-110824200D01*
X119467500Y-110784200D02*
X122201500Y-110784200D01*
X124281500Y-110784200D02*
X127015500Y-110784200D01*
X119484500Y-110744200D02*
X122201500Y-110744200D01*
X124281500Y-110744200D02*
X126998500Y-110744200D01*
X119501500Y-110704200D02*
X122201500Y-110704200D01*
X124281500Y-110704200D02*
X126981500Y-110704200D01*
X119519500Y-110664200D02*
X122201500Y-110664200D01*
X124281500Y-110664200D02*
X126963500Y-110664200D01*
X119537500Y-110624200D02*
X122201500Y-110624200D01*
X124281500Y-110624200D02*
X126945500Y-110624200D01*
X119555500Y-110584200D02*
X122201500Y-110584200D01*
X124281500Y-110584200D02*
X126927500Y-110584200D01*
X119575500Y-110544200D02*
X122201500Y-110544200D01*
X124281500Y-110544200D02*
X126907500Y-110544200D01*
X119594500Y-110504200D02*
X122201500Y-110504200D01*
X124281500Y-110504200D02*
X126888500Y-110504200D01*
X119614500Y-110464200D02*
X122201500Y-110464200D01*
X124281500Y-110464200D02*
X126868500Y-110464200D01*
X119635500Y-110424200D02*
X122201500Y-110424200D01*
X124281500Y-110424200D02*
X126847500Y-110424200D01*
X119657500Y-110384200D02*
X122201500Y-110384200D01*
X124281500Y-110384200D02*
X126825500Y-110384200D01*
X119679500Y-110344200D02*
X122201500Y-110344200D01*
X124281500Y-110344200D02*
X126803500Y-110344200D01*
X119701500Y-110304200D02*
X122201500Y-110304200D01*
X124281500Y-110304200D02*
X126781500Y-110304200D01*
X119724500Y-110264200D02*
X122201500Y-110264200D01*
X124281500Y-110264200D02*
X126758500Y-110264200D01*
X119748500Y-110224200D02*
X122201500Y-110224200D01*
X124281500Y-110224200D02*
X126734500Y-110224200D01*
X119772500Y-110184200D02*
X122201500Y-110184200D01*
X124281500Y-110184200D02*
X126710500Y-110184200D01*
X119797500Y-110144200D02*
X122201500Y-110144200D01*
X124281500Y-110144200D02*
X126685500Y-110144200D01*
X119823500Y-110104200D02*
X122201500Y-110104200D01*
X124281500Y-110104200D02*
X126659500Y-110104200D01*
X119849500Y-110064200D02*
X122201500Y-110064200D01*
X124281500Y-110064200D02*
X126633500Y-110064200D01*
X119876500Y-110024200D02*
X122201500Y-110024200D01*
X124281500Y-110024200D02*
X126606500Y-110024200D01*
X119903500Y-109984200D02*
X122201500Y-109984200D01*
X124281500Y-109984200D02*
X126579500Y-109984200D01*
X119932500Y-109944200D02*
X122201500Y-109944200D01*
X124281500Y-109944200D02*
X126550500Y-109944200D01*
X119961500Y-109904200D02*
X122201500Y-109904200D01*
X124281500Y-109904200D02*
X126521500Y-109904200D01*
X119991500Y-109864200D02*
X122201500Y-109864200D01*
X124281500Y-109864200D02*
X126491500Y-109864200D01*
X120021500Y-109824200D02*
X122201500Y-109824200D01*
X124281500Y-109824200D02*
X126461500Y-109824200D01*
X120052500Y-109784200D02*
X122201500Y-109784200D01*
X124281500Y-109784200D02*
X126430500Y-109784200D01*
X120085500Y-109744200D02*
X122201500Y-109744200D01*
X124281500Y-109744200D02*
X126397500Y-109744200D01*
X120117500Y-109704200D02*
X122201500Y-109704200D01*
X124281500Y-109704200D02*
X126365500Y-109704200D01*
X120151500Y-109664200D02*
X122201500Y-109664200D01*
X124281500Y-109664200D02*
X126331500Y-109664200D01*
X120186500Y-109624200D02*
X122201500Y-109624200D01*
X124281500Y-109624200D02*
X126296500Y-109624200D01*
X120222500Y-109584200D02*
X122201500Y-109584200D01*
X124281500Y-109584200D02*
X126260500Y-109584200D01*
X120258500Y-109544200D02*
X122201500Y-109544200D01*
X124281500Y-109544200D02*
X126224500Y-109544200D01*
X120296500Y-109504200D02*
X122201500Y-109504200D01*
X124281500Y-109504200D02*
X126186500Y-109504200D01*
X120334500Y-109464200D02*
X122201500Y-109464200D01*
X124281500Y-109464200D02*
X126148500Y-109464200D01*
X120374500Y-109424200D02*
X122201500Y-109424200D01*
X124281500Y-109424200D02*
X126108500Y-109424200D01*
X120415500Y-109384200D02*
X122201500Y-109384200D01*
X124281500Y-109384200D02*
X126067500Y-109384200D01*
X120457500Y-109344200D02*
X122201500Y-109344200D01*
X124281500Y-109344200D02*
X126025500Y-109344200D01*
X120500500Y-109304200D02*
X122201500Y-109304200D01*
X124281500Y-109304200D02*
X125982500Y-109304200D01*
X120544500Y-109264200D02*
X122201500Y-109264200D01*
X124281500Y-109264200D02*
X125938500Y-109264200D01*
X120590500Y-109224200D02*
X122201500Y-109224200D01*
X124281500Y-109224200D02*
X125892500Y-109224200D01*
X120637500Y-109184200D02*
X122201500Y-109184200D01*
X124281500Y-109184200D02*
X125845500Y-109184200D01*
X120685500Y-109144200D02*
X122201500Y-109144200D01*
X124281500Y-109144200D02*
X125797500Y-109144200D01*
X120736500Y-109104200D02*
X122201500Y-109104200D01*
X124281500Y-109104200D02*
X125746500Y-109104200D01*
X120787500Y-109064200D02*
X122201500Y-109064200D01*
X124281500Y-109064200D02*
X125695500Y-109064200D01*
X120841500Y-109024200D02*
X122201500Y-109024200D01*
X124281500Y-109024200D02*
X125641500Y-109024200D01*
X120896500Y-108984200D02*
X122201500Y-108984200D01*
X124281500Y-108984200D02*
X125586500Y-108984200D01*
X120954500Y-108944200D02*
X122201500Y-108944200D01*
X124281500Y-108944200D02*
X125528500Y-108944200D01*
X121013500Y-108904200D02*
X122201500Y-108904200D01*
X124281500Y-108904200D02*
X125469500Y-108904200D01*
X121075500Y-108864200D02*
X122201500Y-108864200D01*
X124281500Y-108864200D02*
X125407500Y-108864200D01*
X121139500Y-108824200D02*
X122201500Y-108824200D01*
X124281500Y-108824200D02*
X125343500Y-108824200D01*
X121207500Y-108784200D02*
X125275500Y-108784200D01*
X121277500Y-108744200D02*
X125205500Y-108744200D01*
X121351500Y-108704200D02*
X125131500Y-108704200D01*
X121428500Y-108664200D02*
X125054500Y-108664200D01*
X121510500Y-108624200D02*
X124972500Y-108624200D01*
X121596500Y-108584200D02*
X124886500Y-108584200D01*
X121689500Y-108544200D02*
X124793500Y-108544200D01*
X121788500Y-108504200D02*
X124694500Y-108504200D01*
X121895500Y-108464200D02*
X124587500Y-108464200D01*
X122012500Y-108424200D02*
X124470500Y-108424200D01*
X122143500Y-108384200D02*
X124339500Y-108384200D01*
X122293500Y-108344200D02*
X124189500Y-108344200D01*
X122473500Y-108304200D02*
X124009500Y-108304200D01*
X122708500Y-108264200D02*
X123774500Y-108264200D01*
X127361500Y-112345200D02*
G75*
G03*
X127361500Y-112345200I-4120000J0D01*
G01*
X55320000Y-57690000D02*
X55320000Y-58690000D01*
X55320000Y-58690000D02*
X56320000Y-58190000D01*
X56320000Y-58190000D02*
X55320000Y-57690000D01*
X56710000Y-52980000D02*
X65830000Y-52980000D01*
X56710000Y-59950000D02*
X58020000Y-59950000D01*
X56710000Y-71020000D02*
X56710000Y-52980000D01*
X58020000Y-54280000D02*
X64520000Y-54280000D01*
X58020000Y-59950000D02*
X58020000Y-54280000D01*
X58020000Y-64050000D02*
X56710000Y-64050000D01*
X58020000Y-64050000D02*
X58020000Y-64050000D01*
X58020000Y-69720000D02*
X58020000Y-64050000D01*
X64520000Y-54280000D02*
X64520000Y-69720000D01*
X64520000Y-69720000D02*
X58020000Y-69720000D01*
X65830000Y-52980000D02*
X65830000Y-71020000D01*
X65830000Y-71020000D02*
X56710000Y-71020000D01*
X55320000Y-123690000D02*
X55320000Y-124690000D01*
X55320000Y-124690000D02*
X56320000Y-124190000D01*
X56320000Y-124190000D02*
X55320000Y-123690000D01*
X56710000Y-118980000D02*
X65830000Y-118980000D01*
X56710000Y-125950000D02*
X58020000Y-125950000D01*
X56710000Y-137020000D02*
X56710000Y-118980000D01*
X58020000Y-120280000D02*
X64520000Y-120280000D01*
X58020000Y-125950000D02*
X58020000Y-120280000D01*
X58020000Y-130050000D02*
X56710000Y-130050000D01*
X58020000Y-130050000D02*
X58020000Y-130050000D01*
X58020000Y-135720000D02*
X58020000Y-130050000D01*
X64520000Y-120280000D02*
X64520000Y-135720000D01*
X64520000Y-135720000D02*
X58020000Y-135720000D01*
X65830000Y-118980000D02*
X65830000Y-137020000D01*
X65830000Y-137020000D02*
X56710000Y-137020000D01*
X92705000Y-92945000D02*
X92705000Y-95615000D01*
X92705000Y-98155000D02*
X92705000Y-136385000D01*
X92705000Y-136385000D02*
X97785000Y-136385000D01*
X95375000Y-95615000D02*
X92705000Y-95615000D01*
X95375000Y-98155000D02*
X92705000Y-98155000D01*
X95375000Y-98155000D02*
X95375000Y-95615000D01*
X95375000Y-98155000D02*
X95375000Y-133715000D01*
X95375000Y-133715000D02*
X92705000Y-133715000D01*
X97785000Y-128505000D02*
X105665000Y-128505000D01*
X97785000Y-138925000D02*
X97785000Y-128505000D01*
X105665000Y-128505000D02*
X105665000Y-138925000D01*
X105665000Y-138925000D02*
X97785000Y-138925000D01*
X108075000Y-95615000D02*
X108075000Y-133715000D01*
X108075000Y-95615000D02*
X110745000Y-95615000D01*
X108075000Y-133715000D02*
X110745000Y-133715000D01*
X110745000Y-92945000D02*
X92705000Y-92945000D01*
X110745000Y-136385000D02*
X105665000Y-136385000D01*
X110745000Y-136385000D02*
X110745000Y-92945000D01*
D15*
X137980000Y-67940000D02*
X136980000Y-67940000D01*
X137480000Y-67440000D02*
X137480000Y-68440000D01*
D14*
X142530000Y-48240000D02*
X140030000Y-45740000D01*
X135030000Y-45690000D02*
X132530000Y-48240000D01*
D15*
X137480000Y-44940000D02*
X137480000Y-43940000D01*
D14*
X142530000Y-66490000D02*
X132630000Y-66490000D01*
X132630000Y-66490000D02*
X132630000Y-45690000D01*
X132630000Y-45690000D02*
X142530000Y-45690000D01*
X142530000Y-45690000D02*
X142530000Y-66490000D01*
X183967401Y-62520000D02*
X183567401Y-62520000D01*
X183767401Y-62720000D02*
X183767401Y-62320000D01*
X181697600Y-63405000D02*
X181697600Y-59245000D01*
X181657600Y-63405000D02*
X181657600Y-59245000D01*
X181617600Y-63404000D02*
X181617600Y-59246000D01*
X181577600Y-63402000D02*
X181577600Y-59248000D01*
X181537600Y-63399000D02*
X181537600Y-59251000D01*
X181497600Y-63396000D02*
X181497600Y-62165000D01*
X181497600Y-60485000D02*
X181497600Y-59254000D01*
X181457600Y-63392000D02*
X181457600Y-62165000D01*
X181457600Y-60485000D02*
X181457600Y-59258000D01*
X181417600Y-63387000D02*
X181417600Y-62165000D01*
X181417600Y-60485000D02*
X181417600Y-59263000D01*
X181377600Y-63381000D02*
X181377600Y-62165000D01*
X181377600Y-60485000D02*
X181377600Y-59269000D01*
X181337600Y-63375000D02*
X181337600Y-62165000D01*
X181337600Y-60485000D02*
X181337600Y-59275000D01*
X181297600Y-63367000D02*
X181297600Y-62165000D01*
X181297600Y-60485000D02*
X181297600Y-59283000D01*
X181257600Y-63359000D02*
X181257600Y-62165000D01*
X181257600Y-60485000D02*
X181257600Y-59291000D01*
X181217600Y-63350000D02*
X181217600Y-62165000D01*
X181217600Y-60485000D02*
X181217600Y-59300000D01*
X181177600Y-63341000D02*
X181177600Y-62165000D01*
X181177600Y-60485000D02*
X181177600Y-59309000D01*
X181137600Y-63330000D02*
X181137600Y-62165000D01*
X181137600Y-60485000D02*
X181137600Y-59320000D01*
X181097600Y-63319000D02*
X181097600Y-62165000D01*
X181097600Y-60485000D02*
X181097600Y-59331000D01*
X181057600Y-63307000D02*
X181057600Y-62165000D01*
X181057600Y-60485000D02*
X181057600Y-59343000D01*
X181017600Y-63293000D02*
X181017600Y-62165000D01*
X181017600Y-60485000D02*
X181017600Y-59357000D01*
X180976600Y-63279000D02*
X180976600Y-62165000D01*
X180976600Y-60485000D02*
X180976600Y-59371000D01*
X180936600Y-63265000D02*
X180936600Y-62165000D01*
X180936600Y-60485000D02*
X180936600Y-59385000D01*
X180896600Y-63249000D02*
X180896600Y-62165000D01*
X180896600Y-60485000D02*
X180896600Y-59401000D01*
X180856600Y-63232000D02*
X180856600Y-62165000D01*
X180856600Y-60485000D02*
X180856600Y-59418000D01*
X180816600Y-63214000D02*
X180816600Y-62165000D01*
X180816600Y-60485000D02*
X180816600Y-59436000D01*
X180776600Y-63195000D02*
X180776600Y-62165000D01*
X180776600Y-60485000D02*
X180776600Y-59455000D01*
X180736600Y-63176000D02*
X180736600Y-62165000D01*
X180736600Y-60485000D02*
X180736600Y-59474000D01*
X180696600Y-63155000D02*
X180696600Y-62165000D01*
X180696600Y-60485000D02*
X180696600Y-59495000D01*
X180656600Y-63133000D02*
X180656600Y-62165000D01*
X180656600Y-60485000D02*
X180656600Y-59517000D01*
X180616600Y-63110000D02*
X180616600Y-62165000D01*
X180616600Y-60485000D02*
X180616600Y-59540000D01*
X180576600Y-63085000D02*
X180576600Y-62165000D01*
X180576600Y-60485000D02*
X180576600Y-59565000D01*
X180536600Y-63060000D02*
X180536600Y-62165000D01*
X180536600Y-60485000D02*
X180536600Y-59590000D01*
X180496600Y-63033000D02*
X180496600Y-62165000D01*
X180496600Y-60485000D02*
X180496600Y-59617000D01*
X180456600Y-63005000D02*
X180456600Y-62165000D01*
X180456600Y-60485000D02*
X180456600Y-59645000D01*
X180416600Y-62975000D02*
X180416600Y-62165000D01*
X180416600Y-60485000D02*
X180416600Y-59675000D01*
X180376600Y-62944000D02*
X180376600Y-62165000D01*
X180376600Y-60485000D02*
X180376600Y-59706000D01*
X180336600Y-62912000D02*
X180336600Y-62165000D01*
X180336600Y-60485000D02*
X180336600Y-59738000D01*
X180296600Y-62877000D02*
X180296600Y-62165000D01*
X180296600Y-60485000D02*
X180296600Y-59773000D01*
X180256600Y-62841000D02*
X180256600Y-62165000D01*
X180256600Y-60485000D02*
X180256600Y-59809000D01*
X180216600Y-62803000D02*
X180216600Y-62165000D01*
X180216600Y-60485000D02*
X180216600Y-59847000D01*
X180176600Y-62763000D02*
X180176600Y-62165000D01*
X180176600Y-60485000D02*
X180176600Y-59887000D01*
X180136600Y-62721000D02*
X180136600Y-62165000D01*
X180136600Y-60485000D02*
X180136600Y-59929000D01*
X180096600Y-62676000D02*
X180096600Y-62165000D01*
X180096600Y-60485000D02*
X180096600Y-59974000D01*
X180056600Y-62629000D02*
X180056600Y-62165000D01*
X180056600Y-60485000D02*
X180056600Y-60021000D01*
X180016600Y-62579000D02*
X180016600Y-62165000D01*
X180016600Y-60485000D02*
X180016600Y-60071000D01*
X179976600Y-62525000D02*
X179976600Y-62165000D01*
X179976600Y-60485000D02*
X179976600Y-60125000D01*
X179936600Y-62467000D02*
X179936600Y-62165000D01*
X179936600Y-60485000D02*
X179936600Y-60183000D01*
X179896600Y-62405000D02*
X179896600Y-62165000D01*
X179896600Y-60485000D02*
X179896600Y-60245000D01*
X179856600Y-62338000D02*
X179856600Y-60312000D01*
X179816600Y-62265000D02*
X179816600Y-60385000D01*
X179776600Y-62184000D02*
X179776600Y-60466000D01*
X179736600Y-62093000D02*
X179736600Y-60557000D01*
X179696600Y-61989000D02*
X179696600Y-60661000D01*
X179656600Y-61862000D02*
X179656600Y-60788000D01*
X179616600Y-61695000D02*
X179616600Y-60955000D01*
X183817600Y-61325000D02*
G75*
G03*
X183817600Y-61325000I-2120000J0D01*
G01*
X207665000Y-43120000D02*
X205235000Y-43120000D01*
X207665000Y-43120000D02*
X207665000Y-44639000D01*
X206450000Y-43120000D02*
X206450000Y-43879000D01*
X205235000Y-43120000D02*
X205235000Y-44639000D01*
X207665000Y-44639000D02*
X205235000Y-44639000D01*
X210130000Y-44640000D02*
X205060000Y-44640000D01*
X210130000Y-44640000D02*
X210130000Y-54410000D01*
X205060000Y-44640000D02*
X205060000Y-54410000D01*
X210130000Y-54410000D02*
X205060000Y-54410000D01*
X77950000Y-65810000D02*
X80600000Y-65810000D01*
X80600000Y-63440000D02*
X80600000Y-68180000D01*
X80600000Y-68180000D02*
X92740000Y-68180000D01*
X92740000Y-63440000D02*
X80600000Y-63440000D01*
X92740000Y-68180000D02*
X92740000Y-63440000D01*
X95390000Y-65810000D02*
X92740000Y-65810000D01*
X55320000Y-101690000D02*
X55320000Y-102690000D01*
X55320000Y-102690000D02*
X56320000Y-102190000D01*
X56320000Y-102190000D02*
X55320000Y-101690000D01*
X56710000Y-96980000D02*
X65830000Y-96980000D01*
X56710000Y-103950000D02*
X58020000Y-103950000D01*
X56710000Y-115020000D02*
X56710000Y-96980000D01*
X58020000Y-98280000D02*
X64520000Y-98280000D01*
X58020000Y-103950000D02*
X58020000Y-98280000D01*
X58020000Y-108050000D02*
X56710000Y-108050000D01*
X58020000Y-108050000D02*
X58020000Y-108050000D01*
X58020000Y-113720000D02*
X58020000Y-108050000D01*
X64520000Y-98280000D02*
X64520000Y-113720000D01*
X64520000Y-113720000D02*
X58020000Y-113720000D01*
X65830000Y-96980000D02*
X65830000Y-115020000D01*
X65830000Y-115020000D02*
X56710000Y-115020000D01*
X184595000Y-146435000D02*
X184595000Y-147175000D01*
X184595000Y-147175000D02*
X185095000Y-147175000D01*
X184835000Y-137014000D02*
X184835000Y-146935000D01*
X184835000Y-137014000D02*
X195115000Y-137014000D01*
X184835000Y-139974000D02*
X195115000Y-139974000D01*
X184835000Y-144875000D02*
X195115000Y-144875000D01*
X184835000Y-146375000D02*
X195115000Y-146375000D01*
X184835000Y-146935000D02*
X195115000Y-146935000D01*
X191288000Y-143298000D02*
X191241000Y-143344000D01*
X191481000Y-143514000D02*
X191446000Y-143549000D01*
X193585000Y-141000000D02*
X193550000Y-141036000D01*
X193790000Y-141206000D02*
X193743000Y-141252000D01*
X195115000Y-137014000D02*
X195115000Y-146935000D01*
X185900001Y-141591001D02*
G75*
G03*
X185899574Y-142958042I1534992J-684000D01*
G01*
X188118999Y-140740001D02*
G75*
G03*
X186751958Y-140739574I-684000J-1534992D01*
G01*
X186751000Y-143809999D02*
G75*
G03*
X187463805Y-143955252I683999J1535000D01*
G01*
X187435000Y-143954999D02*
G75*
G03*
X188118318Y-143809755I0J1679999D01*
G01*
X188970000Y-142959000D02*
G75*
G03*
X188970426Y-141591958I-1535000J684000D01*
G01*
X194195000Y-142275000D02*
G75*
G03*
X194195000Y-142275000I-1680000J0D01*
G01*
X183976500Y-108130102D02*
X183976500Y-108930102D01*
X184376500Y-108530102D02*
X183576500Y-108530102D01*
X185741500Y-112539800D02*
X177581500Y-112539800D01*
X185741500Y-112579800D02*
X177581500Y-112579800D01*
X185741500Y-112619800D02*
X177581500Y-112619800D01*
X185740500Y-112659800D02*
X177582500Y-112659800D01*
X185738500Y-112699800D02*
X177584500Y-112699800D01*
X185737500Y-112739800D02*
X177585500Y-112739800D01*
X185735500Y-112779800D02*
X177587500Y-112779800D01*
X185732500Y-112819800D02*
X177590500Y-112819800D01*
X185729500Y-112859800D02*
X177593500Y-112859800D01*
X185726500Y-112899800D02*
X177596500Y-112899800D01*
X185722500Y-112939800D02*
X177600500Y-112939800D01*
X185718500Y-112979800D02*
X177604500Y-112979800D01*
X185713500Y-113019800D02*
X177609500Y-113019800D01*
X185709500Y-113059800D02*
X177613500Y-113059800D01*
X185703500Y-113099800D02*
X177619500Y-113099800D01*
X185698500Y-113139800D02*
X177624500Y-113139800D01*
X185691500Y-113179800D02*
X177631500Y-113179800D01*
X185685500Y-113219800D02*
X177637500Y-113219800D01*
X185678500Y-113260800D02*
X177644500Y-113260800D01*
X185671500Y-113300800D02*
X177651500Y-113300800D01*
X185663500Y-113340800D02*
X177659500Y-113340800D01*
X185655500Y-113380800D02*
X177667500Y-113380800D01*
X185646500Y-113420800D02*
X177676500Y-113420800D01*
X185637500Y-113460800D02*
X177685500Y-113460800D01*
X185628500Y-113500800D02*
X177694500Y-113500800D01*
X185618500Y-113540800D02*
X177704500Y-113540800D01*
X185608500Y-113580800D02*
X177714500Y-113580800D01*
X185597500Y-113620800D02*
X177725500Y-113620800D01*
X185586500Y-113660800D02*
X177736500Y-113660800D01*
X185575500Y-113700800D02*
X177747500Y-113700800D01*
X185563500Y-113740800D02*
X177759500Y-113740800D01*
X185550500Y-113780800D02*
X177772500Y-113780800D01*
X185538500Y-113820800D02*
X177784500Y-113820800D01*
X185524500Y-113860800D02*
X177798500Y-113860800D01*
X185511500Y-113900800D02*
X177811500Y-113900800D01*
X185496500Y-113940800D02*
X177826500Y-113940800D01*
X185482500Y-113980800D02*
X177840500Y-113980800D01*
X185466500Y-114020800D02*
X182701500Y-114020800D01*
X180621500Y-114020800D02*
X177856500Y-114020800D01*
X185451500Y-114060800D02*
X182701500Y-114060800D01*
X180621500Y-114060800D02*
X177871500Y-114060800D01*
X185435500Y-114100800D02*
X182701500Y-114100800D01*
X180621500Y-114100800D02*
X177887500Y-114100800D01*
X185418500Y-114140800D02*
X182701500Y-114140800D01*
X180621500Y-114140800D02*
X177904500Y-114140800D01*
X185401500Y-114180800D02*
X182701500Y-114180800D01*
X180621500Y-114180800D02*
X177921500Y-114180800D01*
X185383500Y-114220800D02*
X182701500Y-114220800D01*
X180621500Y-114220800D02*
X177939500Y-114220800D01*
X185365500Y-114260800D02*
X182701500Y-114260800D01*
X180621500Y-114260800D02*
X177957500Y-114260800D01*
X185347500Y-114300800D02*
X182701500Y-114300800D01*
X180621500Y-114300800D02*
X177975500Y-114300800D01*
X185327500Y-114340800D02*
X182701500Y-114340800D01*
X180621500Y-114340800D02*
X177995500Y-114340800D01*
X185308500Y-114380800D02*
X182701500Y-114380800D01*
X180621500Y-114380800D02*
X178014500Y-114380800D01*
X185288500Y-114420800D02*
X182701500Y-114420800D01*
X180621500Y-114420800D02*
X178034500Y-114420800D01*
X185267500Y-114460800D02*
X182701500Y-114460800D01*
X180621500Y-114460800D02*
X178055500Y-114460800D01*
X185245500Y-114500800D02*
X182701500Y-114500800D01*
X180621500Y-114500800D02*
X178077500Y-114500800D01*
X185223500Y-114540800D02*
X182701500Y-114540800D01*
X180621500Y-114540800D02*
X178099500Y-114540800D01*
X185201500Y-114580800D02*
X182701500Y-114580800D01*
X180621500Y-114580800D02*
X178121500Y-114580800D01*
X185178500Y-114620800D02*
X182701500Y-114620800D01*
X180621500Y-114620800D02*
X178144500Y-114620800D01*
X185154500Y-114660800D02*
X182701500Y-114660800D01*
X180621500Y-114660800D02*
X178168500Y-114660800D01*
X185130500Y-114700800D02*
X182701500Y-114700800D01*
X180621500Y-114700800D02*
X178192500Y-114700800D01*
X185105500Y-114740800D02*
X182701500Y-114740800D01*
X180621500Y-114740800D02*
X178217500Y-114740800D01*
X185079500Y-114780800D02*
X182701500Y-114780800D01*
X180621500Y-114780800D02*
X178243500Y-114780800D01*
X185053500Y-114820800D02*
X182701500Y-114820800D01*
X180621500Y-114820800D02*
X178269500Y-114820800D01*
X185026500Y-114860800D02*
X182701500Y-114860800D01*
X180621500Y-114860800D02*
X178296500Y-114860800D01*
X184999500Y-114900800D02*
X182701500Y-114900800D01*
X180621500Y-114900800D02*
X178323500Y-114900800D01*
X184970500Y-114940800D02*
X182701500Y-114940800D01*
X180621500Y-114940800D02*
X178352500Y-114940800D01*
X184941500Y-114980800D02*
X182701500Y-114980800D01*
X180621500Y-114980800D02*
X178381500Y-114980800D01*
X184911500Y-115020800D02*
X182701500Y-115020800D01*
X180621500Y-115020800D02*
X178411500Y-115020800D01*
X184881500Y-115060800D02*
X182701500Y-115060800D01*
X180621500Y-115060800D02*
X178441500Y-115060800D01*
X184850500Y-115100800D02*
X182701500Y-115100800D01*
X180621500Y-115100800D02*
X178472500Y-115100800D01*
X184817500Y-115140800D02*
X182701500Y-115140800D01*
X180621500Y-115140800D02*
X178505500Y-115140800D01*
X184785500Y-115180800D02*
X182701500Y-115180800D01*
X180621500Y-115180800D02*
X178537500Y-115180800D01*
X184751500Y-115220800D02*
X182701500Y-115220800D01*
X180621500Y-115220800D02*
X178571500Y-115220800D01*
X184716500Y-115260800D02*
X182701500Y-115260800D01*
X180621500Y-115260800D02*
X178606500Y-115260800D01*
X184680500Y-115300800D02*
X182701500Y-115300800D01*
X180621500Y-115300800D02*
X178642500Y-115300800D01*
X184644500Y-115340800D02*
X182701500Y-115340800D01*
X180621500Y-115340800D02*
X178678500Y-115340800D01*
X184606500Y-115380800D02*
X182701500Y-115380800D01*
X180621500Y-115380800D02*
X178716500Y-115380800D01*
X184568500Y-115420800D02*
X182701500Y-115420800D01*
X180621500Y-115420800D02*
X178754500Y-115420800D01*
X184528500Y-115460800D02*
X182701500Y-115460800D01*
X180621500Y-115460800D02*
X178794500Y-115460800D01*
X184487500Y-115500800D02*
X182701500Y-115500800D01*
X180621500Y-115500800D02*
X178835500Y-115500800D01*
X184445500Y-115540800D02*
X182701500Y-115540800D01*
X180621500Y-115540800D02*
X178877500Y-115540800D01*
X184402500Y-115580800D02*
X182701500Y-115580800D01*
X180621500Y-115580800D02*
X178920500Y-115580800D01*
X184358500Y-115620800D02*
X182701500Y-115620800D01*
X180621500Y-115620800D02*
X178964500Y-115620800D01*
X184312500Y-115660800D02*
X182701500Y-115660800D01*
X180621500Y-115660800D02*
X179010500Y-115660800D01*
X184265500Y-115700800D02*
X182701500Y-115700800D01*
X180621500Y-115700800D02*
X179057500Y-115700800D01*
X184217500Y-115740800D02*
X182701500Y-115740800D01*
X180621500Y-115740800D02*
X179105500Y-115740800D01*
X184166500Y-115780800D02*
X182701500Y-115780800D01*
X180621500Y-115780800D02*
X179156500Y-115780800D01*
X184115500Y-115820800D02*
X182701500Y-115820800D01*
X180621500Y-115820800D02*
X179207500Y-115820800D01*
X184061500Y-115860800D02*
X182701500Y-115860800D01*
X180621500Y-115860800D02*
X179261500Y-115860800D01*
X184006500Y-115900800D02*
X182701500Y-115900800D01*
X180621500Y-115900800D02*
X179316500Y-115900800D01*
X183948500Y-115940800D02*
X182701500Y-115940800D01*
X180621500Y-115940800D02*
X179374500Y-115940800D01*
X183889500Y-115980800D02*
X182701500Y-115980800D01*
X180621500Y-115980800D02*
X179433500Y-115980800D01*
X183827500Y-116020800D02*
X182701500Y-116020800D01*
X180621500Y-116020800D02*
X179495500Y-116020800D01*
X183763500Y-116060800D02*
X182701500Y-116060800D01*
X180621500Y-116060800D02*
X179559500Y-116060800D01*
X183695500Y-116100800D02*
X179627500Y-116100800D01*
X183625500Y-116140800D02*
X179697500Y-116140800D01*
X183551500Y-116180800D02*
X179771500Y-116180800D01*
X183474500Y-116220800D02*
X179848500Y-116220800D01*
X183392500Y-116260800D02*
X179930500Y-116260800D01*
X183306500Y-116300800D02*
X180016500Y-116300800D01*
X183213500Y-116340800D02*
X180109500Y-116340800D01*
X183114500Y-116380800D02*
X180208500Y-116380800D01*
X183007500Y-116420800D02*
X180315500Y-116420800D01*
X182890500Y-116460800D02*
X180432500Y-116460800D01*
X182759500Y-116500800D02*
X180563500Y-116500800D01*
X182609500Y-116540800D02*
X180713500Y-116540800D01*
X182429500Y-116580800D02*
X180893500Y-116580800D01*
X182194500Y-116620800D02*
X181128500Y-116620800D01*
X185781500Y-112539800D02*
G75*
G03*
X185781500Y-112539800I-4120000J0D01*
G01*
X227680000Y-99310000D02*
X227680000Y-98310000D01*
X227680000Y-98310000D02*
X226680000Y-98810000D01*
X226680000Y-98810000D02*
X227680000Y-99310000D01*
X226290000Y-104020000D02*
X217170000Y-104020000D01*
X226290000Y-97050000D02*
X224980000Y-97050000D01*
X226290000Y-85980000D02*
X226290000Y-104020000D01*
X224980000Y-102720000D02*
X218480000Y-102720000D01*
X224980000Y-97050000D02*
X224980000Y-102720000D01*
X224980000Y-92950000D02*
X226290000Y-92950000D01*
X224980000Y-92950000D02*
X224980000Y-92950000D01*
X224980000Y-87280000D02*
X224980000Y-92950000D01*
X218480000Y-102720000D02*
X218480000Y-87280000D01*
X218480000Y-87280000D02*
X224980000Y-87280000D01*
X217170000Y-104020000D02*
X217170000Y-85980000D01*
X217170000Y-85980000D02*
X226290000Y-85980000D01*
%LPC*%
D16*
X54200000Y-145800000D03*
D17*
X102070000Y-52065000D03*
X102070000Y-49525000D03*
X102070000Y-46985000D03*
X86830000Y-52065000D03*
X86830000Y-49525000D03*
X86830000Y-46985000D03*
D18*
X172136500Y-121332500D03*
D19*
X172136500Y-104187500D03*
X132639500Y-104187500D03*
X132639500Y-121332500D03*
D20*
X223000000Y-124190000D03*
D21*
X223000000Y-126730000D03*
X223000000Y-129270000D03*
X223000000Y-131810000D03*
D17*
X192360000Y-52065000D03*
X192360000Y-49525000D03*
X192360000Y-46985000D03*
D22*
X223000000Y-63270000D03*
D23*
X220460000Y-63270000D03*
X223000000Y-60730000D03*
X220460000Y-60730000D03*
X223000000Y-58190000D03*
X220460000Y-58190000D03*
D24*
X60000000Y-80190000D03*
D23*
X62540000Y-80190000D03*
X60000000Y-82730000D03*
X62540000Y-82730000D03*
X60000000Y-85270000D03*
X62540000Y-85270000D03*
X60000000Y-87810000D03*
X62540000Y-87810000D03*
D25*
X182697600Y-131810000D03*
D26*
X180697600Y-131810000D03*
D27*
X166205000Y-50590000D03*
D28*
X166205000Y-61590000D03*
D25*
X196965000Y-131810000D03*
D26*
X198965000Y-131810000D03*
D29*
X123241500Y-114845200D03*
D30*
X123241500Y-109845200D03*
D24*
X60000000Y-58190000D03*
D23*
X62540000Y-58190000D03*
X60000000Y-60730000D03*
X62540000Y-60730000D03*
X60000000Y-63270000D03*
X62540000Y-63270000D03*
X60000000Y-65810000D03*
X62540000Y-65810000D03*
D16*
X54200000Y-44200000D03*
D24*
X60000000Y-124190000D03*
D23*
X62540000Y-124190000D03*
X60000000Y-126730000D03*
X62540000Y-126730000D03*
X60000000Y-129270000D03*
X62540000Y-129270000D03*
X60000000Y-131810000D03*
X62540000Y-131810000D03*
D29*
X94105000Y-96885000D03*
D31*
X94105000Y-99425000D03*
X94105000Y-101965000D03*
X94105000Y-104505000D03*
X94105000Y-107045000D03*
X94105000Y-109585000D03*
X94105000Y-112125000D03*
X94105000Y-114665000D03*
X94105000Y-117205000D03*
X94105000Y-119745000D03*
X94105000Y-122285000D03*
X94105000Y-124825000D03*
X94105000Y-127365000D03*
X94105000Y-129905000D03*
X94105000Y-132445000D03*
X109345000Y-132445000D03*
X109345000Y-129905000D03*
X109345000Y-127365000D03*
X109345000Y-124825000D03*
X109345000Y-122285000D03*
X109345000Y-119745000D03*
X109345000Y-117205000D03*
X109345000Y-114665000D03*
X109345000Y-112125000D03*
X109345000Y-109585000D03*
X109345000Y-107045000D03*
X109345000Y-104505000D03*
X109345000Y-101965000D03*
X109345000Y-99425000D03*
X109345000Y-96885000D03*
D16*
X228800000Y-145800000D03*
D32*
X217500000Y-77000000D03*
D33*
X228000000Y-77000000D03*
D16*
X228800000Y-44200000D03*
D27*
X137630000Y-50590000D03*
D28*
X137630000Y-61590000D03*
D25*
X182697600Y-61325000D03*
D26*
X180697600Y-61325000D03*
D17*
X207600000Y-52065000D03*
X207600000Y-49525000D03*
X207600000Y-46985000D03*
D34*
X223000000Y-145000000D03*
D35*
X76510000Y-65810000D03*
D36*
X96830000Y-65810000D03*
D34*
X60000000Y-45000000D03*
D24*
X60000000Y-102190000D03*
D23*
X62540000Y-102190000D03*
X60000000Y-104730000D03*
X62540000Y-104730000D03*
X60000000Y-107270000D03*
X62540000Y-107270000D03*
X60000000Y-109810000D03*
X62540000Y-109810000D03*
D37*
X187435000Y-142275000D03*
D38*
X192515000Y-142275000D03*
D29*
X181661500Y-110039800D03*
D30*
X181661500Y-115039800D03*
D22*
X223000000Y-98810000D03*
D23*
X220460000Y-98810000D03*
X223000000Y-96270000D03*
X220460000Y-96270000D03*
X223000000Y-93730000D03*
X220460000Y-93730000D03*
X223000000Y-91190000D03*
X220460000Y-91190000D03*
D39*
X157470000Y-81960000D03*
%LPD*%
M02*
