%TF.GenerationSoftware,KiCad,Pcbnew,7.0.9-7.0.9~ubuntu20.04.1*%
%TF.CreationDate,2023-12-17T18:48:35+01:00*%
%TF.ProjectId,linear_controller,6c696e65-6172-45f6-936f-6e74726f6c6c,1.0*%
%TF.SameCoordinates,Original*%
%TF.FileFunction,Drillmap*%
%TF.FilePolarity,Positive*%
%FSLAX45Y45*%
G04 Gerber Fmt 4.5, Leading zero omitted, Abs format (unit mm)*
G04 Created by KiCad (PCBNEW 7.0.9-7.0.9~ubuntu20.04.1) date 2023-12-17 18:48:35*
%MOMM*%
%LPD*%
G01*
G04 APERTURE LIST*
%ADD10C,0.100000*%
%ADD11C,0.200000*%
G04 APERTURE END LIST*
D10*
X5000000Y-4000000D02*
X23300000Y-4000000D01*
X23300000Y-15000000D01*
X5000000Y-15000000D01*
X5000000Y-4000000D01*
D11*
X5255777Y-15316484D02*
X5255777Y-15116484D01*
X5255777Y-15116484D02*
X5303396Y-15116484D01*
X5303396Y-15116484D02*
X5331967Y-15126008D01*
X5331967Y-15126008D02*
X5351015Y-15145055D01*
X5351015Y-15145055D02*
X5360539Y-15164103D01*
X5360539Y-15164103D02*
X5370063Y-15202198D01*
X5370063Y-15202198D02*
X5370063Y-15230769D01*
X5370063Y-15230769D02*
X5360539Y-15268865D01*
X5360539Y-15268865D02*
X5351015Y-15287912D01*
X5351015Y-15287912D02*
X5331967Y-15306960D01*
X5331967Y-15306960D02*
X5303396Y-15316484D01*
X5303396Y-15316484D02*
X5255777Y-15316484D01*
X5455777Y-15316484D02*
X5455777Y-15183150D01*
X5455777Y-15221246D02*
X5465301Y-15202198D01*
X5465301Y-15202198D02*
X5474824Y-15192674D01*
X5474824Y-15192674D02*
X5493872Y-15183150D01*
X5493872Y-15183150D02*
X5512920Y-15183150D01*
X5579586Y-15316484D02*
X5579586Y-15183150D01*
X5579586Y-15116484D02*
X5570063Y-15126008D01*
X5570063Y-15126008D02*
X5579586Y-15135531D01*
X5579586Y-15135531D02*
X5589110Y-15126008D01*
X5589110Y-15126008D02*
X5579586Y-15116484D01*
X5579586Y-15116484D02*
X5579586Y-15135531D01*
X5703396Y-15316484D02*
X5684348Y-15306960D01*
X5684348Y-15306960D02*
X5674824Y-15287912D01*
X5674824Y-15287912D02*
X5674824Y-15116484D01*
X5808158Y-15316484D02*
X5789110Y-15306960D01*
X5789110Y-15306960D02*
X5779586Y-15287912D01*
X5779586Y-15287912D02*
X5779586Y-15116484D01*
X6036729Y-15316484D02*
X6036729Y-15116484D01*
X6036729Y-15116484D02*
X6103396Y-15259341D01*
X6103396Y-15259341D02*
X6170062Y-15116484D01*
X6170062Y-15116484D02*
X6170062Y-15316484D01*
X6351015Y-15316484D02*
X6351015Y-15211722D01*
X6351015Y-15211722D02*
X6341491Y-15192674D01*
X6341491Y-15192674D02*
X6322443Y-15183150D01*
X6322443Y-15183150D02*
X6284348Y-15183150D01*
X6284348Y-15183150D02*
X6265301Y-15192674D01*
X6351015Y-15306960D02*
X6331967Y-15316484D01*
X6331967Y-15316484D02*
X6284348Y-15316484D01*
X6284348Y-15316484D02*
X6265301Y-15306960D01*
X6265301Y-15306960D02*
X6255777Y-15287912D01*
X6255777Y-15287912D02*
X6255777Y-15268865D01*
X6255777Y-15268865D02*
X6265301Y-15249817D01*
X6265301Y-15249817D02*
X6284348Y-15240293D01*
X6284348Y-15240293D02*
X6331967Y-15240293D01*
X6331967Y-15240293D02*
X6351015Y-15230769D01*
X6446253Y-15183150D02*
X6446253Y-15383150D01*
X6446253Y-15192674D02*
X6465301Y-15183150D01*
X6465301Y-15183150D02*
X6503396Y-15183150D01*
X6503396Y-15183150D02*
X6522443Y-15192674D01*
X6522443Y-15192674D02*
X6531967Y-15202198D01*
X6531967Y-15202198D02*
X6541491Y-15221246D01*
X6541491Y-15221246D02*
X6541491Y-15278388D01*
X6541491Y-15278388D02*
X6531967Y-15297436D01*
X6531967Y-15297436D02*
X6522443Y-15306960D01*
X6522443Y-15306960D02*
X6503396Y-15316484D01*
X6503396Y-15316484D02*
X6465301Y-15316484D01*
X6465301Y-15316484D02*
X6446253Y-15306960D01*
X6627205Y-15297436D02*
X6636729Y-15306960D01*
X6636729Y-15306960D02*
X6627205Y-15316484D01*
X6627205Y-15316484D02*
X6617682Y-15306960D01*
X6617682Y-15306960D02*
X6627205Y-15297436D01*
X6627205Y-15297436D02*
X6627205Y-15316484D01*
X6627205Y-15192674D02*
X6636729Y-15202198D01*
X6636729Y-15202198D02*
X6627205Y-15211722D01*
X6627205Y-15211722D02*
X6617682Y-15202198D01*
X6617682Y-15202198D02*
X6627205Y-15192674D01*
X6627205Y-15192674D02*
X6627205Y-15211722D01*
M02*
