M48
; DRILL file {KiCad 7.0.9-7.0.9~ubuntu20.04.1} date ned 17 dec 2023 18:48:33
; FORMAT={-:-/ absolute / metric / decimal}
; #@! TF.CreationDate,2023-12-17T18:48:33+01:00
; #@! TF.GenerationSoftware,Kicad,Pcbnew,7.0.9-7.0.9~ubuntu20.04.1
; #@! TF.FileFunction,Plated,1,2,PTH
FMAT,2
METRIC
; #@! TA.AperFunction,Plated,PTH,ViaDrill
T1C0.500
; #@! TA.AperFunction,Plated,PTH,ComponentDrill
T2C0.500
; #@! TA.AperFunction,Plated,PTH,ComponentDrill
T3C0.600
; #@! TA.AperFunction,Plated,PTH,ViaDrill
T4C0.800
; #@! TA.AperFunction,Plated,PTH,ComponentDrill
T5C0.800
; #@! TA.AperFunction,Plated,PTH,ComponentDrill
T6C1.000
; #@! TA.AperFunction,Plated,PTH,ComponentDrill
T7C1.200
; #@! TA.AperFunction,Plated,PTH,ComponentDrill
T8C1.300
; #@! TA.AperFunction,Plated,PTH,ComponentDrill
T9C1.400
; #@! TA.AperFunction,Plated,PTH,ComponentDrill
T10C3.200
; #@! TA.AperFunction,Plated,PTH,ComponentDrill
T11C6.000
%
G90
G05
T1
X69.935Y-86.991
X71.548Y-88.595
X75.91Y-84.982
X75.931Y-81.46
X76.793Y-79.594
X77.089Y-91.602
X78.961Y-93.726
X80.192Y-85.897
X80.304Y-88.34
X80.699Y-107.85
X83.079Y-107.704
X87.04Y-111.405
X89.892Y-116.099
X92.305Y-87.16
X94.746Y-46.985
X96.85Y-80.81
X96.99Y-82.69
X97.763Y-99.422
X100.455Y-105.775
X103.96Y-117.527
X105.245Y-90.945
X106.837Y-99.69
X107.162Y-109.227
X108.303Y-46.985
X112.839Y-122.083
X113.399Y-80.81
X116.675Y-100.68
X136.595Y-74.69
X136.595Y-77.23
X136.595Y-86.69
X136.595Y-89.23
X147.79Y-61.59
X150.33Y-61.59
X172.136Y-108.796
X174.361Y-113.395
X181.513Y-53.403
X183.083Y-82.588
X183.858Y-46.273
X184.04Y-52.73
X184.607Y-94.145
X190.898Y-95.664
X191.141Y-134.144
X192.862Y-94.183
X193.002Y-102.756
X194.005Y-84.239
X197.235Y-96.63
X198.134Y-46.759
X198.59Y-109.614
X203.215Y-115.3
X212.179Y-77.035
X222.354Y-77.098
T2
X146.04Y-70.53
X146.04Y-73.07
X146.04Y-75.61
X146.04Y-78.15
X146.04Y-80.69
X146.04Y-83.23
X146.04Y-85.77
X146.04Y-88.31
X146.04Y-90.85
X146.04Y-93.39
X148.58Y-70.53
X148.58Y-73.07
X148.58Y-75.61
X148.58Y-78.15
X148.58Y-80.69
X148.58Y-83.23
X148.58Y-85.77
X148.58Y-88.31
X148.58Y-90.85
X148.58Y-93.39
X151.12Y-70.53
X151.12Y-73.07
X151.12Y-75.61
X151.12Y-78.15
X151.12Y-80.69
X151.12Y-83.23
X151.12Y-85.77
X151.12Y-88.31
X151.12Y-90.85
X151.12Y-93.39
X153.66Y-70.53
X153.66Y-73.07
X153.66Y-75.61
X153.66Y-78.15
X153.66Y-80.69
X153.66Y-83.23
X153.66Y-85.77
X153.66Y-88.31
X153.66Y-90.85
X153.66Y-93.39
X156.2Y-70.53
X156.2Y-73.07
X156.2Y-75.61
X156.2Y-78.15
X156.2Y-80.69
X156.2Y-83.23
X156.2Y-85.77
X156.2Y-88.31
X156.2Y-90.85
X156.2Y-93.39
X158.74Y-70.53
X158.74Y-73.07
X158.74Y-75.61
X158.74Y-78.15
X158.74Y-80.69
X158.74Y-83.23
X158.74Y-85.77
X158.74Y-88.31
X158.74Y-90.85
X158.74Y-93.39
X161.28Y-70.53
X161.28Y-73.07
X161.28Y-75.61
X161.28Y-78.15
X161.28Y-80.69
X161.28Y-83.23
X161.28Y-85.77
X161.28Y-88.31
X161.28Y-90.85
X161.28Y-93.39
X163.82Y-70.53
X163.82Y-73.07
X163.82Y-75.61
X163.82Y-78.15
X163.82Y-80.69
X163.82Y-83.23
X163.82Y-85.77
X163.82Y-88.31
X163.82Y-90.85
X163.82Y-93.39
X166.36Y-70.53
X166.36Y-73.07
X166.36Y-75.61
X166.36Y-78.15
X166.36Y-80.69
X166.36Y-83.23
X166.36Y-85.77
X166.36Y-88.31
X166.36Y-90.85
X166.36Y-93.39
X168.9Y-70.53
X168.9Y-73.07
X168.9Y-75.61
X168.9Y-78.15
X168.9Y-80.69
X168.9Y-83.23
X168.9Y-85.77
X168.9Y-88.31
X168.9Y-90.85
X168.9Y-93.39
T3
X180.698Y-61.325
X180.698Y-131.81
X182.698Y-61.325
X182.698Y-131.81
X196.965Y-131.81
X198.965Y-131.81
T4
X178.806Y-99.486
T5
X86.83Y-46.985
X86.83Y-49.525
X86.83Y-52.065
X102.07Y-46.985
X102.07Y-49.525
X102.07Y-52.065
X123.241Y-109.845
X123.241Y-114.845
X181.661Y-110.04
X181.661Y-115.04
X192.36Y-46.985
X192.36Y-49.525
X192.36Y-52.065
X207.6Y-46.985
X207.6Y-49.525
X207.6Y-52.065
T6
X60.0Y-58.19
X60.0Y-60.73
X60.0Y-63.27
X60.0Y-65.81
X60.0Y-80.19
X60.0Y-82.73
X60.0Y-85.27
X60.0Y-87.81
X60.0Y-102.19
X60.0Y-104.73
X60.0Y-107.27
X60.0Y-109.81
X60.0Y-124.19
X60.0Y-126.73
X60.0Y-129.27
X60.0Y-131.81
X62.54Y-58.19
X62.54Y-60.73
X62.54Y-63.27
X62.54Y-65.81
X62.54Y-80.19
X62.54Y-82.73
X62.54Y-85.27
X62.54Y-87.81
X62.54Y-102.19
X62.54Y-104.73
X62.54Y-107.27
X62.54Y-109.81
X62.54Y-124.19
X62.54Y-126.73
X62.54Y-129.27
X62.54Y-131.81
X94.105Y-96.885
X94.105Y-99.425
X94.105Y-101.965
X94.105Y-104.505
X94.105Y-107.045
X94.105Y-109.585
X94.105Y-112.125
X94.105Y-114.665
X94.105Y-117.205
X94.105Y-119.745
X94.105Y-122.285
X94.105Y-124.825
X94.105Y-127.365
X94.105Y-129.905
X94.105Y-132.445
X109.345Y-96.885
X109.345Y-99.425
X109.345Y-101.965
X109.345Y-104.505
X109.345Y-107.045
X109.345Y-109.585
X109.345Y-112.125
X109.345Y-114.665
X109.345Y-117.205
X109.345Y-119.745
X109.345Y-122.285
X109.345Y-124.825
X109.345Y-127.365
X109.345Y-129.905
X109.345Y-132.445
X220.46Y-58.19
X220.46Y-60.73
X220.46Y-63.27
X220.46Y-91.19
X220.46Y-93.73
X220.46Y-96.27
X220.46Y-98.81
X223.0Y-58.19
X223.0Y-60.73
X223.0Y-63.27
X223.0Y-91.19
X223.0Y-93.73
X223.0Y-96.27
X223.0Y-98.81
X223.0Y-124.19
X223.0Y-126.73
X223.0Y-129.27
X223.0Y-131.81
T7
X76.51Y-65.81
X96.83Y-65.81
T8
X187.435Y-142.275
X192.515Y-142.275
T9
X132.639Y-104.188
X132.639Y-121.332
X172.136Y-104.188
X172.136Y-121.332
T10
X54.2Y-44.2
X54.2Y-145.8
X228.8Y-44.2
X228.8Y-145.8
T11
X137.63Y-50.59
X137.63Y-61.59
X166.205Y-50.59
X166.205Y-61.59
T0
M30
