G04 #@! TF.GenerationSoftware,KiCad,Pcbnew,7.0.9-7.0.9~ubuntu20.04.1*
G04 #@! TF.CreationDate,2023-12-17T18:48:26+01:00*
G04 #@! TF.ProjectId,linear_controller,6c696e65-6172-45f6-936f-6e74726f6c6c,1.0*
G04 #@! TF.SameCoordinates,Original*
G04 #@! TF.FileFunction,Soldermask,Bot*
G04 #@! TF.FilePolarity,Negative*
%FSLAX46Y46*%
G04 Gerber Fmt 4.6, Leading zero omitted, Abs format (unit mm)*
G04 Created by KiCad (PCBNEW 7.0.9-7.0.9~ubuntu20.04.1) date 2023-12-17 18:48:26*
%MOMM*%
%LPD*%
G01*
G04 APERTURE LIST*
G04 Aperture macros list*
%AMRoundRect*
0 Rectangle with rounded corners*
0 $1 Rounding radius*
0 $2 $3 $4 $5 $6 $7 $8 $9 X,Y pos of 4 corners*
0 Add a 4 corners polygon primitive as box body*
4,1,4,$2,$3,$4,$5,$6,$7,$8,$9,$2,$3,0*
0 Add four circle primitives for the rounded corners*
1,1,$1+$1,$2,$3*
1,1,$1+$1,$4,$5*
1,1,$1+$1,$6,$7*
1,1,$1+$1,$8,$9*
0 Add four rect primitives between the rounded corners*
20,1,$1+$1,$2,$3,$4,$5,0*
20,1,$1+$1,$4,$5,$6,$7,0*
20,1,$1+$1,$6,$7,$8,$9,0*
20,1,$1+$1,$8,$9,$2,$3,0*%
G04 Aperture macros list end*
%ADD10C,5.600000*%
%ADD11C,1.440000*%
%ADD12RoundRect,0.625000X0.625000X0.625000X-0.625000X0.625000X-0.625000X-0.625000X0.625000X-0.625000X0*%
%ADD13C,2.500000*%
%ADD14R,1.700000X1.700000*%
%ADD15O,1.700000X1.700000*%
%ADD16RoundRect,0.250000X0.600000X0.600000X-0.600000X0.600000X-0.600000X-0.600000X0.600000X-0.600000X0*%
%ADD17C,1.700000*%
%ADD18RoundRect,0.250000X-0.600000X-0.600000X0.600000X-0.600000X0.600000X0.600000X-0.600000X0.600000X0*%
%ADD19R,1.200000X1.200000*%
%ADD20C,1.200000*%
%ADD21C,8.000000*%
%ADD22R,8.000000X8.000000*%
%ADD23R,1.600000X1.600000*%
%ADD24C,1.600000*%
%ADD25O,1.600000X1.600000*%
%ADD26C,2.400000*%
%ADD27O,2.400000X2.400000*%
%ADD28R,2.600000X2.600000*%
%ADD29C,2.600000*%
%ADD30R,0.900000X1.200000*%
%ADD31R,1.200000X0.900000*%
%ADD32RoundRect,0.250000X-0.625000X0.312500X-0.625000X-0.312500X0.625000X-0.312500X0.625000X0.312500X0*%
%ADD33RoundRect,0.250000X-0.312500X-0.625000X0.312500X-0.625000X0.312500X0.625000X-0.312500X0.625000X0*%
%ADD34RoundRect,0.250000X-0.325000X-0.650000X0.325000X-0.650000X0.325000X0.650000X-0.325000X0.650000X0*%
%ADD35RoundRect,0.150000X0.825000X0.150000X-0.825000X0.150000X-0.825000X-0.150000X0.825000X-0.150000X0*%
%ADD36RoundRect,0.042000X-0.943000X-0.258000X0.943000X-0.258000X0.943000X0.258000X-0.943000X0.258000X0*%
%ADD37R,2.300000X2.500000*%
%ADD38RoundRect,0.250000X0.325000X0.650000X-0.325000X0.650000X-0.325000X-0.650000X0.325000X-0.650000X0*%
%ADD39RoundRect,0.250000X0.312500X1.450000X-0.312500X1.450000X-0.312500X-1.450000X0.312500X-1.450000X0*%
%ADD40RoundRect,0.250000X0.650000X-0.325000X0.650000X0.325000X-0.650000X0.325000X-0.650000X-0.325000X0*%
%ADD41C,2.000000*%
%ADD42RoundRect,0.250000X-0.650000X0.325000X-0.650000X-0.325000X0.650000X-0.325000X0.650000X0.325000X0*%
%ADD43RoundRect,0.250000X0.312500X0.625000X-0.312500X0.625000X-0.312500X-0.625000X0.312500X-0.625000X0*%
%ADD44R,2.200000X1.200000*%
%ADD45R,6.400000X5.800000*%
%ADD46R,1.200000X2.200000*%
%ADD47R,5.800000X6.400000*%
%ADD48RoundRect,0.250000X0.625000X-0.312500X0.625000X0.312500X-0.625000X0.312500X-0.625000X-0.312500X0*%
%ADD49R,1.701800X0.533400*%
%ADD50R,4.600000X0.800000*%
%ADD51R,9.400000X10.800000*%
%ADD52RoundRect,0.500000X-12.500000X-12.500000X12.500000X-12.500000X12.500000X12.500000X-12.500000X12.500000X0*%
G04 APERTURE END LIST*
D10*
X54200000Y-145800000D03*
D11*
X102070000Y-52065000D03*
X102070000Y-49525000D03*
X102070000Y-46985000D03*
X86830000Y-52065000D03*
X86830000Y-49525000D03*
X86830000Y-46985000D03*
D12*
X172136500Y-121332500D03*
D13*
X172136500Y-104187500D03*
X132639500Y-104187500D03*
X132639500Y-121332500D03*
D14*
X223000000Y-124190000D03*
D15*
X223000000Y-126730000D03*
X223000000Y-129270000D03*
X223000000Y-131810000D03*
D11*
X192360000Y-52065000D03*
X192360000Y-49525000D03*
X192360000Y-46985000D03*
D16*
X223000000Y-63270000D03*
D17*
X220460000Y-63270000D03*
X223000000Y-60730000D03*
X220460000Y-60730000D03*
X223000000Y-58190000D03*
X220460000Y-58190000D03*
D18*
X60000000Y-80190000D03*
D17*
X62540000Y-80190000D03*
X60000000Y-82730000D03*
X62540000Y-82730000D03*
X60000000Y-85270000D03*
X62540000Y-85270000D03*
X60000000Y-87810000D03*
X62540000Y-87810000D03*
D19*
X182697600Y-131810000D03*
D20*
X180697600Y-131810000D03*
D21*
X166205000Y-50590000D03*
D22*
X166205000Y-61590000D03*
D19*
X196965000Y-131810000D03*
D20*
X198965000Y-131810000D03*
D23*
X123241500Y-114845200D03*
D24*
X123241500Y-109845200D03*
D18*
X60000000Y-58190000D03*
D17*
X62540000Y-58190000D03*
X60000000Y-60730000D03*
X62540000Y-60730000D03*
X60000000Y-63270000D03*
X62540000Y-63270000D03*
X60000000Y-65810000D03*
X62540000Y-65810000D03*
D10*
X54200000Y-44200000D03*
D18*
X60000000Y-124190000D03*
D17*
X62540000Y-124190000D03*
X60000000Y-126730000D03*
X62540000Y-126730000D03*
X60000000Y-129270000D03*
X62540000Y-129270000D03*
X60000000Y-131810000D03*
X62540000Y-131810000D03*
D23*
X94105000Y-96885000D03*
D25*
X94105000Y-99425000D03*
X94105000Y-101965000D03*
X94105000Y-104505000D03*
X94105000Y-107045000D03*
X94105000Y-109585000D03*
X94105000Y-112125000D03*
X94105000Y-114665000D03*
X94105000Y-117205000D03*
X94105000Y-119745000D03*
X94105000Y-122285000D03*
X94105000Y-124825000D03*
X94105000Y-127365000D03*
X94105000Y-129905000D03*
X94105000Y-132445000D03*
X109345000Y-132445000D03*
X109345000Y-129905000D03*
X109345000Y-127365000D03*
X109345000Y-124825000D03*
X109345000Y-122285000D03*
X109345000Y-119745000D03*
X109345000Y-117205000D03*
X109345000Y-114665000D03*
X109345000Y-112125000D03*
X109345000Y-109585000D03*
X109345000Y-107045000D03*
X109345000Y-104505000D03*
X109345000Y-101965000D03*
X109345000Y-99425000D03*
X109345000Y-96885000D03*
D10*
X228800000Y-145800000D03*
X228800000Y-44200000D03*
D21*
X137630000Y-50590000D03*
D22*
X137630000Y-61590000D03*
D19*
X182697600Y-61325000D03*
D20*
X180697600Y-61325000D03*
D11*
X207600000Y-52065000D03*
X207600000Y-49525000D03*
X207600000Y-46985000D03*
D26*
X76510000Y-65810000D03*
D27*
X96830000Y-65810000D03*
D18*
X60000000Y-102190000D03*
D17*
X62540000Y-102190000D03*
X60000000Y-104730000D03*
X62540000Y-104730000D03*
X60000000Y-107270000D03*
X62540000Y-107270000D03*
X60000000Y-109810000D03*
X62540000Y-109810000D03*
D28*
X187435000Y-142275000D03*
D29*
X192515000Y-142275000D03*
D23*
X181661500Y-110039800D03*
D24*
X181661500Y-115039800D03*
D16*
X223000000Y-98810000D03*
D17*
X220460000Y-98810000D03*
X223000000Y-96270000D03*
X220460000Y-96270000D03*
X223000000Y-93730000D03*
X220460000Y-93730000D03*
X223000000Y-91190000D03*
X220460000Y-91190000D03*
D30*
X79305000Y-111080000D03*
X82605000Y-111080000D03*
D31*
X187280000Y-51175000D03*
X187280000Y-47875000D03*
D32*
X104730000Y-104272500D03*
X104730000Y-107197500D03*
D33*
X209472500Y-107065000D03*
X212397500Y-107065000D03*
D34*
X90910000Y-75110000D03*
X93860000Y-75110000D03*
D35*
X83430000Y-79555000D03*
X83430000Y-80825000D03*
X83430000Y-82095000D03*
X83430000Y-83365000D03*
X83430000Y-84635000D03*
X83430000Y-85905000D03*
X83430000Y-87175000D03*
X83430000Y-88445000D03*
X78480000Y-88445000D03*
X78480000Y-87175000D03*
X78480000Y-85905000D03*
X78480000Y-84635000D03*
X78480000Y-83365000D03*
X78480000Y-82095000D03*
X78480000Y-80825000D03*
X78480000Y-79555000D03*
D36*
X185440000Y-91435000D03*
X185440000Y-90165000D03*
X185440000Y-88895000D03*
X185440000Y-87625000D03*
X185440000Y-86355000D03*
X185440000Y-85085000D03*
X185440000Y-83815000D03*
X185440000Y-82545000D03*
X190390000Y-82545000D03*
X190390000Y-83815000D03*
X190390000Y-85085000D03*
X190390000Y-86355000D03*
X190390000Y-87625000D03*
X190390000Y-88895000D03*
X190390000Y-90165000D03*
X190390000Y-91435000D03*
D37*
X202520000Y-51675000D03*
X202520000Y-47375000D03*
D34*
X60000000Y-50570000D03*
X62950000Y-50570000D03*
D38*
X57460000Y-131810000D03*
X54510000Y-131810000D03*
D32*
X198075000Y-74097500D03*
X198075000Y-77022500D03*
D39*
X215452500Y-63495000D03*
X211177500Y-63495000D03*
D31*
X188550000Y-73910000D03*
X188550000Y-77210000D03*
D38*
X57460000Y-126730000D03*
X54510000Y-126730000D03*
D40*
X132766500Y-113917500D03*
X132766500Y-110967500D03*
D41*
X223000000Y-145000000D03*
D40*
X96355000Y-49730000D03*
X96355000Y-46780000D03*
D30*
X204205000Y-110875000D03*
X207505000Y-110875000D03*
D38*
X189385000Y-94610000D03*
X186435000Y-94610000D03*
D34*
X66780000Y-64540000D03*
X69730000Y-64540000D03*
D40*
X81115000Y-49730000D03*
X81115000Y-46780000D03*
X226175000Y-98810000D03*
X226175000Y-95860000D03*
D34*
X143140000Y-61590000D03*
X146090000Y-61590000D03*
X66780000Y-59460000D03*
X69730000Y-59460000D03*
D40*
X172136500Y-113917500D03*
X172136500Y-110967500D03*
D38*
X81115000Y-53335000D03*
X78165000Y-53335000D03*
D34*
X214540000Y-107065000D03*
X217490000Y-107065000D03*
X66985000Y-85270000D03*
X69935000Y-85270000D03*
X180090000Y-44445000D03*
X183040000Y-44445000D03*
D38*
X55965000Y-80190000D03*
X53015000Y-80190000D03*
D31*
X191725000Y-77210000D03*
X191725000Y-73910000D03*
D40*
X198075000Y-51000000D03*
X198075000Y-48050000D03*
D34*
X66985000Y-81460000D03*
X69935000Y-81460000D03*
D42*
X76510000Y-111080000D03*
X76510000Y-114030000D03*
D38*
X207330000Y-107065000D03*
X204380000Y-107065000D03*
D43*
X187280000Y-54605000D03*
X184355000Y-54605000D03*
D32*
X72700000Y-124190000D03*
X72700000Y-127115000D03*
D39*
X215452500Y-57780000D03*
X211177500Y-57780000D03*
D44*
X196965000Y-122920000D03*
D45*
X203265000Y-120640000D03*
D44*
X196965000Y-118360000D03*
D46*
X213215000Y-103010000D03*
D47*
X210935000Y-96710000D03*
D46*
X208655000Y-103010000D03*
D35*
X94860000Y-78285000D03*
X94860000Y-79555000D03*
X94860000Y-80825000D03*
X94860000Y-82095000D03*
X94860000Y-83365000D03*
X94860000Y-84635000D03*
X94860000Y-85905000D03*
X94860000Y-87175000D03*
X89910000Y-87175000D03*
X89910000Y-85905000D03*
X89910000Y-84635000D03*
X89910000Y-83365000D03*
X89910000Y-82095000D03*
X89910000Y-80825000D03*
X89910000Y-79555000D03*
X89910000Y-78285000D03*
D40*
X107785000Y-94325000D03*
X107785000Y-91375000D03*
X213315000Y-51000000D03*
X213315000Y-48050000D03*
D38*
X200185000Y-94490000D03*
X197235000Y-94490000D03*
X154980000Y-61590000D03*
X152030000Y-61590000D03*
D48*
X76510000Y-127115000D03*
X76510000Y-124190000D03*
D40*
X203530000Y-77035000D03*
X203530000Y-74085000D03*
D49*
X196119200Y-90800000D03*
X196119200Y-89530000D03*
X196119200Y-88260000D03*
X196119200Y-86990000D03*
X196119200Y-85720000D03*
X196119200Y-84450000D03*
X196119200Y-83180000D03*
X201300800Y-83180000D03*
X201300800Y-84450000D03*
X201300800Y-85720000D03*
X201300800Y-86990000D03*
X201300800Y-88260000D03*
X201300800Y-89530000D03*
X201300800Y-90800000D03*
D42*
X202520000Y-55035000D03*
X202520000Y-57985000D03*
D43*
X145250000Y-97150000D03*
X142325000Y-97150000D03*
D34*
X66985000Y-89080000D03*
X69935000Y-89080000D03*
X196965000Y-126095000D03*
X199915000Y-126095000D03*
D48*
X194900000Y-77022500D03*
X194900000Y-74097500D03*
D38*
X55965000Y-87810000D03*
X53015000Y-87810000D03*
D40*
X116040000Y-51000000D03*
X116040000Y-48050000D03*
D38*
X57460000Y-129270000D03*
X54510000Y-129270000D03*
D50*
X139820000Y-79770000D03*
X139820000Y-78500000D03*
X139820000Y-77230000D03*
X139820000Y-75960000D03*
D51*
X148970000Y-75960000D03*
D50*
X139820000Y-74690000D03*
X139820000Y-73420000D03*
X139820000Y-72150000D03*
D52*
X157470000Y-81960000D03*
D38*
X57460000Y-124190000D03*
X54510000Y-124190000D03*
D42*
X85400000Y-111080000D03*
X85400000Y-114030000D03*
X68890000Y-124190000D03*
X68890000Y-127140000D03*
D40*
X226175000Y-93730000D03*
X226175000Y-90780000D03*
D35*
X184040000Y-47620000D03*
X184040000Y-48890000D03*
X184040000Y-50160000D03*
X184040000Y-51430000D03*
X179090000Y-51430000D03*
X179090000Y-50160000D03*
X179090000Y-48890000D03*
X179090000Y-47620000D03*
D38*
X55965000Y-84000000D03*
X53015000Y-84000000D03*
X56200000Y-100715000D03*
X53250000Y-100715000D03*
D32*
X185375000Y-74097500D03*
X185375000Y-77022500D03*
D34*
X66780000Y-77650000D03*
X69730000Y-77650000D03*
D43*
X212397500Y-110875000D03*
X209472500Y-110875000D03*
D40*
X226810000Y-131810000D03*
X226810000Y-128860000D03*
D37*
X110325000Y-51675000D03*
X110325000Y-47375000D03*
D41*
X60000000Y-45000000D03*
D34*
X196965000Y-115300000D03*
X199915000Y-115300000D03*
D50*
X139820000Y-91770000D03*
X139820000Y-90500000D03*
X139820000Y-89230000D03*
X139820000Y-87960000D03*
D51*
X148970000Y-87960000D03*
D50*
X139820000Y-86690000D03*
X139820000Y-85420000D03*
X139820000Y-84150000D03*
D35*
X83430000Y-97745000D03*
X83430000Y-99015000D03*
X83430000Y-100285000D03*
X83430000Y-101555000D03*
X83430000Y-102825000D03*
X83430000Y-104095000D03*
X83430000Y-105365000D03*
X83430000Y-106635000D03*
X78480000Y-106635000D03*
X78480000Y-105365000D03*
X78480000Y-104095000D03*
X78480000Y-102825000D03*
X78480000Y-101555000D03*
X78480000Y-100285000D03*
X78480000Y-99015000D03*
X78480000Y-97745000D03*
M02*
